<svg width="63" height="63" viewBox="0 0 63 63" fill="none" xmlns="http://www.w3.org/2000/svg">
<mask id="mask0_1300_261" style="mask-type:luminance" maskUnits="userSpaceOnUse" x="1" y="1" width="62" height="62">
<path d="M62.9739 1H1V63H62.9739V1Z" fill="white"/>
</mask>
<g mask="url(#mask0_1300_261)">
<path d="M9.06006 42.1057V62.2169" stroke="#9AC21C" stroke-width="3" stroke-linecap="round" stroke-linejoin="round"/>
</g>
<path d="M13.4531 42.1731V53.1585" stroke="#9AC21C" stroke-width="3" stroke-linecap="round" stroke-linejoin="round"/>
<path d="M9.16454 30.7749L6.92358 29.8294C6.50568 29.657 6.08779 29.4951 5.67512 29.307C4.98559 28.9936 4.855 28.3877 5.35125 27.7399C6.43255 26.3348 7.52953 24.9453 8.62128 23.561L10.319 21.3722C10.4287 21.2312 10.5332 21.0902 10.6481 20.9596C10.9354 20.6357 11.2383 20.5469 11.5048 20.735C11.6445 20.8428 11.7517 20.9873 11.8144 21.1523C11.8771 21.3174 11.8929 21.4965 11.86 21.67C11.7764 22.7147 11.7137 23.7856 11.6458 24.8512C11.6458 25.0184 11.6458 25.1855 11.6458 25.4258C11.8391 25.5146 12.0324 25.6191 12.2361 25.7027L14.9002 26.8153C15.0378 26.8598 15.1707 26.9175 15.2972 26.9877C15.4029 27.0482 15.4951 27.1297 15.568 27.2273C15.6409 27.3249 15.6929 27.4365 15.7208 27.5551C15.7487 27.6736 15.752 27.7967 15.7303 27.9165C15.7086 28.0364 15.6626 28.1505 15.5949 28.2518C15.5238 28.3649 15.4453 28.4731 15.3598 28.5757L10.2824 35.0322C10.2041 35.1367 10.1205 35.2411 10.0369 35.3352C9.96056 35.4377 9.84929 35.5087 9.72415 35.5347C9.599 35.5607 9.46867 35.5399 9.35782 35.4762C9.21625 35.3966 9.10058 35.2779 9.02463 35.1343C8.94867 34.9908 8.91564 34.8284 8.92948 34.6665C8.92948 34.4942 8.92948 34.327 8.92948 34.1442C9.00783 33.0368 9.08096 31.9293 9.16454 30.7279M6.9497 28.0586L7.44595 28.2832L9.77049 29.26C10.4809 29.563 10.5697 29.7249 10.5123 30.6495C10.4809 31.1719 10.4548 31.6943 10.4235 32.2166L10.5227 32.2584L13.8084 28.0481C13.6621 27.9698 13.5942 27.928 13.5211 27.8966L10.9719 26.8206C10.3085 26.5437 10.1884 26.2982 10.2458 25.4728C10.2458 25.3266 10.2772 25.1855 10.2876 25.0393C10.2876 24.6423 10.3242 24.2453 10.3451 23.6863L6.9497 28.0325" fill="#9AC21C"/>
<path d="M21.9629 33.8047C21.0278 34.7711 19.2152 38.13 16.6399 38.13H6.80894C5.48539 38.1286 4.21653 37.6018 3.28113 36.6654C2.34573 35.7291 1.82031 34.4596 1.82031 33.1361V6.80869C1.8217 5.48605 2.34773 4.21798 3.28297 3.28273C4.21822 2.34748 5.4863 1.82145 6.80894 1.82007H26.309C27.6316 1.82145 28.8997 2.34748 29.8349 3.28273C30.7702 4.21798 31.2962 5.48605 31.2976 6.80869V16.5091" stroke="white" stroke-width="3.14" stroke-linecap="round" stroke-linejoin="round"/>
<path d="M16.4567 38.1667V40.2249C16.4567 40.6821 16.2751 41.1205 15.9518 41.4438C15.6285 41.7671 15.19 41.9487 14.7329 41.9487H7.83759C7.3804 41.9487 6.94194 41.7671 6.61866 41.4438C6.29539 41.1205 6.11377 40.6821 6.11377 40.2249V38.1667" stroke="white" stroke-width="3" stroke-miterlimit="10"/>
<path d="M16.2949 7.95268C16.3007 8.15036 16.2502 8.34561 16.1494 8.51576C16.0486 8.6859 15.9016 8.82395 15.7255 8.91384C14.6428 9.54627 13.4331 9.9299 12.1838 10.0369C12.1638 10.0393 12.1448 10.047 12.1287 10.0591C12.1125 10.0711 12.0999 10.0872 12.0919 10.1058C12.084 10.1243 12.0811 10.1446 12.0834 10.1646C12.0858 10.1846 12.0934 10.2036 12.1055 10.2198L14.43 13.26C14.4787 13.3248 14.5418 13.3775 14.6143 13.4138C14.6868 13.45 14.7668 13.4689 14.8479 13.4689H21.9887C22.4683 13.4736 22.935 13.3131 23.3103 13.0144L24.6058 11.9436C24.6185 11.9343 24.628 11.9212 24.6327 11.9061C24.6374 11.8911 24.6371 11.8749 24.6319 11.86C24.6274 11.8439 24.6179 11.8296 24.6048 11.8193C24.5916 11.8089 24.5755 11.8031 24.5587 11.8025H17.3396C17.2185 11.8028 17.0989 11.7751 16.9902 11.7216C16.8815 11.6682 16.7866 11.5904 16.7128 11.4943L16.1173 10.7212H23.7804C24.2682 10.7196 24.7405 10.5499 25.1177 10.2407L26.4079 9.19592C26.4163 9.18262 26.4207 9.16723 26.4207 9.15152C26.4207 9.13581 26.4163 9.12043 26.4079 9.10712C26.4026 9.09196 26.3927 9.07882 26.3796 9.06947C26.3665 9.06013 26.3509 9.05504 26.3348 9.05488H17.8933L19.2828 8.11462C19.454 8.00359 19.6534 7.94378 19.8574 7.94224H25.5774C26.0674 7.94441 26.5426 7.77431 26.9199 7.46166L28.2049 6.41692C28.2175 6.40634 28.2267 6.39226 28.2314 6.37646C28.236 6.36066 28.2359 6.34384 28.231 6.32812C28.2256 6.31296 28.2158 6.29981 28.2027 6.29047C28.1896 6.28113 28.1739 6.27603 28.1579 6.27588H12.7323C10.9458 6.27588 8.98692 6.52139 7.74891 8.36536L4.30127 13.4898H6.97058C7.26959 13.5279 7.57318 13.4757 7.84223 13.3397C8.11129 13.2038 8.33349 12.9905 8.48022 12.7271L10.9301 9.07055C11.2867 8.56387 11.7546 8.14555 12.2979 7.84766C12.8411 7.54976 13.4454 7.3802 14.0644 7.35196C14.639 7.30495 16.1538 7.24226 16.2949 7.9997" fill="#9AC21C"/>
<path d="M6.13477 17.6846H15.924" stroke="white" stroke-width="3.14" stroke-linecap="round" stroke-linejoin="round"/>
<path d="M34.8026 26.7945C33.9146 26.7945 31.6684 26.7945 30.8065 26.7945C29.9446 26.7945 29.7618 26.9512 29.6677 27.8392C29.5939 28.7935 29.162 29.6846 28.4586 30.3337C27.7552 30.9828 26.8324 31.342 25.8753 31.3391C24.8654 31.3391 23.8572 31.3391 22.8508 31.3391C21.891 31.3375 20.9694 30.9629 20.2808 30.2944C19.7036 29.7725 19.319 29.0714 19.189 28.3041H19.8785C21.7486 28.3041 23.6187 28.3041 25.4888 28.3041C26.2723 28.3041 26.6954 28.0847 26.6641 27.1027C26.6223 25.8595 26.6641 24.6214 26.6641 23.3782C26.6812 23.2045 26.6812 23.0295 26.6641 22.8558C26.6352 22.6786 26.5435 22.5177 26.4057 22.4026C26.2678 22.2875 26.0932 22.2259 25.9137 22.2291C25.7341 22.2323 25.5617 22.3 25.4281 22.4199C25.2944 22.5398 25.2084 22.7038 25.1858 22.882C25.1728 23.0297 25.1728 23.1782 25.1858 23.326V26.7579H24.4493C22.5113 26.7579 20.5785 26.7579 18.6457 26.7579C17.7838 26.7579 17.5174 27.0505 17.601 27.9124C17.6832 29.213 18.2425 30.4376 19.1718 31.3514C20.101 32.2652 21.3348 32.804 22.6366 32.8644C23.7911 32.9062 24.9507 32.9114 26.1052 32.8644C26.9426 32.8557 27.7644 32.6363 28.4947 32.2264C29.225 31.8165 29.8404 31.2293 30.2841 30.519C30.6666 29.8302 30.9983 29.1144 31.2766 28.3773H34.8235C34.7755 27.856 34.7755 27.3314 34.8235 26.8102" fill="#AAD901"/>
<path d="M18.468 23.765C19.894 23.765 21.3253 23.765 22.7514 23.765C22.8567 23.778 22.9635 23.7693 23.0653 23.7392C23.167 23.7092 23.2615 23.6586 23.3428 23.5905C23.4242 23.5224 23.4906 23.4382 23.5381 23.3433C23.5855 23.2485 23.6129 23.1448 23.6185 23.0389C23.6185 22.5896 23.2999 22.271 22.7514 22.2553C22.2029 22.2396 21.7432 22.2553 21.2365 22.2553H19.2045C19.2411 22.0673 19.2515 21.9419 19.2881 21.827C19.5234 21.0873 19.9824 20.4389 20.6017 19.9711C21.2211 19.5033 21.9703 19.2391 22.7462 19.2151C23.8379 19.2151 24.9349 19.1733 26.0266 19.2151C26.6798 19.2195 27.3189 19.4056 27.8724 19.7524C28.426 20.0993 28.8721 20.5933 29.1609 21.1792C29.4031 21.689 29.5635 22.2337 29.6362 22.7934C29.7564 23.5247 29.934 23.7336 30.6809 23.7441H34.9957C34.9957 23.462 34.9487 23.1904 34.9592 22.9083C34.9696 22.6262 34.9592 22.4538 34.9592 22.2292H31.1459C31.1093 22.0777 31.0884 21.9785 31.0675 21.8792C30.8674 20.8496 30.3539 19.907 29.5974 19.1804C28.841 18.4538 27.8784 17.9788 26.8415 17.8204C25.6508 17.7044 24.4536 17.6695 23.2581 17.7159C22.7324 17.706 22.2071 17.7516 21.691 17.8517C20.5528 18.1037 19.5307 18.7269 18.7855 19.6234C18.0403 20.5199 17.6144 21.6387 17.5747 22.8038C17.5747 23.4463 17.8307 23.7545 18.4627 23.7597" fill="#AAD901"/>
<path d="M62.9636 24.9508C62.8853 23.6683 62.3426 22.4583 61.437 21.5469C60.5313 20.6356 59.3248 20.0852 58.0429 19.9987C57.2087 19.935 56.3715 20.0742 55.6029 20.4044C54.8342 20.7346 54.1569 21.246 53.6289 21.8949C53.4826 22.0621 53.3834 22.2867 53.1065 22.2815C52.8297 22.2762 51.5394 22.2815 51.2573 22.2815C51.2573 22.8038 51.3618 23.2948 51.414 23.7963C51.7118 23.7963 53.0491 23.7963 53.3364 23.7963C53.5853 23.8243 53.8371 23.7783 54.06 23.664C54.283 23.5497 54.4674 23.3723 54.59 23.1538C55.0065 22.5284 55.6055 22.0464 56.3055 21.7735C57.0056 21.5006 57.7727 21.4499 58.5026 21.6285C59.2954 21.8005 60.011 22.2248 60.5422 22.838C61.0734 23.4511 61.3915 24.2199 61.4487 25.0291C61.5124 25.845 61.3094 26.6596 60.8701 27.3501C60.4308 28.0406 59.7791 28.5698 59.0131 28.8579C58.2471 29.146 57.4083 29.1776 56.6228 28.9477C55.8373 28.7179 55.1478 28.2391 54.6579 27.5835C54.543 27.432 54.4542 27.2596 54.3341 27.1186C54.2769 27.0385 54.2046 26.9705 54.1211 26.9184C54.0376 26.8664 53.9446 26.8313 53.8475 26.8153C53.7505 26.7993 53.6512 26.8026 53.5554 26.8251C53.4596 26.8475 53.3692 26.8887 53.2893 26.9462C53.1261 27.0476 53.0097 27.2095 52.9657 27.3965C52.9216 27.5835 52.9535 27.7804 53.0543 27.9439C53.1391 28.1121 53.2406 28.2714 53.3573 28.4193C53.9362 29.23 54.7378 29.8554 55.6649 30.2198C56.5921 30.5841 57.605 30.6718 58.5809 30.4722C59.8604 30.2549 61.0131 29.5691 61.8146 28.5484C62.6161 27.5277 63.0089 26.2452 62.9166 24.9508" fill="#AAD901"/>
<path d="M51.7115 44.2155C51.6108 44.2008 51.5082 44.2064 51.4097 44.232C51.3112 44.2576 51.2189 44.3026 51.1381 44.3645C51.0573 44.4263 50.9897 44.5036 50.9392 44.592C50.8888 44.6803 50.8565 44.7779 50.8443 44.8789C50.7972 45.0823 50.7606 45.2881 50.7346 45.4953C50.5916 46.4944 50.2353 47.4511 49.6899 48.3004C49.6011 48.4144 49.5052 48.5226 49.4026 48.6243V39.8119C49.802 40.3046 50.1195 40.8585 50.3428 41.4522C50.4421 41.7081 50.5152 41.9745 50.6302 42.22C50.6989 42.3865 50.8258 42.5223 50.9873 42.6021C51.1488 42.6819 51.3337 42.7002 51.5077 42.6536C51.689 42.5977 51.8429 42.4764 51.9395 42.3131C52.0361 42.1499 52.0684 41.9566 52.0301 41.7708C52.0102 41.6678 51.9823 41.5665 51.9465 41.4678C51.6151 40.2453 50.9809 39.1261 50.1026 38.2135C49.836 37.9707 49.6297 37.6692 49.5 37.3328C49.3703 36.9963 49.3209 36.6343 49.3556 36.2755C49.3401 35.7616 49.5278 35.2624 49.8779 34.886C50.9446 33.7491 51.5642 32.2649 51.6227 30.707C51.6404 30.6023 51.6365 30.4951 51.6112 30.392C51.5859 30.2889 51.5398 30.192 51.4757 30.1073C51.4116 30.0227 51.3309 29.952 51.2385 29.8998C51.1461 29.8475 51.0439 29.8147 50.9383 29.8033C50.5152 29.7668 50.1914 30.0697 50.113 30.5764C50.113 30.66 50.113 30.7436 50.113 30.8272C50.0107 32.0744 49.4529 33.2403 48.5459 34.1024C48.3142 34.3104 48.1335 34.5688 48.0175 34.8577C47.9016 35.1467 47.8536 35.4584 47.8773 35.7688C47.9034 40.397 47.8773 45.0199 47.9034 49.6429C47.9208 49.8368 47.8804 50.0314 47.7875 50.2024C47.6945 50.3735 47.5531 50.5132 47.381 50.6041C46.5352 51.138 45.5906 51.4964 44.6035 51.658C43.6164 51.8195 42.6068 51.7809 41.635 51.5443C40.5307 51.2917 39.4976 50.7936 38.6122 50.0869C37.7268 49.3803 37.0119 48.4834 36.5207 47.4627C36.0294 46.442 35.7743 45.3238 35.7744 44.191C35.7744 43.0582 36.0296 41.94 36.521 40.9193C36.6758 40.4977 36.9324 40.1209 37.2679 39.8224V45.4013C37.2679 45.5893 37.2679 45.7774 37.2679 45.9654C37.2941 46.5244 37.5918 46.8639 38.0411 46.8534C38.4903 46.843 38.7619 46.5035 38.7828 45.9393C38.7828 45.8139 38.7828 45.6833 38.7828 45.558C38.7828 42.2775 38.7828 39.0022 38.7828 35.7218C38.7871 35.1972 38.6595 34.6799 38.4119 34.2173C37.5918 32.6084 36.7926 30.9891 35.9829 29.3802C35.8151 29.0581 35.7324 28.6985 35.7426 28.3355C35.7426 27.2019 35.7426 26.0684 35.7426 24.9296C35.7426 24.5535 35.7426 24.1722 35.7426 23.7961C35.735 23.6578 35.7662 23.5201 35.8328 23.3986C35.8994 23.2772 35.9986 23.1768 36.1193 23.1088C36.24 23.0409 36.3773 23.0081 36.5157 23.0141C36.6541 23.0202 36.788 23.0649 36.9023 23.1431C37.1 23.2522 37.2769 23.3954 37.4247 23.5662C37.7984 24.0015 37.9975 24.5598 37.9836 25.1333C37.9836 26.1049 37.9836 27.0713 37.9836 28.0377C37.9836 28.7899 38.1821 28.9936 38.9343 29.0825C39.7209 29.1349 40.4561 29.4913 40.9846 30.0763C41.513 30.6612 41.7931 31.4288 41.7655 32.2167C41.7655 32.995 41.7655 33.7838 41.7655 34.5464C41.7524 34.7569 41.7524 34.968 41.7655 35.1785C41.78 35.3698 41.866 35.5485 42.0063 35.6792C42.1467 35.8099 42.3312 35.8829 42.523 35.8837C42.724 35.8894 42.9193 35.816 43.0668 35.6792C43.2143 35.5425 43.3023 35.3533 43.3118 35.1524C43.3196 35.0271 43.3196 34.9015 43.3118 34.7763C43.3118 33.9353 43.3118 33.0942 43.3118 32.2532C43.3271 31.631 43.2171 31.012 42.9883 30.4332C42.7594 29.8543 42.4164 29.3275 41.9797 28.884C41.8979 28.7938 41.8228 28.6978 41.7551 28.5966C42.2072 28.9211 42.7529 29.089 43.3092 29.0749C43.8655 29.0607 44.402 28.8653 44.8371 28.5183C45.2591 28.8688 45.7903 29.0606 46.3389 29.0606C46.8874 29.0606 47.4187 28.8688 47.8407 28.5183L48.0705 28.6489C48.4176 28.8922 48.8261 29.0332 49.2494 29.0556C49.6726 29.078 50.0937 28.9811 50.4646 28.7758C50.8354 28.5705 51.1411 28.2651 51.3468 27.8945C51.5525 27.5238 51.6499 27.1029 51.6279 26.6796C51.6279 26.2199 51.6801 22.2446 51.6279 22.2446C51.6906 21.1477 51.5443 20.1865 50.5831 19.5858C49.622 18.9851 48.7078 19.1731 47.8303 19.7634C47.4079 19.4116 46.8755 19.2189 46.3258 19.2189C45.7761 19.2189 45.2438 19.4116 44.8214 19.7634C44.3949 19.4072 43.8569 19.2122 43.3013 19.2122C42.7457 19.2122 42.2077 19.4072 41.7812 19.7634C41.4249 19.4574 40.9826 19.269 40.515 19.2241C40.0475 19.1792 39.5774 19.28 39.1694 19.5126C38.7576 19.7468 38.4253 20.0987 38.2149 20.5232C38.0046 20.9476 37.9258 21.4252 37.9888 21.8947C37.9157 21.8947 37.8896 21.8947 37.8739 21.8947L37.7067 21.8059C37.274 21.6037 36.7956 21.5189 36.3197 21.5602C35.8438 21.6015 35.3872 21.7673 34.9956 22.0409C34.7502 22.2574 34.5511 22.5212 34.4102 22.8165C34.2692 23.1118 34.1894 23.4326 34.1755 23.7595L34.0972 28.3355C34.1835 28.8179 34.3129 29.2917 34.4837 29.7511C35.1262 31.1145 35.7896 32.4779 36.5157 33.8047C37.0729 34.7221 37.3321 35.7897 37.2575 36.8605C37.2449 37.2284 37.0959 37.5784 36.8396 37.8426C34.5046 40.3082 33.7054 43.2334 34.536 46.5035C35.1056 48.7772 36.5438 50.737 38.5418 51.9626C40.5399 53.1882 42.9387 53.5819 45.2236 53.0592C46.698 52.7729 48.0729 52.1094 49.2145 51.1335C50.3561 50.1576 51.2254 48.9026 51.7376 47.4907C52.0061 46.7191 52.1986 45.923 52.3122 45.114C52.3349 45.0156 52.3372 44.9136 52.3189 44.8144C52.3006 44.7151 52.2621 44.6207 52.2058 44.5369C52.1495 44.4531 52.0765 44.3818 51.9915 44.3274C51.9064 44.2731 51.8111 44.2367 51.7115 44.2207M48.5772 21.8372C48.5677 21.6624 48.5782 21.4872 48.6086 21.3148C48.6433 21.1493 48.7339 21.0008 48.8651 20.8942C48.9964 20.7876 49.1603 20.7294 49.3295 20.7294C49.4986 20.7294 49.6625 20.7876 49.7938 20.8942C49.925 21.0008 50.0156 21.1493 50.0503 21.3148C50.0791 21.4592 50.0897 21.6066 50.0817 21.7536C50.0817 23.3207 50.0817 24.8878 50.0817 26.4549C50.0817 27.1288 49.8257 27.4997 49.3556 27.4997C48.8854 27.4997 48.5772 27.1445 48.572 26.4549V24.1565C48.572 23.3782 48.572 22.5894 48.572 21.832M45.5527 21.4402C45.5709 21.2581 45.6553 21.089 45.7899 20.965C45.9245 20.841 46.0999 20.7707 46.2829 20.7675C46.4659 20.7642 46.6437 20.8283 46.7825 20.9475C46.9214 21.0667 47.0117 21.2327 47.0363 21.4141C47.0467 21.5602 47.0467 21.7068 47.0363 21.8529V26.6273C47.0363 27.1915 46.7385 27.531 46.2945 27.5415C45.8505 27.5519 45.5475 27.2124 45.5266 26.6587C45.5266 26.3818 45.5266 26.1363 45.5266 25.8385V21.8947C45.5162 21.7486 45.5162 21.6019 45.5266 21.4559M42.5595 21.3723C42.5855 21.1947 42.6744 21.0325 42.8101 20.9151C42.9459 20.7978 43.1193 20.7332 43.2987 20.7332C43.4781 20.7332 43.6515 20.7978 43.7873 20.9151C43.923 21.0325 44.0119 21.1947 44.0379 21.3723C44.0484 21.4974 44.0484 21.6232 44.0379 21.7484C44.0379 23.3155 44.0379 24.8826 44.0379 26.4497C44.0379 27.1236 43.7819 27.4945 43.3065 27.4945C42.8312 27.4945 42.5334 27.1392 42.5334 26.4497C42.5334 25.7602 42.5334 24.8826 42.5334 24.1252C42.5334 23.3677 42.5334 22.5581 42.5334 21.8006C42.5203 21.6547 42.5203 21.5078 42.5334 21.3618M39.4985 21.4245C39.4985 21.2264 39.5772 21.0364 39.7173 20.8963C39.8573 20.7562 40.0473 20.6775 40.2455 20.6775C40.4436 20.6775 40.6336 20.7562 40.7737 20.8963C40.9137 21.0364 40.9924 21.2264 40.9924 21.4245C40.9924 21.529 40.9924 21.6335 40.9924 21.7379C40.9924 23.305 40.9924 24.8722 40.9924 26.4393C40.9924 27.1131 40.7313 27.484 40.2559 27.484C39.7805 27.484 39.488 27.1288 39.4828 26.4393V21.8947C39.4749 21.7485 39.4749 21.602 39.4828 21.4559" fill="white"/>
<path d="M29.3437 40.418C29.8295 39.2636 30.2787 38.1823 30.7645 37.0174C30.3153 36.5734 29.819 36.0719 29.3176 35.5652C29.1818 35.4346 29.0459 35.304 28.9153 35.163C28.8312 35.0899 28.7637 34.9996 28.7175 34.8982C28.6713 34.7969 28.6474 34.6867 28.6474 34.5753C28.6474 34.4639 28.6713 34.3537 28.7175 34.2524C28.7637 34.151 28.8312 34.0607 28.9153 33.9876C30.0785 32.8036 31.2521 31.6283 32.4361 30.4616C32.502 30.379 32.5843 30.3108 32.6778 30.2615C32.7713 30.2121 32.874 30.1826 32.9794 30.1747C33.0849 30.1669 33.1908 30.1809 33.2905 30.2159C33.3903 30.2509 33.4818 30.3061 33.5592 30.3781C33.6372 30.4574 33.6975 30.5524 33.7361 30.6567C33.7748 30.761 33.7909 30.8723 33.7835 30.9833C33.7761 31.0943 33.7453 31.2025 33.6932 31.3007C33.641 31.399 33.5687 31.4851 33.4809 31.5534C32.6398 32.4101 31.7884 33.2511 30.9421 34.0973L30.519 34.5413C30.6153 34.6735 30.7182 34.8008 30.8272 34.9227C31.3026 35.4033 31.7832 35.8734 32.2481 36.3592C32.3299 36.4192 32.3987 36.4953 32.4501 36.5828C32.5016 36.6703 32.5347 36.7673 32.5474 36.868C32.5601 36.9687 32.5522 37.071 32.5241 37.1685C32.4959 37.266 32.4482 37.3568 32.3839 37.4353C31.6744 38.6026 31.1461 39.8706 30.8168 41.1963C30.6653 41.7918 30.4511 41.9276 29.8138 41.9329C29.0407 41.9329 28.2467 41.9329 27.4632 41.9329V46.4723H29.8138C30.472 46.4723 30.6235 46.6237 30.8586 47.2663C31.1459 48.1177 31.4488 48.9692 31.7832 49.805C31.945 50.186 32.1317 50.5559 32.3421 50.9124C32.4142 50.9977 32.4679 51.0971 32.4998 51.2042C32.5317 51.3113 32.541 51.4238 32.5273 51.5347C32.5136 51.6456 32.477 51.7524 32.42 51.8485C32.3629 51.9446 32.2866 52.0278 32.1958 52.093C31.6421 52.6623 31.078 53.2369 30.5451 53.7593L33.7211 56.9301C33.8299 56.8523 33.9329 56.7668 34.0293 56.6741C34.5099 56.204 34.9801 55.7234 35.4659 55.2585C35.5233 55.1785 35.5961 55.1108 35.6802 55.0594C35.7642 55.008 35.8577 54.974 35.9551 54.9594C36.0525 54.9448 36.1519 54.9499 36.2473 54.9743C36.3427 54.9988 36.4322 55.0421 36.5106 55.1018C37.7108 55.8393 39.0184 56.3856 40.3866 56.7211C40.4874 56.7333 40.5848 56.7656 40.6729 56.8161C40.761 56.8666 40.838 56.9343 40.8994 57.0152C40.9608 57.0961 41.0054 57.1885 41.0303 57.287C41.0553 57.3854 41.0602 57.4879 41.0448 57.5883C41.0448 58.1994 41.0448 58.8106 41.0448 59.4218V60.0956H42.5335C42.8104 60.0956 43.0559 60.0956 43.3536 60.0956C43.5449 60.1063 43.7249 60.1895 43.8569 60.3283C43.9889 60.4671 44.063 60.6511 44.0641 60.8426C44.0677 60.9424 44.0508 61.0418 44.0142 61.1348C43.9777 61.2277 43.9225 61.3121 43.8519 61.3827C43.7813 61.4533 43.6969 61.5085 43.604 61.545C43.5111 61.5815 43.4116 61.5985 43.3118 61.5948C42.2671 61.5948 41.2537 61.6262 40.2246 61.5948C39.7493 61.5948 39.509 61.271 39.4933 60.7382C39.4933 60.0643 39.4933 59.3957 39.4933 58.7218C39.4933 58.5129 39.4933 58.3039 39.4933 58.1524L36.0979 56.7368L34.5622 58.2674C34.4369 58.4101 34.3006 58.5428 34.1547 58.6644C34.0147 58.7767 33.8406 58.8379 33.6611 58.8379C33.4816 58.8379 33.3074 58.7767 33.1674 58.6644C33.0316 58.5651 32.9167 58.4397 32.7339 58.2726L32.2115 59.1815C31.8197 59.824 31.5272 59.9076 30.869 59.5472L29.8243 58.9464L29.0773 59.3591C29.0773 59.7927 29.0773 60.2315 29.0773 60.6703C29.0773 61.2866 28.7952 61.5687 28.1945 61.5739C26.7632 61.5739 25.3336 61.5739 23.9058 61.5739C23.2842 61.5739 23.0387 61.3075 23.023 60.6807C23.023 60.2419 23.023 59.8031 23.023 59.3643L22.2604 58.983C21.8738 59.1972 21.4768 59.427 21.0694 59.636C20.547 59.918 20.2127 59.8554 19.9045 59.3382C19.1627 58.0915 18.4384 56.8361 17.7314 55.5719C17.6578 55.4794 17.607 55.3709 17.5828 55.2552C17.5587 55.1394 17.562 55.0197 17.5925 54.9054C17.6229 54.7912 17.6797 54.6857 17.7583 54.5973C17.8368 54.509 17.935 54.4402 18.0448 54.3966C18.2381 54.2712 18.4471 54.1668 18.6456 54.0466L19.1679 53.7227V52.8452C18.8284 52.6467 18.4627 52.4482 18.1232 52.2288C17.5225 51.8631 17.4232 51.5392 17.768 50.9228C18.4471 49.7162 19.1418 48.5147 19.8575 47.3237C20.2231 46.7073 20.5261 46.6394 21.1634 46.979L22.2447 47.5901L23.0126 47.1827C23.0126 46.7073 23.0126 46.2058 23.0126 45.7096C23.0087 45.5501 23.0579 45.3938 23.1525 45.2652C23.247 45.1366 23.3815 45.0431 23.5349 44.9992C23.6748 44.9449 23.829 44.9396 23.9722 44.9842C24.1155 45.0288 24.2394 45.1206 24.3237 45.2447C24.4368 45.4175 24.5001 45.6181 24.5065 45.8245C24.5065 46.4096 24.5065 46.9999 24.5065 47.5901C24.5104 47.7612 24.4626 47.9294 24.3694 48.0729C24.2762 48.2164 24.142 48.3285 23.9842 48.3946C23.5663 48.6244 23.1484 48.8647 22.7357 49.1207C22.6038 49.2072 22.4495 49.2533 22.2917 49.2533C22.1339 49.2533 21.9796 49.2072 21.8477 49.1207L20.8552 48.5565L19.356 51.1684C19.6903 51.3669 19.9724 51.5445 20.2597 51.6907C20.4299 51.7743 20.5688 51.9102 20.6563 52.0784C20.7437 52.2467 20.7749 52.4385 20.7455 52.6258C20.7089 53.0446 20.7089 53.4658 20.7455 53.8847C20.7747 54.082 20.7397 54.2835 20.6456 54.4594C20.5516 54.6353 20.4035 54.7763 20.2231 54.8615C19.9515 55.013 19.7008 55.1802 19.3664 55.3839L20.8656 57.9957C21.2156 57.7972 21.5081 57.6405 21.7955 57.4734C21.9409 57.3692 22.1154 57.3131 22.2943 57.3131C22.4733 57.3131 22.6477 57.3692 22.7932 57.4734C23.1612 57.7167 23.5432 57.9383 23.9372 58.1368C24.1254 58.2124 24.2833 58.3483 24.3863 58.5231C24.4893 58.6979 24.5316 58.9018 24.5065 59.1031C24.5065 59.4113 24.5065 59.7195 24.5065 60.0591H27.5363C27.5363 59.6986 27.5363 59.3487 27.5363 59.0143C27.5242 58.8357 27.5679 58.6578 27.6615 58.5052C27.7552 58.3526 27.8939 58.233 28.0587 58.1629C28.4661 57.9539 28.8631 57.7136 29.2497 57.4681C29.3894 57.374 29.554 57.3238 29.7224 57.3238C29.8908 57.3238 30.0554 57.374 30.1951 57.4681C30.4825 57.6405 30.7802 57.8024 31.1459 57.9905C31.2973 57.7189 31.4488 57.4681 31.5794 57.2383L28.8109 54.4802C28.6177 54.8884 28.3414 55.2517 27.9995 55.5467C27.6577 55.8418 27.2579 56.0621 26.8259 56.1936C26.1535 56.3876 25.4344 56.3396 24.7939 56.0577C24.1784 55.7873 23.6706 55.3195 23.3507 54.7282C23.0307 54.137 22.9169 53.456 23.0271 52.7929C23.1373 52.1297 23.4654 51.5222 23.9593 51.0663C24.4533 50.6103 25.0852 50.3319 25.755 50.2751C27.2803 50.1236 28.4034 51.0325 29.0459 52.887L30.7071 51.1788C30.5138 50.7609 30.2422 50.2229 30.0123 49.6639C29.7825 49.105 29.5996 48.5617 29.3803 47.9662H27.0139C26.1259 47.9662 25.8961 47.7364 25.8961 46.8536C25.8961 45.0671 25.8961 43.2806 25.8961 41.4941C25.8961 40.6217 26.1259 40.3971 27.0244 40.3971H29.3437M27.5311 53.2526C27.5138 52.8533 27.3446 52.4758 27.0582 52.1971C26.7718 51.9184 26.3897 51.7597 25.9901 51.7534C25.5897 51.7534 25.2057 51.9125 24.9226 52.1956C24.6395 52.4787 24.4804 52.8627 24.4804 53.2631C24.4804 53.6634 24.6395 54.0474 24.9226 54.3305C25.2057 54.6137 25.5897 54.7727 25.9901 54.7727C26.3886 54.7596 26.7671 54.5951 27.0485 54.3126C27.33 54.0302 27.4932 53.6512 27.5049 53.2526" fill="white"/>
<path d="M59.1657 46.3836V41.9801C59.009 41.9801 58.8523 41.9383 58.6956 41.9383H56.7419C56.183 41.9383 55.9427 41.7816 55.8121 41.2749C55.4743 39.9058 54.9281 38.5968 54.1927 37.3937C54.1331 37.3153 54.0897 37.2258 54.0652 37.1304C54.0408 37.0349 54.0357 36.9356 54.0503 36.8382C54.0649 36.7408 54.0989 36.6473 54.1503 36.5633C54.2017 36.4792 54.2694 36.4063 54.3494 36.3489C54.8091 35.8631 55.2949 35.3982 55.7651 34.9176C55.8695 34.8132 55.9583 34.7035 56.0785 34.5677C55.9636 34.4266 55.8695 34.296 55.7598 34.1811C54.9188 33.3296 54.0674 32.4886 53.2264 31.6372C53.0883 31.5086 52.9719 31.3587 52.8816 31.1932C52.8224 31.0551 52.8072 30.9022 52.838 30.7553C52.8688 30.6083 52.9441 30.4743 53.0536 30.3716C53.1632 30.2689 53.3017 30.2024 53.4504 30.1812C53.599 30.1599 53.7506 30.185 53.8845 30.2529C54.046 30.3489 54.1922 30.4686 54.3181 30.6081C55.3942 31.6737 56.465 32.7428 57.5307 33.8154C58.0948 34.3901 58.1001 34.7453 57.5307 35.3094C56.9613 35.8736 56.3501 36.4482 55.8069 36.9706C56.3031 38.1616 56.7576 39.2585 57.2434 40.4182H59.641C60.4455 40.4182 60.6858 40.6637 60.6858 41.4629C60.6858 43.2912 60.6858 45.1195 60.6858 46.9478C60.6858 47.7366 60.4298 47.9925 59.641 47.9925H57.259L55.8486 51.3827L57.2538 52.7931C57.3896 52.9237 57.5255 53.0543 57.656 53.1953C57.7526 53.2706 57.8308 53.3668 57.8845 53.4768C57.9383 53.5868 57.9662 53.7076 57.9662 53.83C57.9662 53.9524 57.9383 54.0732 57.8845 54.1832C57.8308 54.2932 57.7526 54.3895 57.656 54.4647C56.2979 55.8403 54.931 57.2071 53.5554 58.5653C53.4815 58.6637 53.3856 58.7436 53.2755 58.7986C53.1653 58.8536 53.0439 58.8822 52.9208 58.8822C52.7976 58.8822 52.6762 58.8536 52.5661 58.7986C52.4559 58.7436 52.3601 58.6637 52.2861 58.5653C51.6749 57.9593 51.0846 57.3325 50.5205 56.7475L47.0885 58.1787V60.4406C47.1041 60.6301 47.1041 60.8205 47.0885 61.01C47.0458 61.1862 46.9421 61.3415 46.7958 61.4486C46.6496 61.5557 46.4701 61.6075 46.2893 61.595C46.1214 61.5825 45.9622 61.5155 45.8359 61.4043C45.7095 61.293 45.623 61.1436 45.5893 60.9786C45.5763 60.8536 45.5763 60.7276 45.5893 60.6025C45.5893 59.6362 45.5893 58.6645 45.5893 57.6982C45.5893 57.0557 45.7251 56.8415 46.3154 56.6952C47.6411 56.3659 48.9092 55.8376 50.0765 55.1281C50.1546 55.0639 50.2449 55.0161 50.3419 54.9876C50.4389 54.959 50.5407 54.9503 50.6412 54.9621C50.7416 54.9738 50.8387 55.0056 50.9265 55.0557C51.0144 55.1057 51.0913 55.173 51.1525 55.2535C51.6384 55.7184 52.1085 56.199 52.5838 56.6743C52.6883 56.7736 52.798 56.8676 52.8868 56.9407L56.021 53.7543C55.9526 53.6569 55.8776 53.5644 55.7964 53.4774C55.3263 52.9968 54.8405 52.5267 54.3756 52.0409C54.2943 51.9804 54.2261 51.9041 54.1751 51.8167C54.1241 51.7292 54.0912 51.6323 54.0785 51.5318C54.0658 51.4313 54.0736 51.3293 54.1013 51.2319C54.129 51.1344 54.1761 51.0436 54.2397 50.9648C54.9471 49.7965 55.4753 48.5287 55.8069 47.2038C55.9583 46.6083 56.1673 46.4725 56.8046 46.4672H59.0717C59.0717 46.4672 59.1082 46.4672 59.1814 46.3993" fill="white"/>
<path d="M57.6405 27.5469C57.0596 27.5423 56.5027 27.3148 56.0846 26.9115C55.6665 26.5081 55.4192 25.9597 55.3938 25.3793C55.3683 24.7989 55.5666 24.2309 55.9477 23.7925C56.3289 23.3541 56.8638 23.0787 57.442 23.0232C57.6497 22.9775 57.8669 23.0147 58.0474 23.127C58.228 23.2392 58.3575 23.4175 58.4084 23.6239C58.4231 23.7267 58.417 23.8313 58.3907 23.9317C58.3643 24.032 58.3181 24.1261 58.2548 24.2084C58.1915 24.2906 58.1125 24.3594 58.0222 24.4106C57.932 24.4619 57.8324 24.4945 57.7293 24.5067C57.6273 24.5221 57.5261 24.543 57.4264 24.5694C57.2618 24.6223 57.1202 24.7299 57.0252 24.8743C56.9301 25.0187 56.8874 25.1913 56.904 25.3634C56.9316 25.5301 57.012 25.6835 57.1333 25.801C57.2546 25.9185 57.4104 25.994 57.5779 26.0164C57.7465 26.0281 57.9143 25.983 58.0544 25.8884C58.1945 25.7937 58.2989 25.6549 58.351 25.494C58.3875 25.3948 58.3823 25.2851 58.4084 25.1858C58.437 24.987 58.5419 24.8071 58.7008 24.6842C58.8598 24.5614 59.0603 24.5052 59.2599 24.5276C59.3639 24.5452 59.4634 24.5834 59.5525 24.6399C59.6416 24.6964 59.7185 24.7701 59.7788 24.8566C59.8392 24.9432 59.8816 25.0409 59.9037 25.1441C59.9258 25.2472 59.9272 25.3538 59.9076 25.4574C59.8601 26.031 59.5972 26.5654 59.1718 26.953C58.7464 27.3407 58.1899 27.5528 57.6144 27.5469" fill="#AAD901"/>
</svg>
