<svg width="43" height="66" viewBox="0 0 43 66" fill="none" xmlns="http://www.w3.org/2000/svg">
<path d="M12.9406 30.9516L10.1833 30.0417C9.67046 29.8708 9.1521 29.7164 8.64476 29.5344C7.79552 29.2311 7.64663 28.6245 8.26977 27.9627C9.63738 26.5234 11.027 25.0952 12.4002 23.6669L14.5453 21.4611C14.6832 21.3177 14.8155 21.1743 14.9589 21.042C15.0828 20.8872 15.2554 20.7789 15.4487 20.7348C15.642 20.6908 15.8445 20.7135 16.0232 20.7993C16.1851 20.888 16.314 21.0267 16.3906 21.1947C16.4671 21.3627 16.4872 21.5509 16.4478 21.7313C16.3265 22.8011 16.2273 23.8764 16.1225 24.9518C16.1225 25.1227 16.1225 25.2937 16.0839 25.5032C16.3265 25.5915 16.5692 25.6962 16.8118 25.7735L20.1205 26.8764C20.2859 26.9226 20.448 26.9797 20.6058 27.0473C20.7287 27.0899 20.8394 27.1618 20.9283 27.2568C21.0171 27.3518 21.0815 27.467 21.1157 27.5926C21.1499 27.7181 21.153 27.85 21.1247 27.977C21.0964 28.104 21.0375 28.2221 20.9532 28.3212C20.8628 28.4374 20.7632 28.5462 20.6554 28.6465C18.5342 30.8523 16.4074 33.0582 14.2751 35.264C14.1758 35.3688 14.0711 35.4791 13.9608 35.5783C13.8511 35.6954 13.707 35.7746 13.5494 35.8043C13.3918 35.834 13.2287 35.8128 13.084 35.7437C12.9218 35.683 12.7839 35.571 12.6913 35.4246C12.5987 35.2783 12.5565 35.1057 12.5711 34.9331C12.5711 34.7622 12.5987 34.5912 12.6152 34.4203C12.7255 33.3174 12.8413 32.1814 12.9626 30.9626M10.2715 28.3101C10.5307 28.4039 10.7017 28.4701 10.8781 28.5252L13.7402 29.4682C14.617 29.766 14.7218 29.9314 14.6391 30.8634C14.5894 31.4148 14.5453 31.9387 14.4957 32.4736L14.6225 32.5122L18.7419 28.1943C18.5654 28.1171 18.4827 28.073 18.3945 28.0454L15.2512 27.0032C14.435 26.733 14.2917 26.5124 14.3744 25.6521C14.3744 25.5088 14.424 25.3654 14.435 25.2165C14.4681 24.8139 14.4957 24.4114 14.5343 23.8489C13.0454 25.3929 11.6722 26.8157 10.2495 28.2991" fill="#9AC21C"/>
<path d="M41.4287 48.6366V41.9806C41.2561 40.2798 40.8189 38.6164 40.1328 37.0506C39.5907 35.8639 38.9154 34.7428 38.12 33.7088L35.9473 30.8467C35.6036 30.3942 35.16 30.0274 34.6511 29.7748C34.1421 29.5223 33.5817 29.3909 33.0135 29.3909H28.5247L22.4532 35.3631C22.2552 35.5581 22.1196 35.8075 22.0637 36.0797C22.0079 36.3519 22.0343 36.6346 22.1395 36.8917C22.2447 37.1489 22.4241 37.3689 22.6547 37.5239C22.8854 37.6789 23.1569 37.7617 23.4348 37.7619H29.043C29.5257 37.7654 30.0028 37.8647 30.4468 38.054C30.8908 38.2433 31.2928 38.5189 31.6294 38.8649L34.155 41.3905C34.6391 41.871 34.9807 42.476 35.1421 43.1386L35.4509 47.6881C35.7322 48.9675 37.574 49.8939 38.8865 49.8939H40.3258C40.4846 49.8955 40.6419 49.8628 40.7868 49.798C40.9318 49.7331 41.0611 49.6378 41.1658 49.5184C41.2705 49.399 41.3482 49.2584 41.3936 49.1062C41.439 48.9541 41.451 48.7939 41.4287 48.6366Z" stroke="white" stroke-width="2.02116" stroke-miterlimit="10"/>
<path d="M13.6133 43.3647V48.3278C13.6133 54.0133 18.2345 59.7099 23.931 59.7099H25.9162C28.6869 59.6622 31.3282 58.5291 33.2721 56.5542C35.216 54.5794 36.3072 51.9206 36.3112 49.1495" stroke="white" stroke-width="2.02116" stroke-linecap="round" stroke-linejoin="round"/>
<path d="M9.44434 43.3647V48.4492C9.44434 52.5735 11.0827 56.529 13.9991 59.4454C16.9155 62.3618 20.871 64.0002 24.9954 64.0002H26.0431C27.8736 64.0002 29.6861 63.6395 31.3772 62.9389C33.0682 62.2382 34.6047 61.2113 35.8988 59.9167C37.1929 58.6221 38.2192 57.0852 38.9192 55.3939C39.6192 53.7025 39.9791 51.8899 39.9784 50.0594" stroke="white" stroke-width="2.02116" stroke-linecap="round" stroke-linejoin="round"/>
<path d="M16.9499 38.6331H7.02375C5.69036 38.6302 4.41257 38.0985 3.47075 37.1546C2.52893 36.2107 2 34.9317 2 33.5983V7.03478C2 5.69947 2.53045 4.41886 3.47465 3.47465C4.41886 2.53045 5.69947 2 7.03478 2H26.7052C28.0405 2 29.3211 2.53045 30.2653 3.47465C31.2095 4.41886 31.7399 5.69947 31.7399 7.03478V23.4847C31.7401 24.7803 31.238 26.0256 30.3392 26.9588L20.5509 37.1001C20.086 37.5863 19.527 37.973 18.9079 38.2365C18.2889 38.5001 17.6227 38.635 16.9499 38.6331Z" stroke="white" stroke-width="2.02116" stroke-miterlimit="10"/>
<path d="M16.9116 38.5947V40.7619C16.9116 41.2446 16.7198 41.7075 16.3786 42.0487C16.0373 42.39 15.5744 42.5817 15.0918 42.5817H7.7905C7.30786 42.5817 6.84499 42.39 6.50371 42.0487C6.16243 41.7075 5.9707 41.2446 5.9707 40.7619V38.5947" stroke="white" stroke-width="2.02116" stroke-miterlimit="10"/>
<path d="M17.0214 9.57135C17.0242 9.76755 16.9745 9.96094 16.8775 10.1315C16.7806 10.3022 16.6399 10.4438 16.47 10.5419C15.3684 11.1777 14.1374 11.5566 12.869 11.6503C12.8484 11.6527 12.8288 11.6605 12.8123 11.673C12.7958 11.6855 12.7829 11.7022 12.775 11.7213C12.7671 11.7404 12.7645 11.7614 12.7675 11.7818C12.7704 11.8023 12.7788 11.8217 12.7918 11.8378L15.141 14.9039C15.1888 14.97 15.2519 15.0235 15.3249 15.06C15.3978 15.0965 15.4785 15.1148 15.5601 15.1135H22.7621C23.249 15.1126 23.7206 14.9431 24.0966 14.6337L25.4366 13.5804C25.4444 13.567 25.4484 13.5518 25.4484 13.5363C25.4484 13.5208 25.4444 13.5056 25.4366 13.4922C25.4317 13.4757 25.4215 13.4613 25.4075 13.4514C25.3935 13.4414 25.3766 13.4363 25.3594 13.437H18.0747C17.9519 13.4373 17.8307 13.409 17.7207 13.3544C17.6106 13.2999 17.5147 13.2206 17.4405 13.1227L16.8394 12.3452H24.5598C25.053 12.3461 25.531 12.1744 25.9109 11.8599L27.2123 10.7901C27.2213 10.7771 27.2261 10.7617 27.2261 10.7459C27.2261 10.7302 27.2213 10.7148 27.2123 10.7018C27.2066 10.6858 27.1962 10.672 27.1824 10.6621C27.1686 10.6522 27.1521 10.6468 27.1351 10.6467H18.6317L20.0434 9.73127C20.215 9.6178 20.4167 9.55826 20.6224 9.56032H26.3851C26.8778 9.55852 27.3549 9.38716 27.7362 9.07504L29.0376 7.9997C29.0504 7.98968 29.0596 7.9759 29.0641 7.96031C29.0686 7.94472 29.068 7.92813 29.0625 7.91287C29.057 7.89761 29.0469 7.88447 29.0335 7.87531C29.0201 7.86615 29.0042 7.86144 28.988 7.86184H13.4259C11.6227 7.86184 9.64847 8.10448 8.39667 9.96288L4.91699 15.1355H7.61361C7.91482 15.1742 8.22072 15.1218 8.49195 14.9852C8.76318 14.8486 8.98735 14.634 9.13562 14.369L11.6061 10.6522C11.9652 10.1388 12.4362 9.71369 12.9836 9.40895C13.531 9.10421 14.1404 8.92781 14.766 8.89306C15.345 8.84894 16.9056 8.78828 17.0214 9.54929" fill="#9AC21C"/>
<path d="M32.2527 34.5908C32.1426 34.5819 32.0354 34.5509 31.9375 34.4997C31.8397 34.4484 31.7532 34.378 31.6831 34.2925C31.6131 34.2071 31.5611 34.1084 31.5301 34.0023C31.4991 33.8963 31.4898 33.7851 31.5027 33.6754C31.5382 33.4709 31.6454 33.2859 31.8051 33.1534C31.9648 33.021 32.1666 32.9499 32.374 32.953C32.5938 32.979 32.7959 33.0862 32.9408 33.2535C33.0856 33.4208 33.1628 33.6361 33.1571 33.8574C33.1308 34.0751 33.0202 34.2738 32.8491 34.4109C32.6779 34.548 32.4599 34.6126 32.2417 34.5908" fill="#9AC21C"/>
<path d="M29.8483 33.7915C29.8505 33.8962 29.8317 34.0003 29.793 34.0975C29.7543 34.1948 29.6965 34.2834 29.623 34.3579C29.5495 34.4325 29.4617 34.4915 29.365 34.5316C29.2682 34.5716 29.1644 34.5919 29.0597 34.5911C28.9472 34.6014 28.8338 34.5876 28.7271 34.5505C28.6204 34.5135 28.5228 34.4541 28.4408 34.3763C28.3589 34.2985 28.2945 34.2042 28.2519 34.0995C28.2093 33.9949 28.1896 33.8823 28.194 33.7694C28.1991 33.5593 28.2831 33.3588 28.4291 33.2076C28.5752 33.0564 28.7727 32.9657 28.9825 32.9533C29.0951 32.9488 29.2074 32.9672 29.3127 33.0074C29.4179 33.0476 29.5139 33.1087 29.5949 33.1871C29.6758 33.2654 29.74 33.3594 29.7836 33.4633C29.8271 33.5672 29.8492 33.6789 29.8483 33.7915Z" fill="#9AC21C"/>
<path d="M6.35645 18.5605H24.4497" stroke="white" stroke-width="2.02116" stroke-linecap="round" stroke-linejoin="round"/>
</svg>
