<svg width="36" height="62" viewBox="0 0 36 62" fill="none" xmlns="http://www.w3.org/2000/svg">
<path d="M15.0885 48.8032L13.5008 49.0375C13.4247 49.4801 13.1951 49.8818 12.8525 50.1721C12.5098 50.4624 12.0759 50.6228 11.6268 50.6252C11.1721 50.625 10.7219 50.7144 10.3018 50.8883C9.88176 51.0622 9.50008 51.3172 9.17859 51.6387C8.85711 51.9602 8.60213 52.3419 8.42822 52.7619C8.25432 53.182 8.16489 53.6322 8.16506 54.0869V54.6465C7.33994 54.8313 6.61161 55.3131 6.11877 56.0002C5.62594 56.6873 5.40302 57.5316 5.49249 58.3725C5.58195 59.2133 5.97754 59.9918 6.60392 60.5598C7.23029 61.1278 8.0437 61.4456 8.88924 61.4527C9.73477 61.4597 10.5534 61.1555 11.1891 60.598C11.8249 60.0405 12.2334 59.2687 12.3368 58.4295C12.4403 57.5903 12.2315 56.7423 11.7502 56.0471C11.2689 55.3519 10.5487 54.858 9.72674 54.6595V54.0999C9.72588 53.8501 9.77444 53.6027 9.86962 53.3718C9.9648 53.1409 10.1047 52.9311 10.2813 52.7545C10.4579 52.5778 10.6677 52.4379 10.8986 52.3427C11.1296 52.2476 11.377 52.199 11.6268 52.1999C12.5329 52.1974 13.4022 51.8407 14.0489 51.2061C14.6957 50.5715 15.0688 49.7091 15.0885 48.8032ZM10.2603 56.6636C10.5189 56.9223 10.6949 57.2518 10.7662 57.6105C10.8375 57.9692 10.8008 58.341 10.6608 58.6789C10.5209 59.0167 10.2838 59.3055 9.97973 59.5087C9.67564 59.7119 9.31813 59.8203 8.95241 59.8203C8.58669 59.8203 8.22918 59.7119 7.92508 59.5087C7.62098 59.3055 7.38395 59.0167 7.24397 58.6789C7.10398 58.341 7.06731 57.9692 7.13861 57.6105C7.2099 57.2518 7.38595 56.9223 7.64451 56.6636C7.993 56.3198 8.46286 56.1271 8.95241 56.1271C9.44195 56.1271 9.91181 56.3198 10.2603 56.6636Z" fill="#AAD901"/>
<path d="M20.4112 48.6495L18.8495 45.6484V55.2475C18.0323 55.4391 17.3141 55.9243 16.8314 56.611C16.3487 57.2977 16.1352 58.1378 16.2316 58.9716C16.3281 59.8054 16.7276 60.5747 17.3543 61.133C17.9809 61.6914 18.791 61.9999 19.6304 61.9999C20.4697 61.9999 21.2798 61.6914 21.9064 61.133C22.5331 60.5747 22.9327 59.8054 23.0291 58.9716C23.1255 58.1378 22.912 57.2977 22.4294 56.611C21.9467 55.9243 21.2284 55.4391 20.4112 55.2475V48.6495ZM20.9448 57.2647C21.2033 57.5233 21.3794 57.8528 21.4507 58.2115C21.522 58.5703 21.4853 58.942 21.3453 59.2799C21.2053 59.6178 20.9683 59.9066 20.6642 60.1097C20.3601 60.3129 20.0026 60.4213 19.6369 60.4213C19.2711 60.4213 18.9136 60.3129 18.6095 60.1097C18.3054 59.9066 18.0684 59.6178 17.9284 59.2799C17.7884 58.942 17.7518 58.5703 17.8231 58.2115C17.8944 57.8528 18.0704 57.5233 18.329 57.2647C18.4999 57.0915 18.7035 56.9539 18.9281 56.8601C19.1526 56.7662 19.3935 56.7179 19.6369 56.7179C19.8802 56.7179 20.1211 56.7662 20.3457 56.8601C20.5702 56.9539 20.7738 57.0915 20.9448 57.2647Z" fill="#AAD901"/>
<path d="M29.4897 61.3707C30.3726 61.5759 31.3008 61.4232 32.0714 60.9459C32.842 60.4687 33.3924 59.7057 33.6021 58.8239C33.7073 58.3888 33.7249 57.9371 33.6539 57.4951C33.583 57.0532 33.4248 56.6297 33.1886 56.2495C32.9525 55.8692 32.643 55.5397 32.2784 55.2801C31.9137 55.0205 31.501 54.8361 31.0644 54.7375V54.1779C31.0645 53.7233 30.9751 53.273 30.8012 52.853C30.6273 52.4329 30.3723 52.0512 30.0508 51.7297C29.7293 51.4082 29.3477 51.1533 28.9276 50.9794C28.5075 50.8054 28.0573 50.716 27.6026 50.7162C27.3529 50.7171 27.1054 50.6685 26.8745 50.5733C26.6436 50.4781 26.4338 50.3382 26.2572 50.1616C26.0806 49.985 25.9407 49.7752 25.8455 49.5443C25.7503 49.3134 25.7017 49.0659 25.7026 48.8162C25.7026 48.8162 24.206 49.5996 24.3361 49.9744C24.5788 50.6423 25.0213 51.2194 25.6034 51.6271C26.1855 52.0348 26.879 52.2534 27.5896 52.2531C27.8394 52.2523 28.0868 52.3008 28.3178 52.396C28.5487 52.4912 28.7585 52.6311 28.9351 52.8077C29.1117 52.9843 29.2516 53.1941 29.3468 53.425C29.442 53.656 29.4905 53.9034 29.4897 54.1532V54.7128C28.7379 54.8885 28.0677 55.3133 27.5879 55.9181C27.1081 56.523 26.847 57.2723 26.847 58.0443C26.847 58.8164 27.1081 59.5657 27.5879 60.1705C28.0677 60.7754 28.7379 61.2002 29.4897 61.3759M28.9691 59.3327C28.7959 59.1618 28.6584 58.9581 28.5645 58.7336C28.4706 58.5091 28.4223 58.2682 28.4223 58.0248C28.4223 57.7815 28.4706 57.5405 28.5645 57.316C28.6584 57.0915 28.7959 56.8879 28.9691 56.7169C29.3176 56.3731 29.7875 56.1803 30.277 56.1803C30.7666 56.1803 31.2364 56.3731 31.5849 56.7169C31.9318 57.0638 32.1267 57.5343 32.1267 58.0248C32.1267 58.5154 31.9318 58.9858 31.5849 59.3327C31.238 59.6796 30.7676 59.8745 30.277 59.8745C29.7864 59.8745 29.316 59.6796 28.9691 59.3327Z" fill="#AAD901"/>
<path d="M24.8804 13.5614L26.4681 13.3272C26.5442 12.8846 26.7737 12.4829 27.1164 12.1926C27.459 11.9022 27.893 11.7418 28.3421 11.7395C28.7967 11.7396 29.2469 11.6502 29.667 11.4763C30.0871 11.3024 30.4688 11.0474 30.7903 10.7259C31.1117 10.4045 31.3667 10.0228 31.5406 9.6027C31.7145 9.18263 31.804 8.73241 31.8038 8.27776V7.71816C32.6289 7.53336 33.3572 7.05154 33.8501 6.36445C34.3429 5.67736 34.5658 4.83301 34.4764 3.99219C34.3869 3.15137 33.9913 2.37283 33.3649 1.80482C32.7386 1.23682 31.9251 0.919031 31.0796 0.911985C30.2341 0.904939 29.4155 1.20912 28.7797 1.76661C28.144 2.3241 27.7355 3.09594 27.632 3.93515C27.5285 4.77436 27.7374 5.62231 28.2187 6.31752C28.7 7.01273 29.4202 7.50662 30.2421 7.70515V8.26475C30.243 8.51451 30.1944 8.76197 30.0992 8.99288C30.0041 9.22379 29.8641 9.43359 29.6875 9.61019C29.5109 9.7868 29.3011 9.92672 29.0702 10.0219C28.8393 10.1171 28.5918 10.1656 28.3421 10.1648C27.4359 10.1673 26.5667 10.5239 25.9199 11.1585C25.2731 11.7932 24.9001 12.6555 24.8804 13.5614ZM29.7085 5.701C29.45 5.44235 29.2739 5.11284 29.2026 4.75413C29.1313 4.39543 29.168 4.02364 29.308 3.68577C29.448 3.3479 29.685 3.05912 29.9891 2.85596C30.2932 2.65279 30.6507 2.54435 31.0164 2.54435C31.3822 2.54435 31.7397 2.65279 32.0438 2.85596C32.3479 3.05912 32.5849 3.3479 32.7249 3.68577C32.8649 4.02364 32.9015 4.39543 32.8302 4.75413C32.759 5.11284 32.5829 5.44235 32.3243 5.701C31.9758 6.04482 31.506 6.23758 31.0164 6.23758C30.5269 6.23758 30.057 6.04482 29.7085 5.701Z" fill="#AAD901"/>
<path d="M18.4174 16.2682L19.9791 14.4307V6.75243C20.7963 6.56088 21.5145 6.0756 21.9972 5.38894C22.4799 4.70228 22.6934 3.86213 22.5969 3.02834C22.5005 2.19455 22.101 1.4253 21.4743 0.866917C20.8476 0.308538 20.0376 0 19.1982 0C18.3589 0 17.5488 0.308538 16.9221 0.866917C16.2955 1.4253 15.8959 2.19455 15.7995 3.02834C15.7031 3.86213 15.9165 4.70228 16.3992 5.38894C16.8819 6.0756 17.6002 6.56088 18.4174 6.75243V16.2682ZM17.8838 4.73788C17.6253 4.47922 17.4492 4.14971 17.3779 3.791C17.3066 3.4323 17.3433 3.06051 17.4833 2.72264C17.6233 2.38477 17.8603 2.096 18.1644 1.89283C18.4685 1.68966 18.826 1.58122 19.1917 1.58122C19.5574 1.58122 19.915 1.68966 20.219 1.89283C20.5231 2.096 20.7602 2.38477 20.9002 2.72264C21.0402 3.06051 21.0768 3.4323 21.0055 3.791C20.9342 4.14971 20.7582 4.47922 20.4996 4.73788C20.3287 4.91109 20.125 5.04861 19.9005 5.14248C19.676 5.23635 19.4351 5.28469 19.1917 5.28469C18.9484 5.28469 18.7074 5.23635 18.4829 5.14248C18.2584 5.04861 18.0548 4.91109 17.8838 4.73788Z" fill="#AAD901"/>
<path d="M8.97993 0.858355C8.09648 0.653284 7.16777 0.80654 6.39704 1.28458C5.62632 1.76263 5.07636 2.52652 4.86752 3.40909C4.76231 3.84418 4.74468 4.29585 4.81566 4.73782C4.88663 5.17979 5.0448 5.60324 5.28096 5.98351C5.51712 6.36378 5.82654 6.69329 6.19123 6.95286C6.55593 7.21242 6.9686 7.39687 7.40524 7.49546V8.05506C7.40507 8.50971 7.49449 8.95993 7.6684 9.38C7.8423 9.80007 8.09729 10.1818 8.41877 10.5032C8.74025 10.8247 9.12194 11.0797 9.54201 11.2536C9.96208 11.4275 10.4123 11.5169 10.8669 11.5168C11.1167 11.5159 11.3642 11.5645 11.5951 11.6596C11.826 11.7548 12.0358 11.8948 12.2124 12.0714C12.389 12.248 12.5289 12.4578 12.6241 12.6887C12.7193 12.9196 12.7678 13.167 12.767 13.4168V15.512L14.3417 14.2627V13.4428C14.3418 12.9882 14.2524 12.538 14.0785 12.1179C13.9046 11.6978 13.6496 11.3161 13.3281 10.9947C13.0067 10.6732 12.625 10.4182 12.2049 10.2443C11.7848 10.0704 11.3346 9.98095 10.88 9.98112C10.6302 9.98199 10.3827 9.93342 10.1518 9.83824C9.92092 9.74306 9.71112 9.60314 9.53452 9.42653C9.35791 9.24993 9.21799 9.04013 9.12281 8.80922C9.02763 8.57831 8.97907 8.33085 8.97993 8.08109V7.52149C9.73169 7.34578 10.4019 6.92097 10.8817 6.31613C11.3615 5.71128 11.6226 4.96195 11.6226 4.18992C11.6226 3.4179 11.3615 2.66857 10.8817 2.06372C10.4019 1.45887 9.73169 1.03407 8.97993 0.858355ZM9.50048 2.90154C9.67369 3.07248 9.81122 3.27612 9.90509 3.50064C9.99896 3.72516 10.0473 3.96609 10.0473 4.20944C10.0473 4.4528 9.99896 4.69373 9.90509 4.91825C9.81122 5.14277 9.67369 5.34641 9.50048 5.51734C9.15199 5.86116 8.68213 6.05392 8.19258 6.05392C7.70304 6.05392 7.23318 5.86116 6.88468 5.51734C6.53781 5.17047 6.34293 4.7 6.34293 4.20944C6.34293 3.71889 6.53781 3.24842 6.88468 2.90154C7.23156 2.55467 7.70202 2.35979 8.19258 2.35979C8.68314 2.35979 9.15361 2.55467 9.50048 2.90154Z" fill="#AAD901"/>
<path d="M15.3863 42.4886C15.2427 42.636 15.0633 42.7436 14.8657 42.801C14.2454 42.4367 13.5058 42.3337 12.8095 42.5146C12.7054 42.5355 12.6067 42.5774 12.5193 42.6377C12.4319 42.698 12.3578 42.7755 12.3014 42.8655C12.245 42.9555 12.2075 43.056 12.1913 43.1609C12.1751 43.2658 12.1804 43.373 12.207 43.4758C12.2336 43.5786 12.2809 43.6749 12.3459 43.7588C12.411 43.8427 12.4925 43.9124 12.5854 43.9638C12.6784 44.0151 12.7808 44.0469 12.8865 44.0573C12.9921 44.0677 13.0988 44.0565 13.2 44.0243C13.4648 43.9543 13.7458 43.9783 13.9949 44.0922C14.2441 44.2061 14.4461 44.4028 14.5664 44.6489C14.6573 44.8295 14.8148 44.9678 15.0056 45.0347C15.1964 45.1016 15.4057 45.0918 15.5894 45.0075C15.7732 44.9232 15.9171 44.7709 15.9909 44.5827C16.0646 44.3945 16.0625 44.1849 15.9849 43.9982C16.179 43.8815 16.3582 43.7417 16.5185 43.5818C16.6635 43.4316 16.7429 43.2301 16.7392 43.0214C16.7355 42.8127 16.6491 42.6141 16.499 42.4691C16.3489 42.3241 16.1473 42.2448 15.9386 42.2484C15.7299 42.2521 15.5313 42.3385 15.3863 42.4886Z" fill="white"/>
<path d="M9.7087 40.8737C9.66522 40.699 9.66078 40.5168 9.69568 40.3401C9.75988 40.0314 9.9439 39.7608 10.2074 39.5875C10.4709 39.4143 10.7923 39.3527 11.1012 39.4162C11.2183 39.4414 11.3319 39.4807 11.4396 39.5333C11.6225 39.6334 11.8377 39.6567 12.0378 39.5981C12.2379 39.5396 12.4066 39.4039 12.5067 39.2209C12.6068 39.038 12.6301 38.8228 12.5715 38.6227C12.513 38.4226 12.3773 38.2539 12.1944 38.1538C11.9497 38.0203 11.6865 37.9238 11.4135 37.8675C11.2426 37.8302 11.0679 37.8128 10.893 37.8154C10.8291 37.1748 10.5438 36.5764 10.0861 36.1236C9.93941 35.9769 9.74046 35.8945 9.53301 35.8945C9.32556 35.8945 9.1266 35.9769 8.97992 36.1236C8.83323 36.2703 8.75082 36.4693 8.75082 36.6767C8.75082 36.8842 8.83323 37.0831 8.97992 37.2298L8.99293 37.2428C9.1292 37.3789 9.23101 37.5455 9.28986 37.7289C9.34872 37.9122 9.36292 38.107 9.33129 38.297C8.86226 38.6142 8.5029 39.0689 8.30251 39.5985C8.10213 40.1281 8.07054 40.7067 8.21209 41.255C8.26415 41.455 8.39338 41.6263 8.57146 41.7312C8.74954 41.836 8.96194 41.8661 9.16211 41.8146C9.25974 41.7894 9.35141 41.745 9.43181 41.6841C9.51222 41.6233 9.57978 41.5471 9.63059 41.46C9.68141 41.3729 9.71447 41.2766 9.72787 41.1766C9.74128 41.0767 9.73476 40.975 9.7087 40.8776" fill="white"/>
<path d="M26.3401 39.2613C26.6288 39.5441 26.8365 39.899 26.9418 40.2891C27.0471 40.6793 27.046 41.0905 26.9387 41.4802C26.4781 41.7656 26.0798 42.1409 25.7675 42.5837C25.7093 42.6684 25.6683 42.7637 25.647 42.8642C25.6256 42.9647 25.6243 43.0685 25.643 43.1695C25.6617 43.2705 25.7002 43.3669 25.7561 43.453C25.8121 43.5392 25.8845 43.6135 25.9692 43.6717C26.0539 43.7299 26.1492 43.7708 26.2497 43.7922C26.3502 43.8135 26.4539 43.8149 26.5549 43.7962C26.656 43.7774 26.7523 43.739 26.8385 43.683C26.9246 43.6271 26.9989 43.5547 27.0571 43.47C27.27 43.1557 27.5599 42.9012 27.8991 42.7308C27.9252 42.7308 27.9356 42.7113 27.9616 42.7074C28.2893 42.554 28.6484 42.4796 29.01 42.4902C29.3716 42.5008 29.7257 42.5962 30.0438 42.7685C30.1339 42.8188 30.233 42.8508 30.3354 42.8627C30.4379 42.8747 30.5416 42.8664 30.6409 42.8382C30.7401 42.81 30.8328 42.7626 30.9137 42.6986C30.9945 42.6347 31.062 42.5554 31.1123 42.4653C31.1625 42.3752 31.1945 42.2762 31.2065 42.1737C31.2185 42.0713 31.2101 41.9675 31.182 41.8683C31.1538 41.7691 31.1064 41.6764 31.0424 41.5955C30.9784 41.5146 30.8991 41.4471 30.8091 41.3969H30.796C30.1174 41.0195 29.3393 40.8591 28.5668 40.9375C28.574 40.4204 28.4758 39.9074 28.278 39.4296C28.0802 38.9519 27.787 38.5195 27.4163 38.159C27.345 38.0836 27.2592 38.0233 27.1641 37.9818C27.069 37.9403 26.9665 37.9185 26.8627 37.9175C26.7589 37.9166 26.656 37.9365 26.5601 37.9763C26.4643 38.016 26.3774 38.0747 26.3047 38.1487C26.232 38.2228 26.175 38.3108 26.1371 38.4074C26.0992 38.504 26.0812 38.6073 26.0842 38.7111C26.0871 38.8148 26.1109 38.9169 26.1542 39.0112C26.1975 39.1055 26.2594 39.1901 26.3362 39.26" fill="white"/>
<path d="M16.2999 20.5823C16.3736 20.5106 16.4324 20.4251 16.4729 20.3306C16.5134 20.2362 16.5349 20.1347 16.5361 20.0319C16.5373 19.9291 16.5182 19.8271 16.4799 19.7317C16.4416 19.6364 16.3849 19.5495 16.3129 19.4761C16.1526 19.3162 15.9734 19.1764 15.7794 19.0597C15.8569 18.8729 15.8591 18.6634 15.7853 18.4752C15.7115 18.2869 15.5676 18.1347 15.3839 18.0504C15.2001 17.9661 14.9908 17.9563 14.8 18.0232C14.6092 18.0901 14.4518 18.2284 14.3609 18.409C14.2405 18.6551 14.0385 18.8518 13.7894 18.9657C13.5402 19.0796 13.2593 19.1036 12.9944 19.0336C12.8932 19.0014 12.7866 18.9901 12.6809 19.0005C12.5752 19.011 12.4728 19.0428 12.3799 19.0941C12.2869 19.1455 12.2054 19.2152 12.1404 19.2991C12.0753 19.383 12.028 19.4793 12.0014 19.5821C11.9749 19.6849 11.9695 19.792 11.9857 19.897C12.002 20.0019 12.0394 20.1024 12.0958 20.1924C12.1522 20.2823 12.2264 20.3599 12.3137 20.4202C12.4011 20.4805 12.4999 20.5224 12.604 20.5432C13.3002 20.7241 14.0398 20.6212 14.6602 20.2569C14.8578 20.3143 15.0371 20.4219 15.1807 20.5693C15.2526 20.6449 15.3389 20.7053 15.4346 20.747C15.5302 20.7887 15.6333 20.8109 15.7376 20.8121C15.8419 20.8133 15.9454 20.7936 16.042 20.7541C16.1386 20.7146 16.2263 20.6562 16.2999 20.5823Z" fill="white"/>
<path d="M8.95764 21.1796C8.75747 21.1282 8.54507 21.1582 8.36699 21.2631C8.18891 21.368 8.05968 21.5392 8.00762 21.7392C7.86695 22.2869 7.89898 22.8647 8.09932 23.3936C8.29967 23.9224 8.65854 24.3764 9.12682 24.6934C9.15845 24.8833 9.14425 25.0781 9.08539 25.2614C9.02654 25.4448 8.92473 25.6114 8.78846 25.7475L8.77545 25.7605C8.62876 25.9072 8.54635 26.1062 8.54635 26.3136C8.54635 26.5211 8.62876 26.72 8.77545 26.8667C8.92214 27.0134 9.12109 27.0958 9.32854 27.0958C9.53599 27.0958 9.73494 27.0134 9.88163 26.8667C10.3393 26.4139 10.6247 25.8156 10.6885 25.1749C10.8634 25.1776 11.0381 25.1601 11.2091 25.1228C11.4821 25.0665 11.7452 24.9701 11.9899 24.8365C12.0805 24.787 12.1604 24.72 12.2251 24.6396C12.2898 24.5591 12.3381 24.4667 12.3671 24.3676C12.3961 24.2685 12.4053 24.1647 12.3941 24.0621C12.383 23.9594 12.3518 23.86 12.3022 23.7694C12.2527 23.6788 12.1857 23.5989 12.1053 23.5342C12.0248 23.4694 11.9324 23.4212 11.8333 23.3922C11.7342 23.3632 11.6304 23.354 11.5278 23.3651C11.4251 23.3762 11.3257 23.4075 11.2351 23.457C11.1274 23.5096 11.0138 23.5489 10.8967 23.5742C10.5878 23.6376 10.2664 23.576 10.0029 23.4028C9.73943 23.2296 9.55541 22.9589 9.49121 22.6502C9.45631 22.4735 9.46075 22.2914 9.50423 22.1166C9.53029 22.0192 9.53681 21.9176 9.52341 21.8176C9.51 21.7177 9.47694 21.6214 9.42612 21.5342C9.37531 21.4471 9.30775 21.371 9.22734 21.3101C9.14694 21.2492 9.05527 21.2049 8.95764 21.1796Z" fill="white"/>
<path d="M26.715 25.1699C26.8862 25.288 27.0971 25.3338 27.3018 25.2973C27.5065 25.2607 27.6886 25.1448 27.8082 24.9747C28.107 24.5527 28.3165 24.0742 28.4239 23.5685C28.5313 23.0628 28.5344 22.5405 28.4329 22.0335C29.207 21.97 29.943 21.6701 30.5411 21.1746H30.5542C30.7146 21.0417 30.8158 20.8505 30.8353 20.6431C30.8548 20.4356 30.7911 20.2289 30.6583 20.0684C30.5254 19.9079 30.3342 19.8068 30.1267 19.7873C29.9193 19.7677 29.7126 19.8314 29.5521 19.9643C29.2702 20.1934 28.9384 20.3529 28.5834 20.4297C28.2284 20.5066 27.8603 20.4987 27.5089 20.4068C27.4829 20.4068 27.4699 20.3938 27.4438 20.3938C27.079 20.2887 26.7474 20.0915 26.4808 19.8211C26.3341 19.6745 26.1351 19.592 25.9277 19.592C25.7202 19.592 25.5213 19.6745 25.3746 19.8211C25.2279 19.9678 25.1455 20.1668 25.1455 20.3742C25.1455 20.5817 25.2279 20.7806 25.3746 20.9273C25.7626 21.306 26.2229 21.6025 26.7281 21.7993C26.9049 22.1625 26.9813 22.5666 26.9493 22.9693C26.9172 23.3721 26.7779 23.759 26.5459 24.0897C26.4303 24.2571 26.3834 24.4626 26.4149 24.6636C26.4463 24.8646 26.5538 25.0458 26.715 25.1699Z" fill="white"/>
<path d="M27.8499 29.2289C27.3604 27.4027 26.2821 25.789 24.782 24.638C23.282 23.4871 21.4442 22.8633 19.5535 22.8633C17.6628 22.8633 15.825 23.4871 14.3249 24.638C12.8249 25.789 11.7466 27.4027 11.2571 29.2289L10.9968 30.8036C10.9578 31.2408 10.9578 31.6807 10.9968 32.118H4.07341C2.99826 32.1128 1.9651 32.5349 1.20119 33.2915C0.43729 34.0481 0.00522433 35.0772 4.70661e-05 36.1523C-0.0051302 37.2275 0.417004 38.2606 1.17359 39.0245C1.93017 39.7884 2.95922 40.2205 4.03437 40.2257C4.19053 40.2257 4.33369 40.2127 4.48986 40.1996C4.25797 41.2022 4.28808 42.2476 4.57729 43.2351C4.8665 44.2226 5.40506 45.1191 6.14114 45.8382C6.87721 46.5573 7.78601 47.0747 8.78003 47.3408C9.77406 47.6069 10.8198 47.6126 11.8167 47.3573C12.0044 47.8193 12.2848 48.2378 12.6407 48.587C12.9967 48.9362 13.4205 49.2087 13.8859 49.3875C14.8836 49.8809 16.0287 49.9875 17.1004 49.6868C17.1004 49.6868 18.0569 49.4265 19.0915 48.5156C19.6524 49.1476 20.3422 49.6523 21.1143 49.9958C21.8865 50.3392 22.7232 50.5134 23.5683 50.5067C24.7704 50.5047 25.9444 50.1432 26.9393 49.4685C27.9343 48.7938 28.7046 47.837 29.1513 46.7209H30.4917C31.3043 46.7207 32.103 46.5098 32.8097 46.1087C33.5165 45.7077 34.1072 45.1302 34.5241 44.4327C34.941 43.7352 35.1699 42.9415 35.1885 42.1291C35.2071 41.3167 35.0147 40.5134 34.6301 39.7975C35.2024 39.1111 35.5669 38.2757 35.681 37.3893C35.795 36.503 35.6538 35.6025 35.274 34.7936C34.8941 33.9847 34.2913 33.3009 33.5365 32.8226C32.7816 32.3443 31.9059 32.0913 31.0123 32.0933H28.1232C28.1362 31.872 28.1492 31.6508 28.1492 31.4426C28.1492 31.2343 28.1362 31.0001 28.1232 30.7789L27.8499 29.2289ZM31.0123 33.6536C31.5793 33.6534 32.1357 33.8069 32.6224 34.0978C33.1091 34.3887 33.5079 34.8061 33.7762 35.3056C34.0446 35.805 34.1725 36.3679 34.1464 36.9343C34.1204 37.5007 33.9412 38.0495 33.6281 38.5221C32.7695 37.7427 31.6513 37.3112 30.4917 37.3119C30.2846 37.3119 30.086 37.3941 29.9396 37.5406C29.7931 37.687 29.7109 37.8856 29.7109 38.0927C29.7109 38.2998 29.7931 38.4984 29.9396 38.6448C30.086 38.7913 30.2846 38.8735 30.4917 38.8735C31.3252 38.8735 32.1246 39.2046 32.714 39.7941C33.3034 40.3835 33.6346 41.1829 33.6346 42.0164C33.6346 42.8499 33.3034 43.6493 32.714 44.2387C32.1246 44.8281 31.3252 45.1593 30.4917 45.1593H29.5417C29.5673 44.9433 29.5803 44.726 29.5807 44.5086C29.5807 44.3015 29.4985 44.1029 29.352 43.9564C29.2056 43.81 29.007 43.7277 28.7999 43.7277C28.5928 43.7277 28.3942 43.81 28.2478 43.9564C28.1013 44.1029 28.0191 44.3015 28.0191 44.5086C28.026 45.689 27.5637 46.8238 26.7339 47.6634C26.323 48.0791 25.8343 48.4098 25.2956 48.6366C24.7569 48.8634 24.1788 48.9819 23.5943 48.9854C22.4139 48.9923 21.2791 48.53 20.4395 47.7002C19.6 46.8704 19.1244 45.741 19.1175 44.5606V44.5086C19.1175 44.3015 19.0353 44.1029 18.8888 43.9564C18.7424 43.81 18.5438 43.7277 18.3367 43.7277C18.1296 43.7277 17.931 43.81 17.7845 43.9564C17.6381 44.1029 17.5558 44.3015 17.5558 44.5086C17.5522 45.4345 17.7662 46.3483 18.1805 47.1764C17.6902 47.7871 16.9775 48.1781 16.1991 48.2635C15.4206 48.3489 14.6401 48.1218 14.0291 47.6319C13.7923 47.4384 13.586 47.2103 13.4174 46.9552C13.3694 46.8888 13.3259 46.8192 13.2873 46.747L13.3654 46.7079C13.4542 46.6566 13.5321 46.5884 13.5946 46.507C13.6571 46.4256 13.7029 46.3327 13.7295 46.2336C13.7561 46.1345 13.7629 46.0312 13.7496 45.9295C13.7362 45.8277 13.7029 45.7296 13.6517 45.6408C13.6004 45.5519 13.5321 45.474 13.4507 45.4115C13.3694 45.349 13.2765 45.3032 13.1774 45.2766C13.0783 45.25 12.9749 45.2432 12.8732 45.2566C12.7715 45.2699 12.6734 45.3032 12.5845 45.3545C11.6994 45.8662 10.6651 46.0575 9.6555 45.896C8.64594 45.7345 7.72282 45.2302 7.0415 44.4679C6.36018 43.7056 5.96224 42.7319 5.91467 41.7106C5.8671 40.6893 6.1728 39.6828 6.78031 38.8605C6.84183 38.7785 6.8866 38.6851 6.91205 38.5858C6.93749 38.4865 6.94313 38.3831 6.92863 38.2816C6.91413 38.1801 6.87977 38.0824 6.82753 37.9942C6.77529 37.9059 6.70617 37.8289 6.62414 37.7673C6.54211 37.7058 6.44876 37.6611 6.34943 37.6356C6.25009 37.6102 6.14672 37.6045 6.04521 37.619C5.9437 37.6335 5.84604 37.6679 5.75781 37.7201C5.66957 37.7724 5.59249 37.8415 5.53097 37.9235L5.51796 37.9365C5.41803 38.0648 5.32674 38.1996 5.24466 38.34C4.66136 38.6471 3.97991 38.71 3.35024 38.5148C2.72057 38.3195 2.19425 37.8821 1.88707 37.2988C1.57988 36.7155 1.517 36.0341 1.71224 35.4044C1.90749 34.7747 2.34488 34.2484 2.92818 33.9412C3.28437 33.7508 3.68251 33.6523 4.08642 33.6549H11.2701C11.7596 35.4812 12.8379 37.0949 14.3379 38.2458C15.838 39.3967 17.6758 40.0206 19.5665 40.0206C21.4572 40.0206 23.295 39.3967 24.7951 38.2458C26.2951 37.0949 27.3734 35.4812 27.8629 33.6549L31.0123 33.6536ZM26.4834 32.7427C26.1607 34.4639 25.207 36.0027 23.8091 37.0575C22.4111 38.1123 20.6697 38.6072 18.926 38.4452C17.1822 38.2831 15.5618 37.4759 14.3822 36.1815C13.2025 34.8872 12.5487 33.199 12.5487 31.4478C12.5487 29.6965 13.2025 28.0084 14.3822 26.714C15.5618 25.4197 17.1822 24.6124 18.926 24.4504C20.6697 24.2884 22.4111 24.7832 23.8091 25.838C25.207 26.8929 26.1607 28.4316 26.4834 30.1529C26.6396 31.0091 26.6396 31.8865 26.4834 32.7427Z" fill="white"/>
<path d="M19.0915 14.4125C18.0569 13.5015 17.1004 13.2412 17.1004 13.2412C16.0287 12.9405 14.8836 13.0471 13.8859 13.5405C13.4201 13.7188 12.9961 13.9911 12.6401 14.3403C12.2841 14.6896 12.0038 15.1084 11.8167 15.5707C10.8198 15.3155 9.77406 15.3212 8.78003 15.5872C7.78601 15.8533 6.87721 16.3708 6.14114 17.0898C5.40506 17.8089 4.8665 18.7054 4.57729 19.6929C4.28808 20.6805 4.25797 21.7258 4.48986 22.7284C4.33369 22.7154 4.19053 22.7023 4.03437 22.7023C3.50201 22.7049 2.97537 22.8123 2.48452 23.0184C1.99366 23.2245 1.54821 23.5252 1.17359 23.9035C0.417004 24.6674 -0.0051302 25.7006 4.70661e-05 26.7757C0.00522433 27.8508 0.437289 28.8799 1.20119 29.6365C1.9651 30.3931 2.99826 30.8152 4.07341 30.81H10.9968C10.9732 31.0826 10.9646 31.3563 10.9708 31.6299C11.5005 31.6299 12.0288 31.6481 12.5572 31.6546C12.5249 29.8965 13.1528 28.1901 14.3171 26.8724C15.4814 25.5546 17.0974 24.7212 18.8461 24.5367C20.5948 24.3522 22.3492 24.83 23.7629 25.8757C25.1765 26.9215 26.1468 28.4592 26.4821 30.1854C26.5697 30.6665 26.6077 31.1553 26.5953 31.6442C27.1159 31.6065 27.6299 31.5284 28.1479 31.4659C28.1479 31.2642 28.1349 31.0508 28.1219 30.8361H31.011C31.9046 30.838 32.7803 30.585 33.5352 30.1067C34.29 29.6284 34.8928 28.9446 35.2727 28.1357C35.6525 27.3268 35.7937 26.4263 35.6797 25.54C35.5656 24.6536 35.2011 23.8182 34.6288 23.1318C35.0134 22.416 35.2058 21.6126 35.1872 20.8002C35.1686 19.9878 34.9397 19.1941 34.5228 18.4966C34.1058 17.7991 33.5152 17.2217 32.8084 16.8206C32.1017 16.4195 31.303 16.2086 30.4904 16.2084H29.1513C28.7048 15.0921 27.9346 14.1349 26.9396 13.4601C25.9447 12.7852 24.7705 12.4234 23.5683 12.4213C22.7232 12.4146 21.8865 12.5888 21.1143 12.9323C20.3422 13.2757 19.6524 13.7804 19.0915 14.4125ZM28.0191 18.4208C28.0191 18.6278 28.1013 18.8265 28.2478 18.9729C28.3942 19.1193 28.5928 19.2016 28.7999 19.2016C29.007 19.2016 29.2056 19.1193 29.352 18.9729C29.4985 18.8265 29.5807 18.6278 29.5807 18.4208C29.5803 18.2033 29.5673 17.986 29.5417 17.7701H30.4917C31.3252 17.7701 32.1246 18.1012 32.714 18.6906C33.3034 19.28 33.6346 20.0794 33.6346 20.9129C33.6346 21.7465 33.3034 22.5459 32.714 23.1353C32.1246 23.7247 31.3252 24.0558 30.4917 24.0558C30.2846 24.0558 30.086 24.1381 29.9396 24.2845C29.7931 24.4309 29.7109 24.6295 29.7109 24.8366C29.7109 25.0437 29.7931 25.2423 29.9396 25.3888C30.086 25.5352 30.2846 25.6175 30.4917 25.6175C31.6513 25.6182 32.7695 25.1866 33.6281 24.4072C33.9409 24.8798 34.1197 25.4284 34.1456 25.9946C34.1715 26.5609 34.0435 27.1235 33.7752 27.6228C33.5069 28.122 33.1083 28.5392 32.6218 28.8301C32.1353 29.1209 31.5791 29.2744 31.0123 29.2744H27.8629C27.3734 27.4482 26.2951 25.8344 24.7951 24.6835C23.295 23.5326 21.4572 22.9088 19.5665 22.9088C17.6758 22.9088 15.838 23.5326 14.3379 24.6835C12.8379 25.8344 11.7596 27.4482 11.2701 29.2744H4.08642C3.68252 29.277 3.28437 29.1785 2.92818 28.9881C2.63936 28.836 2.38332 28.6285 2.17469 28.3774C1.96606 28.1264 1.80892 27.8367 1.71224 27.5249C1.517 26.8952 1.57988 26.2138 1.88707 25.6305C2.19425 25.0472 2.72057 24.6098 3.35024 24.4145C3.97992 24.2193 4.66136 24.2822 5.24466 24.5894C5.32674 24.7297 5.41803 24.8645 5.51796 24.9928L5.53097 25.0058C5.65522 25.1715 5.8402 25.281 6.04521 25.3103C6.25022 25.3396 6.45847 25.2862 6.62414 25.162C6.78981 25.0377 6.89934 24.8527 6.92863 24.6477C6.95791 24.4427 6.90456 24.2345 6.78031 24.0688C6.16972 23.2467 5.86148 22.2391 5.90762 21.2161C5.95376 20.1931 6.35145 19.2174 7.03356 18.4536C7.71568 17.6898 8.64043 17.1848 9.65173 17.0237C10.663 16.8627 11.6989 17.0555 12.5845 17.5696C12.764 17.6732 12.9773 17.7012 13.1774 17.6475C13.3775 17.5938 13.5481 17.4628 13.6517 17.2833C13.7552 17.1039 13.7832 16.8906 13.7295 16.6905C13.6758 16.4903 13.5448 16.3197 13.3654 16.2162L13.2873 16.1772C13.3259 16.1049 13.3694 16.0353 13.4174 15.9689C13.586 15.7138 13.7923 15.4857 14.0291 15.2922C14.6401 14.8024 15.4206 14.5752 16.1991 14.6606C16.9775 14.746 17.6902 15.137 18.1805 15.7477C17.7662 16.5758 17.5522 17.4896 17.5558 18.4155C17.5558 18.6226 17.6381 18.8212 17.7845 18.9677C17.931 19.1141 18.1296 19.1964 18.3367 19.1964C18.5438 19.1964 18.7424 19.1141 18.8888 18.9677C19.0353 18.8212 19.1175 18.6226 19.1175 18.4155V18.3635C19.1244 17.1831 19.6 16.0537 20.4395 15.2239C21.2791 14.3941 22.4139 13.9319 23.5943 13.9388C24.7747 13.9457 25.9041 14.4212 26.7339 15.2608C27.5637 16.1003 28.026 17.2351 28.0191 18.4155" fill="white"/>
<path d="M17.8057 31.3112C17.9164 31.1547 17.9609 30.9608 17.9294 30.7717C17.898 30.5826 17.7932 30.4135 17.6378 30.3013L15.7976 28.9999L17.6378 27.6985C17.7876 27.5809 17.8852 27.4091 17.9095 27.2202C17.9339 27.0313 17.883 26.8404 17.7679 26.6886C17.6584 26.5441 17.4983 26.4463 17.3196 26.4149C17.141 26.3835 16.9571 26.4209 16.8049 26.5194L14.1123 28.4195C14.0341 28.474 13.9676 28.5437 13.9167 28.6243C13.8658 28.705 13.8315 28.795 13.8158 28.8891C13.8002 28.9831 13.8035 29.0794 13.8256 29.1722C13.8477 29.265 13.8881 29.3524 13.9444 29.4293C13.9877 29.4971 14.0449 29.5548 14.1123 29.5985L16.7932 31.4855C16.9514 31.5941 17.146 31.636 17.3349 31.6025C17.5238 31.5689 17.6919 31.4624 17.8031 31.306" fill="#AAD901"/>
<path d="M20.6283 26.307C20.5358 26.2852 20.4399 26.282 20.3462 26.2975C20.2525 26.3129 20.1627 26.3468 20.0822 26.3971C20.0016 26.4475 19.9318 26.5132 19.8767 26.5907C19.8217 26.6681 19.7826 26.7557 19.7616 26.8484L17.8017 35.2684C17.7571 35.4534 17.7879 35.6485 17.8873 35.8108C17.9866 35.9731 18.1463 36.0893 18.3313 36.1338C18.5163 36.1783 18.7114 36.1475 18.8737 36.0482C19.036 35.9489 19.1522 35.7891 19.1968 35.6041V35.5924L21.1567 27.1763C21.1801 27.0847 21.1849 26.9893 21.1709 26.8957C21.1569 26.8022 21.1243 26.7124 21.075 26.6316C21.0258 26.5509 20.9609 26.4808 20.8842 26.4255C20.8075 26.3702 20.7205 26.3308 20.6283 26.3096" fill="#AAD901"/>
<path d="M25.229 32.9262C25.1857 32.8588 25.1285 32.8015 25.0611 32.7583L22.3841 30.8686C22.2278 30.7572 22.0336 30.7124 21.8442 30.7441C21.6548 30.7758 21.4857 30.8815 21.3743 31.0378C21.2628 31.1942 21.218 31.3884 21.2497 31.5778C21.2814 31.7672 21.3871 31.9362 21.5434 32.0477L23.3823 33.3491L21.5434 34.6505C21.3871 34.762 21.2814 34.931 21.2497 35.1204C21.218 35.3098 21.2628 35.504 21.3743 35.6604C21.4857 35.8167 21.6548 35.9224 21.8442 35.9541C22.0336 35.9859 22.2278 35.941 22.3841 35.8296L25.0663 33.9412C25.2217 33.829 25.3265 33.6599 25.358 33.4708C25.3894 33.2817 25.3449 33.0878 25.2342 32.9314" fill="#AAD901"/>
</svg>
