<svg width="14" height="18" viewBox="0 0 14 18" fill="none" xmlns="http://www.w3.org/2000/svg">
<path fill-rule="evenodd" clip-rule="evenodd" d="M7 0C4.50953 0 2.47708 2.08873 2.47708 4.62895C2.47708 5.95591 3.03023 7.1587 3.91506 8.00407C1.59578 9.1699 7.06283e-06 11.6085 7.06283e-06 14.422V17.007C-0.000975212 17.2693 0.100537 17.5213 0.282216 17.7075C0.463896 17.8937 0.710865 17.999 0.968804 18H13.0293C13.1572 17.9997 13.2838 17.9738 13.4018 17.9238C13.5198 17.8737 13.627 17.8004 13.7171 17.7082C13.8073 17.616 13.8787 17.5066 13.9272 17.3862C13.9757 17.2659 14.0005 17.137 14 17.007V14.422C14 11.6085 12.4023 9.1699 10.083 8.00407C10.9679 7.1587 11.5229 5.95591 11.5229 4.62895C11.5229 2.08873 9.49047 0 7 0ZM7 1.98025C8.43094 1.98025 9.57585 3.14954 9.57585 4.62895C9.57585 6.10839 8.43094 7.2738 7 7.2738C5.56906 7.2738 4.42226 6.10839 4.42226 4.62895C4.42226 3.14954 5.56906 1.98025 7 1.98025ZM7 9.25212C9.81531 9.25213 12.0605 11.5364 12.0605 14.422V16.0217H1.94519V14.422C1.94519 11.5364 4.18468 9.25213 7 9.25212Z" fill="#282A39"/>
</svg>
