<svg width="112" height="55" viewBox="0 0 112 55" fill="none" xmlns="http://www.w3.org/2000/svg">
<path d="M6.71651 8.94743C6.71651 9.38602 6.62928 9.7369 6.45483 10.0878C6.28037 10.4387 6.10592 10.6141 5.84424 10.8773C5.58255 11.0527 5.32087 11.2281 5.05919 11.4036C4.79751 11.4913 4.4486 11.579 4.09969 11.579V12.3685H2.61682V11.579C2.18069 11.4913 1.74455 11.4036 1.39564 11.2281C1.04673 11.0527 0.785047 10.8773 0.610592 10.6141C0.436137 10.3509 0.261682 10.0878 0.174455 9.7369C0.0872274 9.38602 0 9.03515 0 8.59655V5.35094C0 4.91234 0.0872274 4.56146 0.261682 4.21059C0.34891 3.94743 0.610592 3.68427 0.785047 3.50883C1.04673 3.24567 1.30841 3.15795 1.65732 2.98252C2.00623 2.80708 2.26791 2.80708 2.61682 2.80708V2.28076H4.18692V2.80708C4.53583 2.80708 4.79751 2.8948 5.14642 2.98252C5.4081 3.07024 5.66978 3.24567 5.93146 3.50883C6.19315 3.68427 6.3676 4.03515 6.54206 4.29831C6.71651 4.64918 6.80374 5.00006 6.80374 5.43866V8.94743H6.71651ZM2.61682 4.03515C2.26791 4.12287 2.00623 4.21059 1.74455 4.38602C1.57009 4.64918 1.48287 4.91234 1.48287 5.26322V9.12287C1.48287 9.29831 1.48287 9.47374 1.57009 9.64918C1.65732 9.82462 1.74455 9.91234 1.83178 10.0001C1.919 10.0878 2.09346 10.1755 2.18069 10.2632C2.35514 10.3509 2.44237 10.3509 2.61682 10.3509V4.03515ZM5.32087 5.26322C5.32087 4.91234 5.23364 4.64918 4.97196 4.38602C4.79751 4.21059 4.53583 4.12287 4.18692 4.03515V10.2632C4.27414 10.2632 4.4486 10.1755 4.53583 10.1755C4.71028 10.0878 4.79751 10.0001 4.88474 9.91234C4.97196 9.82462 5.05919 9.7369 5.14642 9.56146C5.23364 9.38602 5.23364 9.29831 5.23364 9.12287V5.26322H5.32087Z" fill="#42454A"/>
<path d="M14.4795 9.7369C14.4795 10.6141 14.305 11.3158 13.8689 11.7544C13.4327 12.193 12.8221 12.4562 12.0371 12.4562C11.1648 12.4562 10.5542 12.2808 10.2053 11.8422C9.85641 11.4036 9.59473 10.7895 9.59473 10.0001V4.91234C9.59473 4.56146 9.68195 4.12287 9.76918 3.85971C9.85641 3.50883 10.0309 3.24567 10.2053 2.98252C10.3798 2.71936 10.6415 2.54392 10.9904 2.4562C11.3393 2.36848 11.6882 2.28076 12.1243 2.28076C12.5605 2.28076 12.9966 2.36848 13.2583 2.4562C13.52 2.4562 13.7816 2.63164 13.9561 2.8948C14.1306 3.15795 14.305 3.42111 14.3922 3.77199C14.4795 4.12287 14.4795 4.47374 14.4795 4.91234V9.7369ZM12.9094 4.7369C12.9094 4.47374 12.8221 4.21059 12.7349 3.94743C12.6477 3.68427 12.386 3.59655 12.0371 3.59655C11.8626 3.59655 11.6882 3.59655 11.601 3.68427C11.4265 3.85971 11.3393 3.94743 11.3393 4.12287C11.252 4.21059 11.252 4.38602 11.252 4.56146C11.252 4.7369 11.252 4.82462 11.252 5.00006V10.0878C11.252 10.3509 11.3393 10.6141 11.4265 10.7895C11.5137 10.965 11.7754 11.1404 12.1243 11.1404C12.4732 11.1404 12.6477 11.0527 12.8221 10.7895C12.9966 10.6141 12.9966 10.3509 12.9966 10.0001V4.7369H12.9094Z" fill="#42454A"/>
<path d="M20.76 12.3685V7.98252H18.9282V12.3685H17.4453V2.28076H19.0154V6.49129H20.8472V2.28076H22.4173V12.3685H20.76Z" fill="#42454A"/>
<path d="M26.0809 12.3684V14.2982H24.7725V11.0526L25.3831 10.9649C25.6447 10.7017 25.8192 10.3509 25.9064 9.99999C25.9936 9.64911 26.0809 9.12279 26.0809 8.50876L26.2553 2.36841H30.7912V11.0526H31.4017V14.386H30.0933V12.4561H26.0809V12.3684ZM27.4765 8.42104C27.4765 9.03508 27.3893 9.47367 27.3893 9.91227C27.3021 10.3509 27.2148 10.7017 27.0404 10.9649H29.2211V3.77192H27.651L27.4765 8.42104Z" fill="#42454A"/>
<path d="M40.8226 2.19287C41.2587 2.19287 41.6076 2.28059 41.8693 2.36831C42.131 2.45603 42.3927 2.63147 42.6544 2.80691C42.8288 2.98234 43.0033 3.2455 43.0905 3.50866C43.1777 3.77182 43.265 4.1227 43.265 4.47357L41.7821 4.82445C41.7821 4.47357 41.6949 4.1227 41.6076 3.94726C41.4332 3.6841 41.2587 3.59638 40.9098 3.59638C40.7354 3.59638 40.5609 3.59638 40.4737 3.6841C40.3865 3.77182 40.2992 3.85954 40.212 3.94726C40.1248 4.03498 40.1248 4.21042 40.1248 4.29813C40.1248 4.47357 40.1248 4.56129 40.1248 4.73673V9.82445C40.1248 9.91217 40.1248 9.99989 40.1248 10.1753C40.1248 10.263 40.212 10.4385 40.212 10.5262C40.2992 10.6139 40.3865 10.7016 40.4737 10.7894C40.5609 10.8771 40.7354 10.8771 40.9098 10.8771C41.5204 10.8771 41.7821 10.4385 41.7821 9.64901C42.0438 9.73673 42.3055 9.73673 42.5671 9.73673C42.8288 9.73673 43.0905 9.82445 43.3522 9.82445C43.3522 10.6139 43.0905 11.228 42.7416 11.6666C42.3055 12.1052 41.7821 12.3683 40.9971 12.3683C40.1248 12.3683 39.5142 12.1929 39.1653 11.7543C38.7291 11.3157 38.5547 10.7016 38.5547 9.91217V4.91217C38.5547 4.56129 38.5547 4.21042 38.6419 3.85954C38.7291 3.50866 38.9036 3.2455 39.0781 2.98234C39.2525 2.71919 39.5142 2.54375 39.8631 2.36831C39.9503 2.28059 40.2992 2.19287 40.8226 2.19287Z" fill="#42454A"/>
<path d="M50.5918 9.7369C50.5918 10.6141 50.4173 11.3158 49.9812 11.7544C49.545 12.193 48.9344 12.4562 48.1494 12.4562C47.2771 12.4562 46.6665 12.2808 46.3176 11.8422C45.9687 11.4036 45.707 10.7895 45.707 10.0001V4.91234C45.707 4.56146 45.7943 4.12287 45.8815 3.85971C45.9687 3.50883 46.1432 3.24567 46.3176 2.98252C46.4921 2.71936 46.7538 2.54392 47.1027 2.4562C47.4516 2.36848 47.8005 2.28076 48.2366 2.28076C48.6728 2.28076 49.1089 2.36848 49.3706 2.4562C49.7195 2.54392 49.8939 2.71936 50.1556 2.98252C50.3301 3.24567 50.5045 3.50883 50.5918 3.85971C50.5918 4.03515 50.5918 4.47374 50.5918 4.82462V9.7369ZM49.0217 4.7369C49.0217 4.47374 48.9344 4.21059 48.8472 3.94743C48.76 3.68427 48.4983 3.59655 48.1494 3.59655C47.9749 3.59655 47.8005 3.59655 47.7133 3.68427C47.626 3.77199 47.5388 3.85971 47.4516 3.94743C47.3644 4.03515 47.3644 4.21059 47.2771 4.38602C47.2771 4.56146 47.2771 4.64918 47.2771 4.82462V9.91234C47.2771 10.1755 47.3644 10.4387 47.4516 10.6141C47.626 10.7895 47.8005 10.965 48.1494 10.965C48.4983 10.965 48.6728 10.8773 48.8472 10.6141C49.0217 10.4387 49.0217 10.1755 49.0217 9.82462V4.7369Z" fill="#42454A"/>
<path d="M54.2557 12.3684V14.2982H52.9473V11.0526L53.5579 10.9649C53.8195 10.7017 53.994 10.3509 54.0812 9.99999C54.1684 9.64911 54.2557 9.12279 54.2557 8.50876L54.4301 2.36841H58.966V11.0526H59.5766V14.386H58.2681V12.4561H54.2557V12.3684ZM55.6513 8.42104C55.6513 9.03508 55.5641 9.47367 55.5641 9.91227C55.4769 10.3509 55.3896 10.7017 55.2152 10.9649H57.3959V3.77192H55.8258L55.6513 8.42104Z" fill="#42454A"/>
<path d="M62.1055 12.3685V2.28076H66.5541V3.77199H63.6756V6.49129H66.2052V7.98252H63.6756V10.8773H66.5541V12.3685H62.1055Z" fill="#42454A"/>
<path d="M72.7472 6.05263L70.6538 12.3684H69.1709V2.2807H70.6538V8.68421L72.7472 2.2807H74.2301V12.3684H72.66L72.7472 6.05263ZM70.8282 0C70.8282 0.0877193 70.8282 0.175439 70.9154 0.350877C71.0027 0.438596 71.0027 0.526316 71.0899 0.701754C71.1771 0.789474 71.2644 0.877193 71.3516 0.964912C71.4388 1.05263 71.6133 1.05263 71.7005 1.05263C71.8749 1.05263 71.9622 1.05263 72.0494 0.964912C72.1366 0.877193 72.2239 0.789474 72.3111 0.701754C72.3983 0.614035 72.4855 0.526316 72.4855 0.350877C72.4855 0.263158 72.5728 0.175439 72.5728 0H73.7067C73.7067 0.175439 73.6195 0.438596 73.5323 0.701754C73.6195 0.877193 73.445 1.14035 73.2706 1.31579C73.0961 1.49123 72.9217 1.66667 72.66 1.84211C72.3983 1.92982 72.1366 2.01754 71.7877 2.01754C71.4388 2.01754 71.0899 1.92982 70.8282 1.84211C70.5665 1.75439 70.3921 1.57895 70.2176 1.31579C70.0432 1.14035 69.9559 0.877193 69.8687 0.701754C69.7815 0.438596 69.6943 0.175439 69.6943 0H70.8282Z" fill="#42454A"/>
<path d="M79.639 2.19287C80.0751 2.19287 80.4241 2.28059 80.6857 2.36831C80.9474 2.45603 81.2091 2.63147 81.4708 2.80691C81.6452 2.98234 81.8197 3.2455 81.9069 3.50866C81.9942 3.77182 82.0814 4.1227 82.0814 4.47357L80.5985 4.82445C80.5985 4.47357 80.5113 4.1227 80.4241 3.94726C80.2496 3.6841 80.0751 3.59638 79.7262 3.59638C79.5518 3.59638 79.3773 3.59638 79.2901 3.6841C79.2029 3.77182 79.1156 3.85954 79.0284 3.94726C78.9412 4.03498 78.9412 4.21042 78.9412 4.29813C78.9412 4.47357 78.9412 4.56129 78.9412 4.73673V9.82445C78.9412 9.91217 78.9412 9.99989 78.9412 10.1753C78.9412 10.263 79.0284 10.4385 79.0284 10.5262C79.1156 10.6139 79.2029 10.7016 79.2901 10.7894C79.3773 10.8771 79.5518 10.8771 79.7262 10.8771C80.3368 10.8771 80.5985 10.4385 80.5985 9.64901C80.8602 9.73673 81.1219 9.73673 81.3836 9.73673C81.6452 9.73673 81.9069 9.82445 82.1686 9.82445C82.1686 10.6139 81.9069 11.228 81.558 11.6666C81.1219 12.1052 80.5985 12.3683 79.8135 12.3683C78.9412 12.3683 78.3306 12.1929 77.9817 11.7543C77.5456 11.3157 77.3711 10.7016 77.3711 9.91217V4.91217C77.3711 4.56129 77.3711 4.21042 77.4583 3.85954C77.5456 3.50866 77.72 3.2455 77.8945 2.98234C78.0689 2.71919 78.3306 2.54375 78.6795 2.36831C78.7667 2.28059 79.2029 2.19287 79.639 2.19287Z" fill="#42454A"/>
<path d="M87.1405 3.77199V12.3685H85.5704V3.77199H83.9131V2.28076H88.7106V3.77199H87.1405Z" fill="#42454A"/>
<path d="M94.8162 7.10532C95.2523 7.28076 95.6013 7.54392 95.6885 7.8948C95.8629 8.33339 95.9502 8.77199 95.9502 9.29831C95.9502 10.3509 95.6885 11.1404 95.2523 11.579C94.8162 12.1053 94.1184 12.2808 93.1589 12.2808H91.0654V2.28076H93.2461C94.1184 2.28076 94.8162 2.54392 95.1651 2.98252C95.6013 3.42111 95.7757 4.12287 95.7757 5.00006C95.7757 5.43866 95.6885 5.87725 95.514 6.22813C95.514 6.57901 95.1651 6.84217 94.8162 7.10532ZM94.3801 5.08778C94.3801 4.64918 94.2928 4.29831 94.1184 4.12287C93.9439 3.94743 93.595 3.85971 93.2461 3.85971H92.7228V6.49129H93.2461C93.6823 6.49129 93.9439 6.40357 94.1184 6.14041C94.2928 5.78953 94.3801 5.43866 94.3801 5.08778ZM94.4673 9.12287C94.4673 8.68427 94.3801 8.33339 94.2056 8.07024C94.0312 7.80708 93.7695 7.71936 93.3333 7.71936H92.7228V10.8773H93.3333C93.595 10.8773 93.7695 10.7895 93.9439 10.7018C94.1184 10.6141 94.2056 10.5264 94.2928 10.3509C94.3801 10.1755 94.4673 10.0001 94.4673 9.82462C94.4673 9.64918 94.4673 9.38602 94.4673 9.12287Z" fill="#42454A"/>
<path d="M102.492 6.05269L100.399 12.3685H98.916V2.28076H100.399V8.68427H100.486L102.58 2.28076H104.062V12.3685H102.492V6.05269Z" fill="#42454A"/>
<path d="M106.679 12.3684L107.202 9.21051C107.289 8.85964 107.377 8.59648 107.551 8.33332C107.725 8.07016 107.9 7.807 108.162 7.71929C107.725 7.54385 107.377 7.19297 107.202 6.84209C107.028 6.49122 106.94 5.9649 106.94 5.43858C106.94 4.47367 107.202 3.6842 107.638 3.15788C108.074 2.63157 108.772 2.36841 109.644 2.36841H111.912V12.4561H110.342V8.07016H109.906C109.644 8.07016 109.383 8.15788 109.121 8.42104C108.859 8.59648 108.772 9.03507 108.598 9.56139L108.162 12.3684H106.679ZM109.732 3.77192C109.296 3.77192 108.947 3.94736 108.772 4.21051C108.598 4.47367 108.51 4.82455 108.51 5.35086C108.51 5.87718 108.598 6.14034 108.859 6.4035C109.121 6.57893 109.383 6.66665 109.732 6.66665H110.342V3.77192H109.732Z" fill="#42454A"/>
<path d="M4.71032 20.7019L2.09349 28.5089H0.261719V16.0527H2.18072V23.9475H2.26795L4.88477 16.0527H6.80378V28.5089H4.79754L4.71032 20.7019Z" fill="#42454A"/>
<path d="M16.1368 28.5089V23.0703H13.9561V28.5089H12.0371V16.0527H13.9561V21.2282H16.224V16.0527H18.143V28.5089H16.1368Z" fill="#42454A"/>
<path d="M27.6508 28.5089V23.0703H25.3829V28.5089H23.4639V16.0527H25.3829V21.2282H27.6508V16.0527H29.5698V28.5089H27.6508Z" fill="#42454A"/>
<path d="M40.9093 25.3508C40.9093 26.4034 40.6476 27.2806 40.2115 27.8069C39.6881 28.3333 38.9903 28.5964 37.8564 28.5964C36.8096 28.5964 36.0246 28.3333 35.5884 27.8069C35.1523 27.2806 34.8906 26.4912 34.8906 25.5262V19.2982C34.8906 18.7719 34.9779 18.3333 35.0651 17.9824C35.1523 17.5438 35.3268 17.1929 35.5884 16.9298C35.8501 16.6666 36.1118 16.4034 36.5479 16.228C36.8969 16.0526 37.4202 15.9648 37.9436 15.9648C38.5542 15.9648 38.9903 16.0526 39.4265 16.228C39.7754 16.4034 40.1243 16.5789 40.386 16.842C40.6476 17.1052 40.8221 17.4561 40.9093 17.8947C40.9965 18.3333 41.0838 18.7719 41.0838 19.2982V25.3508H40.9093ZM38.9903 19.1227C38.9903 18.7719 38.9031 18.5087 38.7286 18.1578C38.5542 17.8947 38.2925 17.7192 37.8564 17.7192C37.5947 17.7192 37.4202 17.8069 37.333 17.8947C37.1585 17.9824 37.0713 18.1578 36.9841 18.2455C36.8969 18.421 36.8096 18.5964 36.8096 18.7719C36.8096 18.9473 36.7224 19.1227 36.7224 19.2982V25.614C36.7224 25.9648 36.8096 26.228 36.9841 26.4912C37.1585 26.7543 37.4202 26.842 37.8564 26.842C38.2925 26.842 38.5542 26.6666 38.7286 26.4034C38.9031 26.1403 38.9903 25.7894 38.9903 25.4385V19.1227Z" fill="#42454A"/>
<path d="M50.7663 22.0176C51.2897 22.1931 51.7258 22.544 51.9003 23.0703C52.0747 23.5966 52.2492 24.1229 52.2492 24.8247C52.2492 26.1405 51.9875 27.1054 51.3769 27.7194C50.8535 28.3334 49.9812 28.5966 48.8473 28.5966H46.2305V16.0527H48.9345C50.0685 16.0527 50.8535 16.3159 51.2897 16.9299C51.813 17.544 52.0747 18.3334 52.0747 19.4738C52.0747 20.0878 51.9875 20.5264 51.813 20.965C51.6386 21.4036 51.2897 21.7545 50.7663 21.9299V22.0176ZM50.2429 19.4738C50.2429 18.8598 50.1557 18.5089 49.894 18.2457C49.6323 17.9826 49.2834 17.8948 48.7601 17.8948H48.1495V21.0527H48.7601C49.2834 21.0527 49.6323 20.8773 49.894 20.6141C50.1557 20.4387 50.2429 20.0001 50.2429 19.4738ZM50.3302 24.5615C50.3302 23.9475 50.2429 23.5089 49.9812 23.2457C49.8068 22.9826 49.3707 22.8071 48.8473 22.8071H48.1495V26.6668H48.9345C49.2834 26.6668 49.4579 26.5791 49.7196 26.4913C49.894 26.4036 50.0685 26.2282 50.1557 26.0527C50.2429 25.8773 50.3302 25.6141 50.3302 25.351C50.3302 25.1755 50.3302 24.9124 50.3302 24.5615Z" fill="#42454A"/>
<path d="M62.0191 28.5089L61.4957 25.8773H59.2278C59.1406 26.3159 59.0534 26.7545 58.9662 27.1931C58.8789 27.6317 58.7917 28.0703 58.7045 28.5089H56.6982C57.1344 26.4036 57.5705 24.2983 57.9194 22.2808C58.3556 20.1755 58.7917 18.158 59.1406 16.0527H61.3213L63.8509 28.5089H62.0191ZM60.2746 18.9475C60.1873 19.8247 60.0129 20.7019 59.9257 21.4913C59.7512 22.3685 59.664 23.2457 59.4895 24.1229H61.2341L60.449 18.9475H60.2746Z" fill="#42454A"/>
<path d="M74.6665 16.0527V26.7545H75.4515V30.965H73.7942V28.5966H68.5605V16.0527H70.4796V26.7545H72.6602V16.0527H74.6665Z" fill="#42454A"/>
<path d="M84.5238 20.7019L81.907 28.5089H80.0752V16.0527H81.9942V23.9475L84.611 16.0527H86.53V28.5089H84.611L84.5238 20.7019Z" fill="#42454A"/>
<path d="M91.3271 28.5089L92.025 24.5615C92.1122 24.1229 92.1994 23.772 92.4611 23.4212C92.6356 23.0703 92.8972 22.8071 93.2462 22.6317C92.6356 22.3685 92.2867 22.0176 92.025 21.5791C91.8505 21.0527 91.6761 20.5264 91.6761 19.8247C91.6761 18.5966 91.9377 17.6317 92.5483 17.0176C93.1589 16.4036 93.944 16.0527 94.9907 16.0527H97.8692V28.5089H95.9502V23.158H95.4268C95.0779 23.158 94.8163 23.2457 94.4673 23.5089C94.2057 23.772 93.944 24.2106 93.8567 24.9124L93.2462 28.4212H91.3271V28.5089ZM95.1652 17.8948C94.5546 17.8948 94.2057 18.0703 93.944 18.4212C93.6823 18.772 93.5951 19.2106 93.5951 19.8247C93.5951 20.4387 93.7695 20.8773 94.0312 21.0527C94.2929 21.3159 94.729 21.4036 95.1652 21.4036H95.9502V17.8948H95.1652Z" fill="#42454A"/>
<path d="M106.854 25.7894L105.982 23.5087L105.197 21.3157H105.109V28.5087H103.19V16.0526H105.109L106.505 19.5613L107.465 22.2806H107.552L108.599 19.4736L109.907 15.9648H111.739V28.421H109.82V21.228H109.732L108.947 23.421L108.075 25.7017H106.854V25.7894Z" fill="#42454A"/>
<path d="M111.826 32.2808C84.8723 58.772 30.9658 54.2106 11.4268 32.2808H0.261719C15.0032 47.9825 36.1994 53.9474 53.9938 54.7369C55.8256 54.8246 57.6574 54.8246 59.4019 54.8246C70.9159 54.6492 83.7384 52.1053 94.9035 46.1404C101.271 42.8071 107.115 38.2457 111.826 32.2808Z" fill="#EA2227"/>
<path d="M111.826 32.2808C111.826 32.3685 111.826 32.3685 111.826 32.2808C111.389 32.6316 110.953 32.8948 110.604 33.158C81.2087 52.8948 40.3863 49.0351 22.8535 32.2808H11.4268C30.9657 54.2106 84.8722 58.8597 111.826 32.2808Z" fill="#25A8E0"/>
<path d="M105.371 35.0878C92.0249 40.2632 79.4641 42.5439 68.4735 42.6316C53.1214 42.7194 40.9968 38.5966 34.542 32.2808H24.8597H22.8535C40.299 48.8597 80.6853 52.8071 109.994 33.5088C110.168 33.4211 110.43 33.2457 110.604 33.0702C111.04 32.8071 111.389 32.5439 111.825 32.2808C109.645 33.3334 107.464 34.2106 105.371 35.0878Z" fill="white"/>
<path d="M34.5417 32.2807C40.9093 38.421 52.7723 42.5438 67.8626 42.5438C68.0371 42.5438 68.2988 42.5438 68.4732 42.5438C79.4639 42.4561 92.0246 40.1754 105.37 35C107.464 34.1228 109.645 33.2456 111.825 32.2807C107.115 38.1579 101.271 42.7193 94.8159 46.1403C83.6508 52.1052 70.8283 54.6491 59.3143 54.8245C58.8782 54.8245 58.4421 54.8245 58.0059 54.8245C56.6975 54.8245 55.3019 54.8245 53.9062 54.7368C36.1118 53.9473 15.0028 47.9824 0.174141 32.2807H11.252H22.6788H24.685H34.5417ZM34.5417 32.1929H24.8595H22.8533H11.4265H0.261369C0.174141 32.1929 0.174141 32.1929 0.0869141 32.2807C0.0869141 32.3684 0.0869141 32.3684 0.0869141 32.4561C7.06511 39.7368 15.7006 45.4386 25.9062 49.2982C34.4545 52.5438 44.224 54.4736 53.9062 54.9122C55.3019 55 56.6103 55 58.0059 55C58.4421 55 58.8782 55 59.3143 55C65.4202 54.9122 71.4389 54.2105 77.196 52.807C83.5636 51.3158 89.495 49.1228 94.8159 46.3158C101.62 42.6315 107.377 37.9824 111.825 32.3684C111.825 32.3684 111.825 32.3684 111.825 32.2807C111.825 32.2807 111.825 32.2807 111.825 32.1929C111.825 32.1929 111.825 32.1929 111.825 32.1052C111.825 32.1052 111.825 32.1052 111.738 32.1052H111.651C109.557 33.0701 107.377 34.0351 105.196 34.8245C92.8097 39.6491 80.0745 42.2807 68.386 42.3684C68.2115 42.3684 67.9498 42.3684 67.7754 42.3684C53.3829 42.3684 41.3455 38.5965 34.629 32.1052C34.629 32.1929 34.629 32.1929 34.5417 32.1929Z" fill="#CDCCCB"/>
</svg>
