<svg width="30" height="19" viewBox="0 0 30 19" fill="none" xmlns="http://www.w3.org/2000/svg">
<path fill-rule="evenodd" clip-rule="evenodd" d="M0.0350086 0.779681C0.0123364 0.865573 0 0.955792 0 1.04901V17.951C0 18.0442 0.0120029 18.1344 0.0350086 18.2203L10.4195 9.5L0.0350086 0.779681ZM1.18996 19L11.4611 10.3749C12.5674 11.3037 13.4096 11.9529 15 11.9529C16.5904 11.9529 17.4329 11.3037 18.5389 10.3749L28.81 19H1.18996ZM18.1004 8.99364L17.0905 9.84157C15.8745 10.8629 14.1258 10.8629 12.9095 9.84157L1.18996 0H28.81L18.1004 8.99364ZM19.5808 9.5L29.9647 18.2197C29.9877 18.1338 30 18.0435 30 17.951V1.04901C30 0.956125 29.9877 0.866239 29.9647 0.780348L19.5808 9.5Z" fill="#14151D"/>
</svg>
