<svg width="36" height="32" viewBox="0 0 36 32" fill="none" xmlns="http://www.w3.org/2000/svg">
<path d="M18.3785 31.2102C10.818 31.2205 4.28853 26.6705 1.81076 19.6633C-0.345695 13.5583 1.51349 6.34488 6.34532 2.04744C7.90037 0.664214 9.73207 0.0181375 11.7889 0.00610947C16.1688 -0.00763684 20.5521 0.00610947 24.9303 0.00610947C28.0885 0.00610947 30.3326 1.63161 32.1935 4.00285C39.0203 12.7438 35.7401 25.2959 25.463 29.7463C23.2319 30.7213 20.8219 31.2199 18.3871 31.2102M18.3871 1.51133C16.1379 1.51133 13.8886 1.50102 11.6394 1.51133C10.0526 1.50219 8.52132 2.09468 7.35396 3.16948C0.994571 8.8742 0.759166 18.9915 6.84535 24.9849C12.16 30.2188 20.0916 31.279 26.5627 27.4987C35.5081 22.2665 36.8329 10.5994 29.7879 3.57843C28.3892 2.18318 26.7448 1.48727 24.7723 1.50618C22.6416 1.5268 20.5109 1.50618 18.3802 1.50618" fill="white" fill-opacity="0.31"/>
<path d="M18.4045 4.14891C20.8616 4.14891 23.3188 4.17124 25.7742 4.1386C26.8928 4.12313 27.7589 4.52693 28.5235 5.32937C33.7454 10.8279 33.1629 19.6547 27.2245 24.4952C25.7448 25.6981 24.0349 26.5859 22.1998 27.1042C20.3646 27.6225 18.4429 27.7603 16.5526 27.5091C14.6622 27.2579 12.8432 26.6231 11.207 25.6436C9.57091 24.664 8.1522 23.3605 7.03801 21.8129C5.29837 19.3669 4.45756 16.3948 4.65796 13.4C4.85837 10.4052 6.08768 7.5716 8.13771 5.3792C8.49698 4.96778 8.94382 4.64204 9.44543 4.42588C9.94703 4.20971 10.4907 4.10861 11.0365 4.13C13.4919 4.16952 15.9491 4.14203 18.4045 4.14203M18.3358 5.13348C15.882 5.13348 13.4283 5.14208 10.9746 5.13348C10.2581 5.13348 9.62403 5.28126 9.12401 5.8208C6.23728 8.9309 5.01214 12.572 5.90394 16.7543C6.97615 21.7768 11.0588 25.5399 16.1793 26.4368C21.2465 27.3235 26.4255 25.0777 29.1627 20.8077C32.046 16.3092 31.625 10.5787 28.1609 6.44626C27.398 5.53385 26.5543 5.08537 25.3395 5.11974C23.0061 5.18847 20.6692 5.14036 18.334 5.14036" fill="white" fill-opacity="0.31"/>
<path d="M22.7909 24.8234C22.0851 24.806 21.4003 24.5794 20.8235 24.1722C20.2467 23.765 19.8038 23.1957 19.5511 22.5365C19.2984 21.8772 19.2471 21.1578 19.4039 20.4694C19.5607 19.781 19.9184 19.1547 20.4317 18.6699C20.945 18.1851 21.5907 17.8637 22.287 17.7465C22.9832 17.6293 23.6986 17.7215 24.3423 18.0115C24.986 18.3014 25.5291 18.7761 25.9027 19.3752C26.2763 19.9743 26.4635 20.6709 26.4405 21.3765C26.4276 21.8426 26.3229 22.3016 26.1325 22.7272C25.942 23.1528 25.6695 23.5366 25.3305 23.8568C24.9915 24.1769 24.5927 24.4271 24.1569 24.593C23.7212 24.7588 23.2569 24.8371 22.7909 24.8234ZM22.9026 18.7218C22.5628 18.7171 22.2256 18.7806 21.9108 18.9085C21.596 19.0364 21.31 19.2261 21.0697 19.4664C20.8295 19.7066 20.6398 19.9926 20.5119 20.3074C20.384 20.6222 20.3205 20.9594 20.3251 21.2992C20.3284 21.6361 20.398 21.969 20.5299 22.279C20.6619 22.589 20.8536 22.87 21.0941 23.1059C21.3347 23.3418 21.6193 23.528 21.9318 23.6539C22.2443 23.7798 22.5786 23.843 22.9155 23.8397C23.2523 23.8364 23.5853 23.7668 23.8953 23.6349C24.2053 23.5029 24.4863 23.3112 24.7222 23.0707C24.9581 22.8301 25.1443 22.5455 25.2702 22.233C25.3961 21.9205 25.4592 21.5863 25.4559 21.2494C25.4412 20.5801 25.1667 19.9428 24.6905 19.4723C24.2143 19.0019 23.5737 18.7352 22.9043 18.7286" fill="white" fill-opacity="0.31"/>
<path d="M6.29716 13.7525C6.30481 13.0448 6.52256 12.3554 6.92279 11.7718C7.32301 11.1881 7.88765 10.7366 8.54501 10.4744C9.20236 10.2123 9.92279 10.1514 10.6148 10.2995C11.3068 10.4476 11.9392 10.798 12.4317 11.3063C12.9242 11.8145 13.2546 12.4576 13.3809 13.1539C13.5071 13.8503 13.4236 14.5684 13.141 15.2172C12.8583 15.866 12.3892 16.4162 11.7933 16.7978C11.1974 17.1795 10.5014 17.3755 9.79388 17.3609C8.8526 17.3433 7.95653 16.9539 7.30137 16.2778C6.64621 15.6017 6.2852 14.6939 6.29716 13.7525ZM12.4143 13.7525C12.3903 13.0826 12.1049 12.4488 11.6193 11.9868C11.1336 11.5248 10.4864 11.2714 9.81614 11.2808C9.14592 11.2903 8.50605 11.5618 8.03361 12.0373C7.56117 12.5128 7.29374 13.1544 7.28862 13.8247C7.28862 15.1684 8.49142 16.3523 9.84887 16.3643C10.5346 16.3557 11.1892 16.0763 11.6697 15.587C12.1503 15.0977 12.418 14.4383 12.4143 13.7525Z" fill="white" fill-opacity="0.31"/>
<path d="M23.183 13.8471C23.1726 13.3729 23.2575 12.9015 23.4326 12.4608C23.6078 12.02 23.8695 11.6189 24.2025 11.2811C24.5354 10.9434 24.9328 10.6759 25.371 10.4945C25.8092 10.313 26.2793 10.2214 26.7536 10.225C27.6864 10.2438 28.5747 10.6272 29.2283 11.293C29.8819 11.9588 30.2488 12.8541 30.2504 13.7871C30.252 14.7201 29.8881 15.6166 29.2368 16.2846C28.5854 16.9526 27.6984 17.339 26.7656 17.361C26.2993 17.3669 25.8364 17.2805 25.4035 17.1069C24.9707 16.9332 24.5764 16.6757 24.2435 16.3492C23.9105 16.0226 23.6454 15.6334 23.4634 15.204C23.2814 14.7746 23.1861 14.3135 23.183 13.8471ZM29.2846 13.8471C29.2927 13.5075 29.2325 13.1697 29.1078 12.8537C28.983 12.5377 28.7962 12.2499 28.5583 12.0074C28.3204 11.7649 28.0363 11.5725 27.7228 11.4416C27.4093 11.3108 27.0727 11.2441 26.733 11.2456C26.0641 11.2515 25.4233 11.5156 24.9446 11.9828C24.4659 12.4499 24.1863 13.0841 24.1641 13.7526C24.1349 15.1375 25.3429 16.3644 26.7416 16.3696C27.4123 16.3642 28.0542 16.0962 28.5296 15.623C29.0051 15.1499 29.2761 14.5092 29.2846 13.8385" fill="white" fill-opacity="0.31"/>
<path d="M13.8766 24.8201C13.1708 24.8204 12.4808 24.611 11.8942 24.2185C11.3076 23.826 10.8508 23.2681 10.5818 22.6155C10.3128 21.963 10.2438 21.2452 10.3834 20.5534C10.523 19.8615 10.865 19.2267 11.3661 18.7296C11.8671 18.2324 12.5045 17.8954 13.1974 17.7611C13.8903 17.6268 14.6075 17.7014 15.258 17.9755C15.9084 18.2495 16.4628 18.7106 16.8507 19.3002C17.2387 19.8899 17.4427 20.5815 17.4369 21.2873C17.4328 22.2277 17.0555 23.1281 16.3879 23.7905C15.7203 24.453 14.8171 24.8233 13.8766 24.8201ZM16.442 21.2598C16.4389 20.7554 16.287 20.2631 16.0052 19.8447C15.7235 19.4262 15.3245 19.1003 14.8583 18.9077C14.3921 18.7151 13.8794 18.6644 13.3845 18.7619C12.8896 18.8595 12.4346 19.101 12.0763 19.4561C11.7181 19.8113 11.4727 20.2643 11.3709 20.7583C11.269 21.2523 11.3153 21.7655 11.5039 22.2333C11.6925 22.7012 12.015 23.1029 12.4309 23.3883C12.8469 23.6736 13.3379 23.8298 13.8422 23.8372C14.1826 23.8402 14.5201 23.7757 14.8354 23.6475C15.1507 23.5193 15.4375 23.3299 15.6792 23.0902C15.9209 22.8506 16.1128 22.5655 16.2437 22.2513C16.3746 21.9371 16.442 21.6001 16.442 21.2598Z" fill="white" fill-opacity="0.31"/>
<path d="M14.631 13.8092C14.6241 12.8662 14.9917 11.9589 15.6531 11.2866C16.3144 10.6142 17.2155 10.2318 18.1586 10.2232C19.1056 10.2202 20.015 10.5935 20.6867 11.2611C21.3584 11.9286 21.7374 12.8356 21.7404 13.7826C21.7433 14.7296 21.37 15.639 20.7025 16.3107C20.0349 16.9824 19.1279 17.3614 18.1809 17.3644C17.2388 17.3635 16.3356 16.9884 15.6699 16.3218C15.0042 15.6551 14.6305 14.7514 14.631 13.8092ZM20.7515 13.7749C20.7505 13.435 20.6813 13.0987 20.5479 12.786C20.4145 12.4734 20.2197 12.1907 19.975 11.9548C19.7302 11.7189 19.4406 11.5346 19.1233 11.4127C18.806 11.2909 18.4674 11.234 18.1277 11.2455C17.4564 11.2639 16.8188 11.5435 16.3505 12.0249C15.8823 12.5063 15.6204 13.1514 15.6207 13.823C15.6374 14.5086 15.9232 15.1601 16.4165 15.6367C16.9097 16.1132 17.5707 16.3765 18.2565 16.3695C18.9275 16.348 19.5636 16.0656 20.0296 15.5823C20.4955 15.099 20.7545 14.453 20.7515 13.7817" fill="white" fill-opacity="0.31"/>
<path d="M13.5998 10.2197C12.9796 10.2099 12.3886 9.95413 11.957 9.50863C11.5253 9.06313 11.2883 8.46441 11.2981 7.84418C11.3079 7.22394 11.5637 6.63301 12.0092 6.20136C12.4547 5.76972 13.0534 5.53273 13.6737 5.54253C13.9848 5.54194 14.2927 5.60458 14.5789 5.72666C14.865 5.84874 15.1234 6.0277 15.3382 6.25268C15.5531 6.47766 15.72 6.74397 15.8287 7.03542C15.9375 7.32687 15.9859 7.6374 15.971 7.94813C15.953 8.56161 15.6941 9.14329 15.2502 9.56718C14.8064 9.99108 14.2134 10.223 13.5998 10.2128M14.9624 7.83129C14.9523 7.49108 14.8138 7.1673 14.5747 6.92505C14.3356 6.68279 14.0137 6.54 13.6737 6.52539C13.3047 6.53306 12.9535 6.68576 12.6962 6.95043C12.4389 7.2151 12.2963 7.57044 12.299 7.93954C12.3281 8.27676 12.4806 8.5914 12.7273 8.82317C12.974 9.05494 13.2975 9.18756 13.6359 9.19561C13.8125 9.19616 13.9875 9.16114 14.1503 9.09263C14.3132 9.02413 14.4606 8.92354 14.5837 8.79687C14.7069 8.6702 14.8032 8.52004 14.8671 8.35533C14.931 8.19062 14.9611 8.01474 14.9555 7.83816" fill="white" fill-opacity="0.31"/>
<path d="M22.2789 5.54764C22.5828 5.53664 22.8859 5.58627 23.1705 5.69365C23.455 5.80103 23.7153 5.964 23.9362 6.17305C24.1571 6.38211 24.3342 6.63306 24.457 6.91127C24.5799 7.18948 24.6461 7.48937 24.6519 7.79345C24.6706 8.25848 24.5503 8.71855 24.3062 9.11485C24.0622 9.51115 23.7055 9.82568 23.2818 10.0183C22.8581 10.2108 22.3866 10.2727 21.9276 10.196C21.4685 10.1192 21.0428 9.90738 20.7048 9.58746C20.3667 9.26754 20.1318 8.85411 20.0299 8.39998C19.928 7.94585 19.9639 7.47166 20.1328 7.03801C20.3018 6.60435 20.5963 6.23093 20.9785 5.96546C21.3608 5.69998 21.8135 5.55451 22.2789 5.54764ZM22.3167 6.52535C21.9616 6.54105 21.6255 6.68973 21.3749 6.94184C21.1244 7.19395 20.9779 7.53107 20.9644 7.88623C20.9833 8.2412 21.1377 8.57539 21.3957 8.81995C21.6536 9.0645 21.9956 9.20079 22.3511 9.20073C22.6913 9.18981 23.0144 9.04885 23.2538 8.80687C23.4933 8.56489 23.6308 8.24031 23.6381 7.89998C23.6383 7.54445 23.5008 7.20264 23.2545 6.94633C23.0081 6.69001 22.672 6.53913 22.3167 6.52535Z" fill="white" fill-opacity="0.31"/>
<path d="M22.9045 22.2941C22.6388 22.2941 22.3825 22.1956 22.1854 22.0175C21.9882 21.8394 21.8642 21.5944 21.8374 21.3301C21.8291 21.0589 21.9266 20.7952 22.1093 20.5946C22.292 20.3941 22.5455 20.2724 22.8163 20.2555C23.0871 20.2385 23.3538 20.3275 23.5601 20.5037C23.7664 20.6799 23.8961 20.9294 23.9217 21.1995C23.9303 21.339 23.9105 21.4788 23.8634 21.6104C23.8164 21.742 23.743 21.8626 23.6479 21.965C23.5527 22.0674 23.4378 22.1493 23.31 22.2059C23.1822 22.2625 23.0442 22.2925 22.9045 22.2941Z" fill="white" fill-opacity="0.31"/>
<path d="M14.2614 7.88121C14.2618 8.00132 14.2265 8.11883 14.1599 8.21884C14.0934 8.31885 13.9987 8.39686 13.8878 8.44298C13.7769 8.4891 13.6548 8.50126 13.537 8.47791C13.4192 8.45456 13.3109 8.39675 13.226 8.31182C13.1411 8.22689 13.0833 8.11866 13.0599 8.00084C13.0366 7.88302 13.0487 7.76091 13.0948 7.65001C13.141 7.53911 13.219 7.44439 13.319 7.37788C13.419 7.31136 13.5365 7.27603 13.6566 7.27637C13.8169 7.27682 13.9705 7.34069 14.0838 7.45402C14.1971 7.56735 14.261 7.72093 14.2614 7.88121Z" fill="white" fill-opacity="0.31"/>
<path d="M22.9475 7.8812C22.9478 8.00124 22.9125 8.11868 22.8461 8.21866C22.7797 8.31863 22.685 8.39664 22.5742 8.44281C22.4634 8.48899 22.3414 8.50124 22.2237 8.47803C22.1059 8.45482 21.9976 8.39719 21.9126 8.31243C21.8276 8.22767 21.7697 8.1196 21.7462 8.00189C21.7226 7.88418 21.7345 7.76214 21.7804 7.6512C21.8262 7.54027 21.904 7.44544 22.0038 7.37871C22.1036 7.31198 22.2209 7.27637 22.3409 7.27637C22.5015 7.27637 22.6555 7.34004 22.7692 7.45341C22.8829 7.56679 22.947 7.72063 22.9475 7.8812Z" fill="white" fill-opacity="0.31"/>
<path d="M19.2117 13.7045C19.2121 13.9064 19.1525 14.1039 19.0406 14.272C18.9286 14.4401 18.7693 14.5712 18.5829 14.6487C18.3964 14.7262 18.1911 14.7467 17.993 14.7075C17.7949 14.6683 17.6129 14.5712 17.47 14.4285C17.3271 14.2859 17.2297 14.104 17.1901 13.906C17.1506 13.7079 17.1707 13.5026 17.2479 13.316C17.3251 13.1294 17.456 12.9699 17.6238 12.8577C17.7917 12.7455 17.9891 12.6855 18.1911 12.6855C18.4615 12.6855 18.7208 12.7928 18.9122 12.9839C19.1035 13.1749 19.2113 13.4341 19.2117 13.7045Z" fill="white" fill-opacity="0.31"/>
<path d="M14.8543 21.2702C14.8543 21.472 14.7945 21.6694 14.6823 21.8372C14.5702 22.0051 14.4107 22.1359 14.2242 22.2131C14.0377 22.2904 13.8325 22.3106 13.6345 22.2712C13.4365 22.2318 13.2547 22.1346 13.1119 21.9919C12.9692 21.8492 12.872 21.6673 12.8326 21.4693C12.7932 21.2713 12.8134 21.0661 12.8907 20.8796C12.9679 20.6931 13.0988 20.5337 13.2666 20.4215C13.4344 20.3094 13.6318 20.2495 13.8337 20.2495C14.1043 20.2495 14.364 20.357 14.5554 20.5485C14.7468 20.7399 14.8543 20.9995 14.8543 21.2702Z" fill="white" fill-opacity="0.31"/>
<path d="M10.8231 13.7045C10.8234 13.9064 10.7638 14.1039 10.6519 14.272C10.5399 14.4401 10.3807 14.5712 10.1942 14.6487C10.0077 14.7262 9.80244 14.7467 9.60433 14.7075C9.40623 14.6683 9.22421 14.5712 9.08129 14.4285C8.93838 14.2859 8.841 14.104 8.80148 13.906C8.76195 13.7079 8.78207 13.5026 8.85927 13.316C8.93647 13.1294 9.06729 12.9699 9.23517 12.8577C9.40306 12.7455 9.60046 12.6855 9.8024 12.6855C10.0728 12.6855 10.3322 12.7928 10.5235 12.9839C10.7149 13.1749 10.8226 13.4341 10.8231 13.7045Z" fill="white" fill-opacity="0.31"/>
<path d="M27.7879 13.7045C27.7882 13.9064 27.7287 14.1039 27.6167 14.272C27.5048 14.4401 27.3455 14.5712 27.159 14.6487C26.9726 14.7262 26.7673 14.7467 26.5692 14.7075C26.3711 14.6683 26.189 14.5712 26.0461 14.4285C25.9032 14.2859 25.8058 14.104 25.7663 13.906C25.7268 13.7079 25.7469 13.5026 25.8241 13.316C25.9013 13.1294 26.0321 12.9699 26.2 12.8577C26.3679 12.7455 26.5653 12.6855 26.7672 12.6855C27.0376 12.6855 27.297 12.7928 27.4884 12.9839C27.6797 13.1749 27.7875 13.4341 27.7879 13.7045Z" fill="white" fill-opacity="0.31"/>
</svg>
