<svg width="35" height="34" viewBox="0 0 35 34" fill="none" xmlns="http://www.w3.org/2000/svg">
<path d="M34.2639 16.9965C34.1539 26.3955 26.5419 33.9164 17.2133 33.8133C14.9882 33.7979 12.788 33.343 10.7391 32.4748C8.69026 31.6065 6.83311 30.3421 5.27432 28.7541C3.71554 27.1661 2.48582 25.2858 1.6558 23.2212C0.825779 21.1566 0.411809 18.9483 0.437664 16.7232C0.516705 7.3895 8.19402 -0.0919338 17.4865 0.000853837C26.8254 0.0936414 34.3722 7.73315 34.2639 16.9947M17.2666 32.3339C25.669 32.4181 32.659 25.5363 32.7638 17.0755C32.8704 8.5545 26.0247 1.59371 17.4333 1.48717C9.01536 1.37548 2.00646 8.30706 1.91711 16.8195C1.82776 25.2391 8.76277 32.248 17.2666 32.3339Z" fill="white" fill-opacity="0.31"/>
<path d="M30.657 16.9483C30.6725 24.239 24.7083 30.2135 17.3952 30.2324C10.053 30.253 4.03039 24.2716 4.01665 16.9466C4.01213 15.1973 4.35234 13.4643 5.01785 11.8465C5.68336 10.2288 6.66112 8.75805 7.89525 7.51833C9.12938 6.27861 10.5957 5.29422 12.2104 4.62141C13.8251 3.94861 15.5566 3.60057 17.3059 3.59719C24.7392 3.58345 30.6398 9.48577 30.657 16.9483ZM17.3385 29.2117C20.6038 29.2113 23.7357 27.9165 26.0479 25.611C28.3601 23.3055 29.6641 20.1774 29.6741 16.9122C29.7119 10.2126 24.1498 4.60583 17.4485 4.57833C15.8145 4.54474 14.1901 4.83663 12.67 5.43702C11.15 6.03741 9.76453 6.93429 8.5945 8.07541C7.42446 9.21653 6.4932 10.5791 5.85496 12.0837C5.21672 13.5883 4.88427 15.2048 4.87698 16.8392C4.86968 18.4735 5.18768 20.093 5.81246 21.6032C6.43724 23.1134 7.3563 24.4842 8.5161 25.6357C9.67591 26.7873 11.0533 27.6965 12.5679 28.3104C14.0826 28.9243 15.7043 29.2307 17.3385 29.2117Z" fill="white" fill-opacity="0.31"/>
<path d="M21.2289 24.9797C21.2353 25.4482 21.1494 25.9133 20.9761 26.3485C20.8028 26.7838 20.5454 27.1806 20.2187 27.5164C19.892 27.8522 19.5024 28.1204 19.0721 28.3056C18.6418 28.4908 18.1792 28.5894 17.7107 28.5959C16.7646 28.6088 15.8522 28.2455 15.174 27.5857C14.8382 27.259 14.5701 26.8694 14.3848 26.439C14.1996 26.0087 14.101 25.5461 14.0946 25.0777C14.0816 24.1316 14.445 23.2191 15.1047 22.5409C15.7645 21.8628 16.6667 21.4745 17.6128 21.4615C18.5588 21.4485 19.4713 21.8119 20.1495 22.4717C20.8276 23.1315 21.2159 24.0336 21.2289 24.9797ZM20.246 25.0244C20.2379 24.3392 19.9605 23.6847 19.4737 23.2024C18.9869 22.7201 18.3298 22.4487 17.6446 22.447C17.3083 22.4505 16.9761 22.5201 16.6668 22.652C16.3575 22.7839 16.0773 22.9755 15.842 23.2157C15.3668 23.7008 15.1039 24.3548 15.1109 25.0338C15.1144 25.3701 15.1841 25.7023 15.316 26.0116C15.4479 26.3209 15.6394 26.6011 15.8797 26.8364C16.1199 27.0717 16.4041 27.2573 16.716 27.3828C17.028 27.5082 17.3616 27.571 17.6978 27.5675C18.3673 27.5493 19.0045 27.2754 19.4784 26.8022C19.9523 26.3289 20.227 25.6922 20.246 25.0227" fill="white" fill-opacity="0.31"/>
<path d="M26.6879 12.2404C26.7075 13.1879 26.3499 14.1043 25.6938 14.7881C25.369 15.1266 24.9806 15.3979 24.5509 15.5864C24.1212 15.7749 23.6586 15.8769 23.1895 15.8866C22.242 15.9062 21.3256 15.5486 20.6418 14.8926C19.958 14.2365 19.5628 13.3356 19.5432 12.3882C19.5236 11.4407 19.8812 10.5243 20.5373 9.84053C21.1934 9.15673 22.0942 8.76157 23.0417 8.74198C23.9891 8.72238 24.9055 9.07996 25.5893 9.73604C26.2731 10.3921 26.6683 11.293 26.6879 12.2404ZM23.0571 14.8436C23.3967 14.8519 23.7345 14.792 24.0505 14.6676C24.3666 14.5432 24.6545 14.3567 24.8973 14.1192C25.1401 13.8817 25.3329 13.5979 25.4643 13.2847C25.5956 12.9714 25.6629 12.6351 25.6621 12.2954C25.6602 11.6254 25.3983 10.9822 24.9317 10.5014C24.465 10.0207 23.8299 9.73978 23.1602 9.71796C22.4757 9.71868 21.8186 9.98707 21.3293 10.4658C20.84 10.9445 20.5573 11.5956 20.5416 12.2799C20.5488 12.9499 20.8152 13.5911 21.2848 14.069C21.7544 14.547 22.3908 14.8246 23.0606 14.8436" fill="white" fill-opacity="0.31"/>
<path d="M12.2046 8.72977C13.146 8.73658 14.0462 9.11686 14.7073 9.78702C15.3685 10.4572 15.7365 11.3624 15.7306 12.3038C15.7298 13.0118 15.5187 13.7035 15.1239 14.2912C14.7291 14.8788 14.1686 15.3359 13.5135 15.6042C12.8584 15.8726 12.1383 15.9401 11.4447 15.7983C10.7511 15.6565 10.1153 15.3117 9.61811 14.8077C9.12092 14.3038 8.78477 13.6634 8.65236 12.9679C8.51996 12.2725 8.59727 11.5533 8.87448 10.9019C9.1517 10.2505 9.6163 9.69622 10.2093 9.30946C10.8022 8.92269 11.4967 8.72091 12.2046 8.72977ZM14.7443 12.2918C14.7358 11.6203 14.469 10.9778 13.9993 10.4978C13.5296 10.0179 12.893 9.73727 12.2218 9.71435C11.7146 9.70687 11.2167 9.85022 10.7911 10.1262C10.3655 10.4022 10.0315 10.7983 9.83141 11.2645C9.63133 11.7306 9.57422 12.2456 9.66731 12.7442C9.76041 13.2428 9.99951 13.7026 10.3543 14.0651C10.7091 14.4276 11.1635 14.6765 11.66 14.7804C12.1565 14.8842 12.6727 14.8382 13.143 14.6482C13.6133 14.4582 14.0166 14.1328 14.3017 13.7133C14.5868 13.2938 14.7408 12.799 14.7443 12.2918Z" fill="white" fill-opacity="0.31"/>
<path d="M11.9623 21.1445C11.9521 21.6042 11.8067 22.0506 11.5443 22.428C11.2818 22.8055 10.914 23.0972 10.4866 23.2667C10.0593 23.4363 9.5915 23.4761 9.14167 23.3812C8.69184 23.2863 8.27995 23.061 7.95748 22.7333C7.635 22.4057 7.41626 21.9903 7.32857 21.539C7.24089 21.0877 7.28817 20.6206 7.46449 20.196C7.64081 19.7714 7.93836 19.4083 8.31994 19.1519C8.70152 18.8955 9.15021 18.7572 9.60992 18.7544C9.92224 18.7537 10.2316 18.8153 10.5198 18.9356C10.808 19.0559 11.0693 19.2326 11.2884 19.4551C11.5074 19.6777 11.6799 19.9418 11.7956 20.2319C11.9113 20.522 11.968 20.8323 11.9623 21.1445ZM10.9399 21.1188C10.9404 20.9411 10.9054 20.7651 10.837 20.6012C10.7686 20.4372 10.6682 20.2885 10.5416 20.1639C10.415 20.0392 10.2648 19.9411 10.0998 19.8752C9.93483 19.8093 9.75834 19.777 9.58071 19.7802C9.40628 19.785 9.2345 19.824 9.07516 19.8951C8.91583 19.9663 8.77206 20.0681 8.65207 20.1948C8.53209 20.3215 8.43823 20.4705 8.37585 20.6335C8.31348 20.7965 8.28382 20.9701 8.28856 21.1445C8.2933 21.319 8.33234 21.4908 8.40347 21.6501C8.4746 21.8094 8.57642 21.9532 8.7031 22.0732C8.82979 22.1932 8.97888 22.287 9.14184 22.3494C9.3048 22.4118 9.47845 22.4414 9.65288 22.4367C9.99604 22.4256 10.3216 22.2823 10.5615 22.0366C10.8014 21.791 10.937 21.4621 10.9399 21.1188Z" fill="white" fill-opacity="0.31"/>
<path d="M25.5145 23.4434C25.2047 23.4427 24.898 23.3807 24.6123 23.261C24.3265 23.1412 24.0673 22.9661 23.8496 22.7456C23.6319 22.5252 23.4599 22.2638 23.3437 21.9766C23.2275 21.6894 23.1693 21.382 23.1725 21.0722C23.1754 20.4478 23.4263 19.8502 23.8699 19.4109C24.3134 18.9715 24.9134 18.7263 25.5377 18.7293C26.162 18.7322 26.7596 18.9831 27.199 19.4267C27.6384 19.8702 27.8836 20.4702 27.8806 21.0945C27.8818 21.4047 27.8212 21.7121 27.7025 21.9987C27.5838 22.2854 27.4093 22.5455 27.1891 22.7641C26.9689 22.9827 26.7075 23.1553 26.42 23.2719C26.1325 23.3885 25.8247 23.4468 25.5145 23.4434ZM26.8651 21.1082C26.8592 20.7526 26.7134 20.4136 26.4594 20.1646C26.2053 19.9157 25.8633 19.7769 25.5076 19.7783C25.1629 19.7895 24.8359 19.9341 24.5956 20.1815C24.3553 20.429 24.2204 20.76 24.2193 21.105C24.2182 21.4499 24.351 21.7818 24.5897 22.0308C24.8284 22.2798 25.1544 22.4265 25.4991 22.4399C25.8563 22.4401 26.1996 22.3012 26.4562 22.0526C26.7128 21.804 26.8625 21.4653 26.8737 21.1082" fill="white" fill-opacity="0.31"/>
<path d="M13.2476 12.2986C13.2479 12.5128 13.1847 12.7222 13.066 12.9005C12.9472 13.0787 12.7783 13.2177 12.5805 13.2999C12.3827 13.3821 12.165 13.4038 11.9549 13.3622C11.7448 13.3207 11.5518 13.2177 11.4002 13.0664C11.2486 12.915 11.1454 12.7222 11.1034 12.5121C11.0615 12.3021 11.0829 12.0843 11.1648 11.8864C11.2466 11.6885 11.3854 11.5194 11.5634 11.4003C11.7415 11.2813 11.9509 11.2178 12.165 11.2178C12.4518 11.2178 12.7269 11.3316 12.9299 11.5342C13.1329 11.7369 13.2471 12.0118 13.2476 12.2986Z" fill="white" fill-opacity="0.31"/>
<path d="M10.2115 21.1016C10.2115 21.2185 10.1768 21.3328 10.1119 21.43C10.0469 21.5272 9.9546 21.6029 9.84659 21.6477C9.73858 21.6924 9.61973 21.7041 9.50507 21.6813C9.39041 21.6585 9.28509 21.6022 9.20242 21.5196C9.11976 21.4369 9.06346 21.3316 9.04065 21.2169C9.01785 21.1022 9.02955 20.9834 9.07429 20.8754C9.11903 20.7674 9.19479 20.6751 9.292 20.6101C9.3892 20.5452 9.50348 20.5105 9.62039 20.5105C9.77716 20.5105 9.9275 20.5728 10.0384 20.6836C10.1492 20.7945 10.2115 20.9448 10.2115 21.1016Z" fill="white" fill-opacity="0.31"/>
<path d="M26.1485 21.1016C26.1485 21.2185 26.1138 21.3328 26.0489 21.43C25.9839 21.5272 25.8916 21.6029 25.7836 21.6477C25.6756 21.6924 25.5567 21.7041 25.4421 21.6813C25.3274 21.6585 25.2221 21.6022 25.1394 21.5196C25.0568 21.4369 25.0005 21.3316 24.9777 21.2169C24.9549 21.1022 24.9666 20.9834 25.0113 20.8754C25.056 20.7674 25.1318 20.6751 25.229 20.6101C25.3262 20.5452 25.4405 20.5105 25.5574 20.5105C25.7142 20.5105 25.8645 20.5728 25.9754 20.6836C26.0862 20.7945 26.1485 20.9448 26.1485 21.1016Z" fill="white" fill-opacity="0.31"/>
<path d="M24.3218 12.3088C24.3218 12.523 24.2583 12.7324 24.1392 12.9104C24.0202 13.0885 23.851 13.2272 23.6531 13.3091C23.4552 13.391 23.2375 13.4123 23.0274 13.3704C22.8174 13.3285 22.6245 13.2253 22.4732 13.0737C22.3219 12.9221 22.2189 12.7291 22.1773 12.519C22.1358 12.3089 22.1574 12.0912 22.2396 11.8934C22.3218 11.6956 22.4608 11.5267 22.6391 11.4079C22.8173 11.2892 23.0268 11.226 23.241 11.2263C23.3831 11.2263 23.5237 11.2543 23.655 11.3088C23.7862 11.3632 23.9054 11.4429 24.0058 11.5435C24.1062 11.644 24.1858 11.7634 24.24 11.8947C24.2942 12.026 24.322 12.1668 24.3218 12.3088Z" fill="white" fill-opacity="0.31"/>
<path d="M18.7407 24.9985C18.7407 25.2127 18.6772 25.4221 18.5582 25.6001C18.4391 25.7782 18.27 25.9169 18.0721 25.9988C17.8742 26.0807 17.6564 26.102 17.4464 26.0601C17.2363 26.0182 17.0435 25.915 16.8921 25.7634C16.7408 25.6118 16.6379 25.4188 16.5963 25.2087C16.5547 24.9986 16.5764 24.7809 16.6586 24.5831C16.7408 24.3853 16.8798 24.2164 17.058 24.0976C17.2363 23.9789 17.4457 23.9157 17.6599 23.916C17.802 23.916 17.9427 23.944 18.0739 23.9985C18.2052 24.0529 18.3244 24.1326 18.4248 24.2332C18.5252 24.3337 18.6047 24.4531 18.659 24.5844C18.7132 24.7157 18.741 24.8565 18.7407 24.9985Z" fill="white" fill-opacity="0.31"/>
</svg>
