<svg width="41" height="36" viewBox="0 0 41 36" fill="none" xmlns="http://www.w3.org/2000/svg">
<path d="M20.2854 0.000704815C23.3634 0.000704815 26.4414 0.000704815 29.5195 0.000704815C32.4749 0.000704815 34.963 1.05058 36.8531 3.3445C38.0113 4.75006 38.7914 6.38587 39.4151 8.08697C43.2074 18.3967 38.3618 29.6962 28.2153 33.9438C15.957 39.0729 2.4547 31.4042 0.311995 18.6819C-0.566051 13.4721 0.406501 8.61449 3.26402 4.16756C4.85859 1.66745 7.20062 0.225801 10.1664 0.0883375C13.2078 -0.0542804 16.2612 0.0247609 19.3094 0.000704815C19.6342 0.000704815 19.9606 0.000704815 20.2854 0.000704815ZM20.3524 1.50593C17.2474 1.50593 14.1425 1.49733 11.0358 1.50593C8.11475 1.51624 5.8466 2.76887 4.32076 5.26039C1.84299 9.31383 1.00103 13.6972 1.76051 18.3761C3.41522 28.5673 13.3521 35.6002 23.5158 33.7857C26.5314 33.2714 29.3766 32.0314 31.8063 30.1725C34.2359 28.3137 36.177 25.8919 37.4623 23.1158C38.7475 20.3397 39.3383 17.2927 39.1836 14.2375C39.029 11.1822 38.1337 8.21042 36.5748 5.57827C34.9836 2.86509 32.6468 1.49562 29.492 1.50936C26.4455 1.52311 23.3989 1.50936 20.3524 1.50936" fill="white" fill-opacity="0.31"/>
<path d="M20.3676 3.05249C23.0911 3.05249 25.8129 3.08685 28.5346 3.04389C31.4557 2.99922 33.5469 4.23467 34.9937 6.77086C40.8359 16.9878 34.7239 30.021 23.0997 31.8149C16.0547 32.9026 10.2349 30.4558 6.29999 24.4847C2.36511 18.5137 2.49398 12.2763 6.10754 6.14197C7.34814 4.03707 9.32074 3.06967 11.7573 3.06451C14.6268 3.06451 17.4981 3.06451 20.3676 3.06451V3.05249ZM21.3986 31.0606C26.4572 30.8492 31.241 28.2392 34.2136 22.8472C37.1862 17.4552 36.9044 12.0099 33.7651 6.73306C32.7187 4.97697 31.1001 4.06971 29.0467 4.06456C23.2492 4.04566 17.45 4.03535 11.6525 4.06456C9.57848 4.06971 7.96845 4.99931 6.87218 6.7932C5.01814 9.84832 4.21742 13.1509 4.54733 16.7112C5.29823 24.8421 12.1525 31.0778 21.3866 31.0554" fill="white" fill-opacity="0.31"/>
<path d="M14.9278 15.981C14.8989 16.912 14.5047 17.7943 13.8304 18.4371C13.1561 19.0798 12.2559 19.4312 11.3245 19.4154C10.3931 19.3996 9.50538 19.0178 8.85328 18.3526C8.20117 17.6874 7.83712 16.7922 7.83986 15.8607C7.85837 14.9186 8.24763 14.0218 8.92317 13.3649C9.59872 12.7081 10.506 12.3441 11.4483 12.3519C11.9158 12.3593 12.3772 12.4592 12.8058 12.6461C13.2344 12.8329 13.6217 13.1029 13.9453 13.4404C14.2689 13.7779 14.5224 14.1762 14.691 14.6123C14.8596 15.0484 14.9401 15.5136 14.9278 15.981ZM13.9174 15.883C13.9198 15.5509 13.8558 15.2217 13.7293 14.9147C13.6028 14.6076 13.4164 14.3289 13.1808 14.0948C12.9453 13.8607 12.6654 13.6759 12.3576 13.5513C12.0498 13.4267 11.7202 13.3648 11.3881 13.3692C10.8877 13.3695 10.3986 13.5184 9.98292 13.7969C9.56719 14.0755 9.2435 14.4712 9.05287 14.9339C8.86223 15.3966 8.81323 15.9054 8.91207 16.396C9.01091 16.8866 9.25315 17.3368 9.60808 17.6895C9.96302 18.0423 10.4147 18.2818 10.9058 18.3776C11.397 18.4734 11.9056 18.4213 12.3671 18.2278C12.8286 18.0344 13.2223 17.7083 13.4983 17.2908C13.7743 16.8734 13.9202 16.3834 13.9174 15.883Z" fill="white" fill-opacity="0.31"/>
<path d="M25.8887 15.8745C25.8873 15.4074 25.979 14.9447 26.1585 14.5134C26.338 14.0821 26.6017 13.691 26.9342 13.3629C27.2667 13.0347 27.6612 12.7761 28.0948 12.6023C28.5284 12.4284 28.9923 12.3428 29.4593 12.3503C30.1602 12.3554 30.8438 12.5682 31.4238 12.9617C32.0038 13.3552 32.4541 13.9118 32.7178 14.5612C32.9815 15.2105 33.0468 15.9235 32.9055 16.61C32.7641 17.2965 32.4225 17.9256 31.9236 18.418C31.4248 18.9103 30.7912 19.2437 30.103 19.3761C29.4147 19.5085 28.7027 19.4338 28.0568 19.1616C27.4109 18.8894 26.8603 18.4319 26.4744 17.8468C26.0885 17.2617 25.8847 16.5754 25.8887 15.8745ZM29.4147 18.4176C29.9142 18.4162 30.4021 18.2669 30.8169 17.9884C31.2316 17.7099 31.5545 17.3148 31.7448 16.8529C31.9351 16.391 31.9843 15.8831 31.8861 15.3933C31.7879 14.9035 31.5468 14.4538 31.1933 14.1009C30.8397 13.748 30.3894 13.5078 29.8994 13.4107C29.4094 13.3135 28.9016 13.3637 28.4401 13.555C27.9786 13.7462 27.5842 14.0699 27.3065 14.4852C27.0289 14.9005 26.8805 15.3887 26.8802 15.8883C26.88 16.2209 26.9454 16.5503 27.0727 16.8577C27.2001 17.165 27.3869 17.4441 27.6223 17.6791C27.8578 17.9141 28.1373 18.1003 28.4449 18.227C28.7524 18.3537 29.082 18.4185 29.4147 18.4176Z" fill="white" fill-opacity="0.31"/>
<path d="M25.0552 19.9707C25.5222 19.9772 25.9833 20.0757 26.4122 20.2607C26.8411 20.4456 27.2293 20.7134 27.5546 21.0485C27.8798 21.3837 28.1358 21.7797 28.3078 22.214C28.4798 22.6482 28.5645 23.1121 28.557 23.5791C28.5003 25.4916 26.88 27.0775 24.9967 27.0638C24.053 27.0547 23.1514 26.6721 22.4893 25.9996C21.8271 25.3272 21.4584 24.4197 21.4639 23.476C21.4656 23.009 21.5604 22.547 21.7425 22.1169C21.9247 21.6869 22.1907 21.2975 22.525 20.9713C22.8593 20.6452 23.2552 20.3889 23.6896 20.2174C24.124 20.0459 24.5882 19.9626 25.0552 19.9724M27.5346 23.476C27.5243 22.805 27.2499 22.165 26.771 21.6948C26.2921 21.2246 25.6473 20.962 24.9761 20.9639C23.6255 20.9536 22.464 22.1443 22.4708 23.531C22.4937 24.1919 22.7741 24.8178 23.2523 25.2747C23.7304 25.7316 24.3683 25.9833 25.0296 25.9762C25.6909 25.969 26.3232 25.7034 26.7913 25.2362C27.2594 24.769 27.5262 24.1373 27.5346 23.476Z" fill="white" fill-opacity="0.31"/>
<path d="M23.6345 15.8932C23.6372 16.36 23.5473 16.8227 23.3698 17.2545C23.1923 17.6862 22.9309 18.0784 22.6006 18.4083C22.2704 18.7383 21.8779 18.9993 21.446 19.1764C21.0141 19.3534 20.5513 19.443 20.0845 19.4398C19.1575 19.4274 18.2717 19.0542 17.6153 18.3994C16.9589 17.7446 16.5836 16.8598 16.5689 15.9327C16.5663 15.4688 16.6551 15.0089 16.8303 14.5793C17.0054 14.1497 17.2634 13.7588 17.5897 13.4289C18.2485 12.7627 19.145 12.3854 20.0819 12.3802C21.0189 12.3749 21.9196 12.7421 22.5858 13.4009C23.252 14.0598 23.6293 14.9563 23.6345 15.8932ZM20.1361 18.426C20.468 18.4224 20.796 18.3534 21.1012 18.2231C21.4065 18.0927 21.6831 17.9035 21.9153 17.6662C22.1475 17.429 22.3306 17.1483 22.4543 16.8403C22.578 16.5322 22.6398 16.2028 22.6362 15.8709C22.6326 15.539 22.5636 15.211 22.4333 14.9057C22.3029 14.6004 22.1137 14.3238 21.8764 14.0917C21.6392 13.8595 21.3585 13.6763 21.0504 13.5527C20.7424 13.429 20.413 13.3672 20.0811 13.3708C19.4107 13.3781 18.7707 13.6514 18.3019 14.1305C17.833 14.6097 17.5737 15.2555 17.581 15.9259C17.5883 16.5962 17.8616 17.2362 18.3407 17.7051C18.8199 18.174 19.4657 18.4333 20.1361 18.426Z" fill="white" fill-opacity="0.31"/>
<path d="M19.227 23.5741C19.227 25.4642 17.5981 27.0656 15.6908 27.0605C14.748 27.0518 13.8471 26.67 13.1853 25.9985C12.5234 25.327 12.1547 24.4206 12.1597 23.4778C12.1596 23.0109 12.2528 22.5487 12.4337 22.1183C12.6147 21.6879 12.8799 21.298 13.2136 20.9715C13.5473 20.6449 13.9429 20.3884 14.3772 20.2168C14.8114 20.0453 15.2756 19.9622 15.7424 19.9725C17.7149 19.9897 19.2305 21.5551 19.227 23.5809M15.6925 26.0329C16.3635 26.0294 17.0061 25.7618 17.4813 25.2882C17.9566 24.8145 18.2263 24.1728 18.2322 23.5019C18.2342 22.9988 18.0868 22.5063 17.8088 22.087C17.5307 21.6677 17.1344 21.3404 16.6701 21.1465C16.2058 20.9526 15.6944 20.9009 15.2007 20.9979C14.707 21.095 14.2532 21.3364 13.8969 21.6915C13.5405 22.0467 13.2976 22.4997 13.1989 22.993C13.1002 23.4864 13.1501 23.998 13.3424 24.4629C13.5347 24.9279 13.8607 25.3253 14.2791 25.6048C14.6975 25.8843 15.1894 26.0333 15.6925 26.0329Z" fill="white" fill-opacity="0.31"/>
<path d="M15.3692 12.2008C15.0428 12.1995 14.72 12.1331 14.4196 12.0054C14.1192 11.8777 13.8473 11.6913 13.6199 11.4572C13.3924 11.223 13.2141 10.9458 13.0952 10.6419C12.9763 10.3379 12.9193 10.0132 12.9275 9.6869C12.9397 9.02982 13.2101 8.40395 13.6803 7.94475C14.1504 7.48554 14.7825 7.22991 15.4397 7.23319C16.0965 7.25321 16.7198 7.52736 17.1785 7.99787C17.6371 8.46839 17.8953 9.09856 17.8985 9.75563C17.8859 10.4148 17.6127 11.0421 17.1387 11.5004C16.6647 11.9586 16.0284 12.2104 15.3692 12.2008ZM16.8676 9.67831C16.8615 9.48651 16.8177 9.29779 16.7386 9.12292C16.6596 8.94805 16.5469 8.79045 16.407 8.65914C16.2671 8.52782 16.1026 8.42535 15.9231 8.35758C15.7436 8.28981 15.5524 8.25807 15.3606 8.26416C15.1688 8.27025 14.9801 8.31406 14.8052 8.39309C14.6304 8.47212 14.4728 8.58482 14.3415 8.72475C14.2101 8.86468 14.1077 9.02911 14.0399 9.20864C13.9721 9.38817 13.9404 9.5793 13.9465 9.7711C13.9511 9.96208 13.9938 10.1502 14.0721 10.3245C14.1504 10.4987 14.2627 10.6556 14.4024 10.7859C14.5421 10.9162 14.7064 11.0172 14.8857 11.0832C15.065 11.1491 15.2557 11.1785 15.4466 11.1698C15.6384 11.1647 15.8273 11.1218 16.0026 11.0436C16.1778 10.9655 16.3359 10.8535 16.4679 10.7142C16.5999 10.5749 16.7031 10.411 16.7717 10.2317C16.8402 10.0525 16.8728 9.86154 16.8676 9.66972" fill="white" fill-opacity="0.31"/>
<path d="M24.8094 12.2006C24.4839 12.1986 24.1619 12.1321 23.8622 12.005C23.5624 11.878 23.2908 11.6928 23.063 11.4602C22.8352 11.2276 22.6557 10.9522 22.5349 10.6499C22.4141 10.3476 22.3544 10.0243 22.3592 9.69876C22.3674 9.04071 22.6366 8.41286 23.1078 7.95334C23.5789 7.49383 24.2132 7.24028 24.8713 7.24848C25.5293 7.25669 26.1572 7.52597 26.6167 7.99708C27.0762 8.4682 27.3298 9.10256 27.3216 9.76062C27.3187 10.0863 27.2512 10.4082 27.123 10.7077C26.9949 11.0071 26.8086 11.2782 26.5749 11.5051C26.3413 11.732 26.0649 11.9104 25.7619 12.0297C25.4588 12.1491 25.1351 12.2072 24.8094 12.2006ZM26.2992 9.73657C26.2983 9.34957 26.1451 8.97847 25.8728 8.70354C25.6004 8.42861 25.2308 8.27194 24.8438 8.26743C24.6519 8.26652 24.4618 8.30348 24.2842 8.37617C24.1066 8.44886 23.9452 8.55587 23.809 8.69106C23.6729 8.82625 23.5647 8.98697 23.4908 9.16402C23.4168 9.34106 23.3785 9.53095 23.3781 9.72282C23.3763 10.1102 23.5284 10.4824 23.801 10.7576C24.0736 11.0328 24.4444 11.1884 24.8318 11.1902C25.2191 11.1921 25.5913 11.0399 25.8665 10.7673C26.1417 10.4947 26.2974 10.1239 26.2992 9.73657Z" fill="white" fill-opacity="0.31"/>
</svg>
