<svg width="33" height="46" viewBox="0 0 33 46" fill="none" xmlns="http://www.w3.org/2000/svg">
<g clip-path="url(#clip0_1308_813)">
<mask id="mask0_1308_813" style="mask-type:luminance" maskUnits="userSpaceOnUse" x="0" y="0" width="33" height="46">
<path d="M33 0H0V46H33V0Z" fill="white"/>
</mask>
<g mask="url(#mask0_1308_813)">
<path d="M24.3117 0H2.88312C1.46382 0 0 0.903194 0 2.41804V39.8148C0.0946197 41.404 1.33581 42.673 2.88312 42.7702H15.4508V41.6955H2.88312C1.91466 41.5984 1.14657 40.8095 1.04638 39.8148V2.41804C1.04638 1.57773 1.98145 1.07469 2.88312 1.07469H23.8998L24.1169 1.29763V6.85398C24.1169 8.11731 25.1132 9.14055 26.3432 9.14055H31.7532L31.9703 9.36349V39.8148C31.9703 40.7409 31.4805 41.6955 30.6623 41.6955H28.0241V42.7702H30.6456C32.1206 42.7702 33 41.2668 33 39.8148V8.94619L24.3117 0Z" fill="white"/>
</g>
<mask id="mask1_1308_813" style="mask-type:luminance" maskUnits="userSpaceOnUse" x="0" y="0" width="33" height="46">
<path d="M33 0H0V46H33V0Z" fill="white"/>
</mask>
<g mask="url(#mask1_1308_813)">
<path d="M6.62334 10.2668C8.09273 10.2668 9.256 9.65514 9.256 8.03168C9.256 6.40822 7.89236 5.91089 6.40628 5.91089H4.67529V12.9249H6.03336V10.2611H6.62334V10.2668ZM6.0278 7.01987H6.50646C7.21333 7.01987 7.80887 7.29998 7.80887 8.11171C7.80887 8.92344 7.21333 9.15781 6.50646 9.15781H6.0278V7.01987Z" fill="#AACF37"/>
</g>
<mask id="mask2_1308_813" style="mask-type:luminance" maskUnits="userSpaceOnUse" x="0" y="0" width="33" height="46">
<path d="M33 0H0V46H33V0Z" fill="white"/>
</mask>
<g mask="url(#mask2_1308_813)">
<path d="M16.052 9.42077C16.052 6.63687 14.2041 5.91089 12.1058 5.91089H10.2412V12.9249H12.1058C14.2041 12.9306 16.052 12.2104 16.052 9.42077ZM12.3729 11.8217H11.6048V7.01416H12.3729C13.6086 7.00844 14.616 8.02596 14.6215 9.29501C14.6215 9.33502 14.6215 9.37504 14.6215 9.42077C14.6772 10.6898 13.7199 11.7588 12.4898 11.8159C12.4509 11.8217 12.4119 11.8217 12.3729 11.8217Z" fill="#AACF37"/>
</g>
<mask id="mask3_1308_813" style="mask-type:luminance" maskUnits="userSpaceOnUse" x="0" y="0" width="33" height="46">
<path d="M33 0H0V46H33V0Z" fill="white"/>
</mask>
<g mask="url(#mask3_1308_813)">
<path d="M17.3101 12.9306H18.6793V9.8495H20.9891V8.74623H18.6793V7.01987H21.106V5.91089H17.3101V12.9306Z" fill="#AACF37"/>
</g>
<mask id="mask4_1308_813" style="mask-type:luminance" maskUnits="userSpaceOnUse" x="0" y="0" width="33" height="46">
<path d="M33 0H0V46H33V0Z" fill="white"/>
</mask>
<g mask="url(#mask4_1308_813)">
<path d="M29.0705 17.4866H18.334V24.7521H29.0705V17.4866Z" fill="white"/>
</g>
<mask id="mask5_1308_813" style="mask-type:luminance" maskUnits="userSpaceOnUse" x="0" y="0" width="33" height="46">
<path d="M33 0H0V46H33V0Z" fill="white"/>
</mask>
<g mask="url(#mask5_1308_813)">
<path d="M15.4509 17.4866H4.71436V19.0986H15.4509V17.4866Z" fill="white"/>
</g>
<mask id="mask6_1308_813" style="mask-type:luminance" maskUnits="userSpaceOnUse" x="0" y="0" width="33" height="46">
<path d="M33 0H0V46H33V0Z" fill="white"/>
</mask>
<g mask="url(#mask6_1308_813)">
<path d="M15.4509 21.5222H4.71436V23.1342H15.4509V21.5222Z" fill="white"/>
</g>
<mask id="mask7_1308_813" style="mask-type:luminance" maskUnits="userSpaceOnUse" x="0" y="0" width="33" height="46">
<path d="M33 0H0V46H33V0Z" fill="white"/>
</mask>
<g mask="url(#mask7_1308_813)">
<path d="M15.4509 25.2893H4.71436V26.9013H15.4509V25.2893Z" fill="white"/>
</g>
<mask id="mask8_1308_813" style="mask-type:luminance" maskUnits="userSpaceOnUse" x="0" y="0" width="33" height="46">
<path d="M33 0H0V46H33V0Z" fill="white"/>
</mask>
<g mask="url(#mask8_1308_813)">
<path d="M15.4509 29.3196H4.71436V30.9316H15.4509V29.3196Z" fill="white"/>
</g>
<mask id="mask9_1308_813" style="mask-type:luminance" maskUnits="userSpaceOnUse" x="0" y="0" width="33" height="46">
<path d="M33 0H0V46H33V0Z" fill="white"/>
</mask>
<g mask="url(#mask9_1308_813)">
<path d="M15.4509 33.0867H4.71436V34.6987H15.4509V33.0867Z" fill="white"/>
</g>
<mask id="mask10_1308_813" style="mask-type:luminance" maskUnits="userSpaceOnUse" x="0" y="0" width="33" height="46">
<path d="M33 0H0V46H33V0Z" fill="white"/>
</mask>
<g mask="url(#mask10_1308_813)">
<path d="M28.2859 37.9285H24.362V29.3196H18.3342V37.9285H15.1895L21.4789 46.0001L28.2859 37.9285Z" fill="#AACF37"/>
</g>
</g>
<defs>
<clipPath id="clip0_1308_813">
<rect width="33" height="46" fill="white"/>
</clipPath>
</defs>
</svg>
