<svg width="15" height="15" viewBox="0 0 15 15" fill="none" xmlns="http://www.w3.org/2000/svg">
<path d="M13.5383 14.272C13.2386 14.7295 12.718 14.9977 12.1658 14.9662C11.6136 14.9346 10.9037 14.8557 10.4147 14.7295C8.23762 14.1616 5.98168 12.8049 4.07281 10.896C2.16394 8.98714 0.807209 6.73119 0.23928 4.55413C0.113074 4.06508 0.0499703 3.37095 0.00264292 2.81879C-0.0289087 2.28241 0.223512 1.76182 0.68101 1.46208L2.62143 0.168458C3.12626 -0.162834 3.80462 0.0106945 4.07281 0.547072L5.65039 3.59181C5.87125 4.01776 5.76082 4.55414 5.3822 4.85388L3.96238 5.95818C4.53031 7.01516 5.06668 7.86705 6.10788 8.89248C7.07021 9.8548 7.90632 10.4227 8.99485 11.0064L10.1149 9.57084C10.4147 9.19222 10.9511 9.06601 11.377 9.30265L14.4375 10.8802C14.9739 11.1484 15.1474 11.8268 14.8161 12.3316L13.5383 14.272Z" fill="#9AC31C"/>
</svg>
