<svg width="33" height="33" viewBox="0 0 33 33" fill="none" xmlns="http://www.w3.org/2000/svg">
<path d="M0.22076 16.2915C0.19715 7.35094 7.4771 0.039509 16.4334 0.000157934C25.4055 -0.0391931 32.7641 7.28011 32.7798 16.26C32.7956 25.1612 25.4842 32.5356 16.638 32.5435C7.53219 32.5514 0.244371 25.3344 0.22076 16.2915ZM31.3396 16.3545C31.4655 8.27962 24.8152 1.50337 16.5672 1.44041C8.65764 1.37745 1.81841 7.6264 1.64527 16.1184C1.47999 24.1775 8.1382 30.9931 16.2524 31.119C24.5161 31.2371 31.2058 24.689 31.3396 16.3545Z" fill="#63646B"/>
<path d="M16.5674 4.02179C23.3673 4.06901 28.8292 9.61751 28.7662 16.4095C28.6954 23.1622 23.1784 28.5611 16.3943 28.5296C9.66522 28.4903 4.1482 22.9024 4.22691 16.1891C4.30561 9.42076 9.82263 3.97457 16.5674 4.02179ZM16.4257 27.5773C22.6275 27.6246 27.7352 22.564 27.8061 16.2993C27.869 10.2078 22.7613 5.02918 16.6461 4.98196C10.3893 4.92686 5.26577 9.93232 5.19494 16.1655C5.12411 22.383 10.1925 27.5301 16.4257 27.5773Z" fill="#63646B"/>
<path d="M21.3051 11.4198C23.9967 11.4355 26.1847 13.647 26.1453 16.3308C26.1138 19.0145 23.8944 21.1788 21.2028 21.1473C18.582 21.1159 16.3862 18.8965 16.3862 16.2757C16.3941 13.6077 18.6292 11.404 21.3051 11.4198ZM21.2107 20.1557C23.3514 20.1951 25.1379 18.4793 25.1773 16.3386C25.2166 14.2058 23.4694 12.3957 21.3523 12.3799C19.1802 12.3642 17.433 14.0563 17.4015 16.2049C17.3621 18.377 19.0464 20.1163 21.2107 20.1557Z" fill="#63646B"/>
<path d="M11.4357 11.4199C14.1194 11.4278 16.3467 13.6472 16.3152 16.2995C16.2837 18.9753 14.0643 21.1554 11.3806 21.1318C8.7362 21.1082 6.55615 18.9202 6.55615 16.2837C6.56402 13.5921 8.74407 11.4199 11.4357 11.4199ZM15.3157 16.3073C15.3236 14.1194 13.5528 12.3565 11.3727 12.3722C9.29498 12.388 7.55567 14.1509 7.53993 16.2522C7.53206 18.4087 9.25563 20.1559 11.4042 20.1716C13.5606 20.1795 15.3078 18.4559 15.3157 16.3073Z" fill="#63646B"/>
<path d="M16.4725 8.96433C16.9526 8.36619 17.3776 7.83889 17.9049 7.16992C18.204 7.50834 18.3771 7.71297 18.6053 7.97269C18.0623 8.53147 17.5743 9.02729 17.0392 9.57821C17.5665 10.1213 18.0544 10.6171 18.6526 11.231C18.4007 11.4435 18.1882 11.6166 17.9285 11.837C17.3933 11.3175 16.8896 10.8374 16.3466 10.3023C15.8193 10.806 15.3313 11.2703 14.7883 11.7897C14.5758 11.6087 14.379 11.4277 14.0957 11.1837C14.6073 10.6407 15.0873 10.137 15.6068 9.58608C15.111 9.06664 14.6309 8.55508 14.1272 8.01991C14.3161 7.7838 14.4735 7.59491 14.7017 7.31159C15.2605 7.83889 15.7799 8.32684 16.4725 8.96433Z" fill="#63646B"/>
<path d="M17.0236 23.0207C17.5824 23.4771 18.1097 23.9021 18.7079 24.3901C18.3773 24.76 18.1805 24.9725 17.9523 25.2243C17.3935 24.697 16.8898 24.2091 16.2051 23.5637C15.7565 24.154 15.3315 24.7206 14.8593 25.3424C14.4973 25.0197 14.2927 24.8466 14.0408 24.6183C14.6311 24.0044 15.119 23.5086 15.6857 22.9184C15.1112 22.4461 14.5917 22.0133 14.0015 21.5253C14.3163 21.1869 14.513 20.9744 14.8357 20.636C15.3079 21.2341 15.725 21.7614 16.1973 22.3674C16.8584 21.7614 17.362 21.2892 17.9208 20.7698C18.1333 20.9744 18.3301 21.1554 18.5898 21.3994C18.0704 21.9267 17.5903 22.4304 17.0236 23.0207Z" fill="#63646B"/>
<path d="M19.1486 16.2442C19.1644 15.103 20.156 14.1428 21.2893 14.1507C22.4699 14.1586 23.4536 15.1817 23.4064 16.3465C23.3592 17.4955 22.3754 18.4242 21.2264 18.3927C20.0852 18.3691 19.1329 17.3853 19.1486 16.2442Z" fill="#63646B"/>
<path d="M13.5528 16.2992C13.5449 17.4483 12.5769 18.4085 11.4357 18.4006C10.2788 18.3927 9.32648 17.4562 9.31074 16.2992C9.295 15.1423 10.2394 14.1664 11.3806 14.1507C12.5769 14.1428 13.5607 15.1108 13.5528 16.2992Z" fill="#63646B"/>
</svg>
