<svg width="28" height="39" viewBox="0 0 28 39" fill="none" xmlns="http://www.w3.org/2000/svg">
<path d="M14.3331 24.016C7.97942 24.0718 2.54669 20.0345 1.10479 14.1366C-0.113856 9.15041 1.29084 4.86191 5.08631 1.39203C6.08169 0.489675 7.30963 0.0338453 8.64921 0.0245427C12.2958 -0.00336514 15.9425 -0.0126678 19.5891 0.0245427C21.1333 0.043148 22.4543 0.685028 23.5706 1.76413C30.0266 8.01549 28.3987 18.5554 20.1286 22.6485C18.2495 23.5788 16.2401 24.0346 14.3331 24.016ZM14.175 1.13155C12.4633 1.13155 10.7609 1.13155 9.04922 1.13155C7.66313 1.14086 6.48169 1.62459 5.4677 2.57346C1.37455 6.40614 0.611745 12.9087 3.84906 17.4856C6.89101 21.7834 11.1516 23.5043 16.3053 22.6578C20.4821 21.9787 23.6357 19.6345 25.3474 15.7274C27.3754 11.104 26.5381 6.83406 23.2357 3.03859C22.1101 1.74553 20.6961 1.09434 18.9658 1.12225C17.3658 1.15946 15.7657 1.13155 14.175 1.13155Z" fill="#63646B"/>
<path d="M13.5795 38.4816C11.3934 38.4816 9.198 38.4816 7.01188 38.4816C3.32804 38.4723 0.3326 35.7373 0.0349163 32.1186C-0.262767 28.5092 2.27686 25.2905 5.88627 24.7044C6.31419 24.6393 6.75141 24.6207 7.17934 24.6207C11.4399 24.6114 15.7098 24.6393 19.9704 24.6114C23.3473 24.5835 25.7846 26.6579 26.7148 29.0673C28.4451 33.5326 25.1427 38.4444 20.3518 38.4816C18.0913 38.4909 15.8401 38.4816 13.5795 38.4816ZM13.5888 25.7556C11.4027 25.7556 9.20731 25.7556 7.02119 25.7556C6.95607 25.7556 6.88165 25.7556 6.81653 25.7556C3.65364 25.8672 1.13262 28.4534 1.15123 31.5511C1.16983 34.6489 3.65364 37.2815 6.75141 37.3187C11.3097 37.3746 15.8773 37.3932 20.4356 37.3187C24.4543 37.2536 27.1427 33.0488 25.5706 29.3557C24.5659 27.0021 22.6961 25.8207 20.1565 25.7649C17.9704 25.7184 15.7843 25.7556 13.5888 25.7556Z" fill="#63646B"/>
<path d="M14.1377 3.16895C16.054 3.16895 17.9703 3.16895 19.8867 3.16895C20.6309 3.16895 21.2449 3.39221 21.7844 3.93176C26.1287 8.3226 25.552 15.4019 20.5379 19.1694C14.4819 23.7184 5.51413 20.5462 3.81175 13.2158C2.99312 9.67147 3.9792 6.5458 6.48161 3.91315C6.95604 3.41081 7.5514 3.16894 8.2584 3.17825C10.2119 3.17825 12.1748 3.17825 14.1377 3.16895ZM14.119 3.95037C12.2306 3.95037 10.3329 3.95036 8.44446 3.94106C7.89561 3.94106 7.40257 4.03409 7.02116 4.4527C4.52806 7.17837 3.635 10.3134 4.80713 13.8577C6.64905 19.4206 13.0958 22.0626 18.4355 19.523C24.324 16.7229 25.7659 9.21565 21.31 4.54573C20.8914 4.10851 20.4355 3.94106 19.8588 3.94106C17.9424 3.95967 16.0261 3.95037 14.119 3.95037Z" fill="#63646B"/>
<path d="M13.6261 26.2765C15.8588 26.2765 18.0914 26.2393 20.324 26.2858C24.2776 26.3603 26.7428 30.6209 24.8358 34.0721C23.8683 35.821 22.3334 36.7978 20.3333 36.8164C15.8402 36.8629 11.347 36.8629 6.86314 36.8164C3.97933 36.7885 1.7002 34.407 1.7002 31.5139C1.7002 28.658 4.03515 26.3044 6.92826 26.2765C9.16089 26.2579 11.3935 26.2765 13.6261 26.2765ZM13.5145 36.0536C15.682 36.0629 17.8402 36.0629 20.0077 36.0629C20.8171 36.0629 21.5985 35.9234 22.3148 35.5327C24.1567 34.5373 25.0684 32.4907 24.5846 30.4999C24.0823 28.4534 22.3241 27.0487 20.138 27.0394C15.7657 27.0208 11.3935 27.0208 7.01198 27.0487C4.42585 27.0673 2.4537 29.0952 2.48161 31.6255C2.50952 34.1 4.51888 36.0443 7.08641 36.0536C9.23531 36.0536 11.3749 36.0536 13.5145 36.0536Z" fill="#63646B"/>
<path d="M7.93267 16.3598C7.93267 14.8342 9.142 13.6156 10.6583 13.6063C12.1561 13.597 13.4119 14.8342 13.4212 16.3412C13.4305 17.8855 12.184 19.1413 10.649 19.1227C9.1234 19.0948 7.92337 17.8855 7.93267 16.3598ZM12.6305 16.3877C12.6398 15.2714 11.756 14.3784 10.6583 14.397C9.58853 14.4063 8.70478 15.2807 8.69548 16.3505C8.68618 17.4296 9.60713 18.3692 10.6862 18.3599C11.756 18.332 12.6305 17.4668 12.6305 16.3877Z" fill="#63646B"/>
<path d="M10.3141 10.676C10.2769 12.2109 9.03964 13.3924 7.52331 13.3552C5.96978 13.3179 4.76974 12.0435 4.81625 10.5086C4.86276 9.02944 6.17443 7.79219 7.65355 7.84801C9.16988 7.91313 10.3513 9.16898 10.3141 10.676ZM7.54192 12.5923C8.58382 12.6109 9.51407 11.7272 9.55128 10.676C9.59779 9.6062 8.68614 8.65734 7.59774 8.63873C6.51863 8.62012 5.63488 9.47597 5.59767 10.5458C5.57906 11.6435 6.45352 12.5737 7.54192 12.5923Z" fill="#63646B"/>
<path d="M16.7331 10.6482C16.6959 12.2111 15.44 13.4111 13.8958 13.3646C12.3887 13.3181 11.198 12.0529 11.2352 10.5459C11.2724 9.04819 12.5562 7.82024 14.0353 7.86676C15.5702 7.89467 16.7703 9.14122 16.7331 10.6482ZM14.0074 8.63888C12.9376 8.62957 12.0445 9.49472 12.0259 10.5645C11.998 11.6622 12.8911 12.5832 13.9795 12.5925C15.0307 12.6018 15.9609 11.6994 15.9796 10.6668C15.9889 9.55984 15.0958 8.64818 14.0074 8.63888Z" fill="#63646B"/>
<path d="M23.3193 10.6014C23.3193 12.1271 22.1193 13.3457 20.603 13.355C19.0494 13.3643 17.8029 12.1271 17.8215 10.5921C17.8308 9.08512 19.068 7.85718 20.5751 7.85718C22.0821 7.85718 23.3193 9.09442 23.3193 10.6014ZM20.5472 12.5922C21.617 12.6108 22.5658 11.6806 22.5658 10.6108C22.5658 9.55956 21.6728 8.6572 20.6123 8.63859C19.5053 8.61999 18.6122 9.50374 18.6122 10.6108C18.6029 11.6713 19.496 12.5736 20.5472 12.5922Z" fill="#63646B"/>
<path d="M17.5051 19.1137C15.9981 19.0486 14.8073 17.7741 14.8539 16.2764C14.9097 14.788 16.2027 13.5507 17.6725 13.6066C19.1889 13.6624 20.4075 14.9368 20.361 16.4159C20.3238 17.9602 19.0214 19.1788 17.5051 19.1137ZM17.6353 14.3973C16.5748 14.388 15.6539 15.2531 15.626 16.3043C15.5981 17.3927 16.4818 18.323 17.5795 18.3509C18.6493 18.3788 19.5889 17.4485 19.5889 16.3694C19.5796 15.3089 18.6865 14.4066 17.6353 14.3973Z" fill="#63646B"/>
<path d="M10.5006 4.24811C11.496 4.25742 12.3239 5.10395 12.3053 6.09003C12.2867 7.08541 11.4495 7.87614 10.4355 7.85753C9.468 7.83893 8.66797 7.02029 8.66797 6.05282C8.66797 5.04814 9.4959 4.22951 10.5006 4.24811ZM10.4634 7.06681C11.0029 7.08541 11.4867 6.63888 11.5146 6.09933C11.5425 5.54118 11.0681 5.02023 10.5099 5.01093C9.98895 5.00163 9.4866 5.46676 9.4587 5.9877C9.43079 6.55516 9.88662 7.0482 10.4634 7.06681Z" fill="#63646B"/>
<path d="M17.2077 7.84799C16.1844 7.85729 15.3565 7.04797 15.3658 6.04328C15.3658 5.0572 16.1565 4.25718 17.1426 4.24788C18.1659 4.22927 18.9752 5.0293 18.9845 6.05258C18.9938 7.02006 18.1845 7.83869 17.2077 7.84799ZM17.124 7.06657C17.7008 7.08517 18.1938 6.61074 18.1938 6.05258C18.1938 5.53164 17.7287 5.0386 17.2077 5.01069C16.6589 4.98278 16.1472 5.48513 16.1379 6.04328C16.1379 6.58283 16.5845 7.04796 17.124 7.06657Z" fill="#63646B"/>
<path d="M19.0958 35.8674C16.7422 35.8767 14.8166 33.979 14.8073 31.6347C14.7887 29.2812 16.6771 27.3555 19.0213 27.3462C21.4307 27.3369 23.3564 29.2254 23.3471 31.5975C23.3471 33.9418 21.44 35.8581 19.0958 35.8674ZM15.598 31.5696C15.5794 33.5046 17.105 35.0581 19.04 35.0767C20.9935 35.1046 22.5843 33.5325 22.5843 31.5882C22.5843 29.6905 20.9935 28.0997 19.1051 28.0997C17.1701 28.109 15.6073 29.6533 15.598 31.5696Z" fill="#63646B"/>
<path d="M3.81201 31.5882C3.81201 29.2253 5.69115 27.3462 8.06332 27.3462C10.4355 27.3462 12.3239 29.216 12.3332 31.5696C12.3425 33.9604 10.4355 35.8674 8.04471 35.8581C5.69114 35.8581 3.82131 33.9604 3.81201 31.5882ZM8.03541 35.0767C9.99826 35.086 11.5704 33.5324 11.5611 31.5789C11.5518 29.6718 9.98895 28.109 8.07261 28.0997C6.17488 28.0904 4.59344 29.6625 4.57483 31.5696C4.54693 33.4673 6.12837 35.0674 8.03541 35.0767Z" fill="#63646B"/>
<path d="M10.6772 17.1504C10.2306 17.1504 9.89574 16.8342 9.87713 16.3876C9.85853 15.9318 10.2306 15.569 10.6958 15.5783C11.1237 15.5876 11.4772 15.9597 11.4679 16.3783C11.4586 16.8062 11.1051 17.1504 10.6772 17.1504Z" fill="#63646B"/>
<path d="M7.55147 11.4015C7.13285 11.3922 6.76074 11.0387 6.76074 10.6293C6.76074 10.1921 7.15147 9.80141 7.58869 9.81071C8.00731 9.82001 8.3515 10.1642 8.37011 10.5921C8.37941 11.0387 8.0073 11.4108 7.55147 11.4015Z" fill="#63646B"/>
<path d="M13.9701 11.4015C13.5143 11.3922 13.1701 11.0108 13.1887 10.5549C13.2073 10.1549 13.6073 9.80142 14.0073 9.81073C14.426 9.82933 14.7795 10.1828 14.7888 10.6014C14.7981 11.048 14.4353 11.4108 13.9701 11.4015Z" fill="#63646B"/>
<path d="M20.5005 11.4015C20.0539 11.355 19.7283 10.9457 19.7935 10.4992C19.8493 10.0806 20.2493 9.77358 20.6679 9.82009C21.1051 9.8666 21.4028 10.2201 21.3749 10.6573C21.3377 11.1131 20.9563 11.448 20.5005 11.4015Z" fill="#63646B"/>
<path d="M18.3983 16.3505C18.3983 16.8249 18.0262 17.1784 17.5704 17.1598C17.1332 17.1412 16.8169 16.7877 16.8169 16.3412C16.8262 15.9133 17.1797 15.5691 17.6169 15.5691C18.0448 15.5691 18.3983 15.9226 18.3983 16.3505Z" fill="#63646B"/>
<path d="M10.5095 6.50851C10.2304 6.48991 10.0258 6.36897 10.0165 6.06199C10.0072 5.7643 10.1839 5.58755 10.4723 5.57825C10.7607 5.56895 10.9467 5.73639 10.9653 6.02477C10.9653 6.31316 10.7979 6.4806 10.5095 6.50851Z" fill="#63646B"/>
<path d="M17.6539 6.01547C17.6353 6.30385 17.4957 6.4806 17.1981 6.49921C16.9097 6.51781 16.7236 6.37827 16.705 6.07129C16.6864 5.7736 16.8539 5.60616 17.1422 5.57825C17.4306 5.56895 17.5981 5.73639 17.6539 6.01547Z" fill="#63646B"/>
<path d="M19.0494 29.9325C19.9983 29.9232 20.7611 30.6674 20.7518 31.5976C20.7425 32.5 20.0076 33.2535 19.1145 33.2721C18.1936 33.2907 17.4028 32.5093 17.4028 31.5976C17.4028 30.6953 18.147 29.9418 19.0494 29.9325Z" fill="#63646B"/>
<path d="M9.73741 31.5699C9.74671 32.4909 8.9839 33.2723 8.06294 33.2816C7.17919 33.2816 6.42567 32.5374 6.39776 31.6257C6.36055 30.7141 7.14198 29.9233 8.08155 29.9233C8.9746 29.9233 9.72811 30.6675 9.73741 31.5699Z" fill="#63646B"/>
</svg>
