<svg width="32" height="32" viewBox="0 0 32 32" fill="none" xmlns="http://www.w3.org/2000/svg">
<path d="M0.150903 15.7479C0.166067 7.03615 7.2098 0 15.9216 0C24.5803 0 31.6619 7.08923 31.6392 15.7252C31.6165 24.4521 24.55 31.5186 15.8761 31.4807C7.19464 31.4504 0.135739 24.3915 0.150903 15.7479ZM30.6156 15.7479C30.5701 7.56689 23.951 0.970503 15.8458 1.02358C7.67989 1.07665 1.13657 7.70338 1.19723 15.8465C1.2503 23.9138 7.84669 30.442 15.8913 30.442C23.8752 30.442 30.555 24.0275 30.6156 15.7479Z" fill="#63646B"/>
<path d="M15.9145 2.84299C17.6508 2.84299 19.387 2.82783 21.1233 2.85057C21.4569 2.85815 21.8133 2.94156 22.1166 3.08562C29.2361 6.62644 32.1022 15.1487 28.4021 22.1848C25.8166 27.1056 21.5934 29.6759 16.0054 29.8048C9.54553 29.9564 3.67702 25.392 2.15302 18.8942C0.735178 12.8589 3.6012 6.38381 9.0527 3.3889C9.75025 3.00221 10.4478 2.78991 11.2591 2.82024C12.8058 2.8809 14.3601 2.84299 15.9145 2.84299ZM2.45631 15.6263C2.50938 16.2708 2.50938 16.8698 2.60036 17.446C3.44956 22.7686 6.36107 26.5293 11.4259 28.3339C16.5514 30.1612 21.275 29.0845 25.2101 25.3314C31.8747 18.9852 30.1232 7.85473 21.8815 3.75284C21.6389 3.63152 21.3356 3.5557 21.0627 3.5557C17.6053 3.54054 14.1554 3.54054 10.698 3.5557C10.4251 3.5557 10.1293 3.63152 9.88672 3.76042C5.13277 6.30041 2.73684 10.3265 2.45631 15.6263Z" fill="#63646B"/>
<path d="M22.3968 20.1077C19.9175 20.1153 17.9007 18.1212 17.8931 15.6495C17.8855 13.2005 19.8796 11.1685 22.3058 11.1609C24.7928 11.1533 26.8248 13.1322 26.8399 15.5964C26.8627 18.0682 24.861 20.1002 22.3968 20.1077ZM22.3286 11.866C20.2435 11.8812 18.5755 13.5796 18.5906 15.6722C18.6058 17.7194 20.3042 19.4102 22.3438 19.4178C24.4364 19.4178 26.1424 17.7346 26.1424 15.6646C26.1348 13.5265 24.4516 11.8509 22.3286 11.866Z" fill="#63646B"/>
<path d="M14.0109 15.6417C14.0261 18.1058 12.0092 20.1151 9.52232 20.1075C7.08848 20.1075 5.08682 18.1059 5.05649 15.6568C5.02616 13.2078 7.05815 11.1683 9.5299 11.1531C12.0017 11.1455 13.9957 13.1472 14.0109 15.6417ZM9.56023 19.4175C11.6226 19.41 13.3513 17.6585 13.3285 15.6113C13.3058 13.5339 11.5922 11.8506 9.51474 11.8658C7.42967 11.881 5.74646 13.5794 5.76162 15.6644C5.7692 17.7343 7.48275 19.4251 9.56023 19.4175Z" fill="#63646B"/>
<path d="M18.4088 22.7842C18.3937 24.0959 17.317 25.1422 16.0053 25.1194C14.724 25.0891 13.6701 24.02 13.6852 22.7538C13.7004 21.4346 14.7695 20.3731 16.066 20.3807C17.3777 20.3882 18.4164 21.4573 18.4088 22.7842ZM17.7189 22.7614C17.7189 21.8364 16.9683 21.0782 16.0508 21.0782C15.141 21.0782 14.3752 21.8516 14.3752 22.769C14.3752 23.6485 15.1334 24.3991 16.0281 24.4067C16.9607 24.4219 17.7189 23.6864 17.7189 22.7614Z" fill="#63646B"/>
<path d="M22.0935 7.63533C22.0632 8.62858 21.2595 9.40953 20.2738 9.39437C19.273 9.3792 18.4617 8.51485 18.5072 7.51401C18.5527 6.53593 19.4019 5.73981 20.3648 5.7853C21.3581 5.8308 22.1238 6.64966 22.0935 7.63533ZM21.4111 7.57467C21.4035 6.99085 20.8955 6.49044 20.3117 6.49044C19.6976 6.49044 19.1972 7.0136 19.2199 7.63533C19.2427 8.22673 19.7431 8.7044 20.3421 8.68924C20.9107 8.67407 21.4187 8.15091 21.4111 7.57467Z" fill="#63646B"/>
<path d="M23.0107 22.9133C23.0031 23.8838 22.1842 24.6799 21.191 24.6723C20.1977 24.6647 19.4092 23.8686 19.4092 22.8829C19.4092 21.9124 20.2205 21.0936 21.191 21.086C22.1918 21.0784 23.0258 21.9124 23.0107 22.9133ZM21.2061 23.9899C21.7824 23.9899 22.2979 23.4819 22.3131 22.9057C22.3283 22.3294 21.8279 21.8063 21.244 21.7911C20.6299 21.776 20.0991 22.284 20.1067 22.8905C20.1143 23.4592 20.6451 23.9899 21.2061 23.9899Z" fill="#63646B"/>
<path d="M13.3891 7.63499C13.3739 8.60549 12.5247 9.42435 11.5694 9.39403C10.5762 9.3637 9.79521 8.56 9.80279 7.57433C9.81037 6.60383 10.6368 5.77738 11.5997 5.78496C12.6082 5.78496 13.4043 6.61141 13.3891 7.63499ZM12.6991 7.58191C12.6916 6.9981 12.1836 6.4901 11.6073 6.4901C10.9932 6.4901 10.4928 7.00568 10.5079 7.6274C10.5231 8.22639 11.0159 8.69648 11.6149 8.68889C12.1987 8.68131 12.7067 8.15815 12.6991 7.58191Z" fill="#63646B"/>
<path d="M17.8099 11.7823C17.8099 12.7755 17.0214 13.5868 16.0433 13.5868C15.0652 13.5868 14.2463 12.7907 14.2236 11.8202C14.2009 10.8194 15.0273 9.99292 16.0357 9.99292C17.0441 9.99292 17.8099 10.7739 17.8099 11.7823ZM17.1351 11.7974C17.1427 11.2212 16.6271 10.6905 16.0585 10.6753C15.4443 10.6601 14.9363 11.1681 14.9363 11.7974C14.9363 12.3888 15.4292 12.8741 16.0281 12.8741C16.6195 12.8741 17.1275 12.3813 17.1351 11.7974Z" fill="#63646B"/>
<path d="M8.91594 22.8221C8.93868 21.8364 9.76512 21.0555 10.7432 21.0858C11.7137 21.1161 12.5098 21.9426 12.4947 22.9207C12.4795 23.9291 11.6455 24.71 10.6219 24.6797C9.62865 24.6418 8.88561 23.8381 8.91594 22.8221ZM10.7205 21.7834C10.1366 21.7682 9.62107 22.2535 9.59074 22.8373C9.56799 23.4059 10.0608 23.9518 10.6295 23.9822C11.2285 24.0125 11.7744 23.4969 11.782 22.8903C11.7971 22.2989 11.3119 21.7985 10.7205 21.7834Z" fill="#63646B"/>
<path d="M17.8173 7.56676C17.8249 8.56001 17.0439 9.37887 16.0658 9.38646C15.0574 9.40162 14.231 8.58276 14.231 7.57434C14.231 6.61142 15.0574 5.78498 16.0279 5.7774C16.9908 5.76981 17.8097 6.58867 17.8173 7.56676ZM14.9361 7.54401C14.9133 8.15816 15.4213 8.68891 16.0279 8.69649C16.5738 8.70407 17.0894 8.21882 17.1273 7.67291C17.1728 7.05876 16.6724 6.51286 16.0658 6.49769C15.4744 6.48253 14.9588 6.9602 14.9361 7.54401Z" fill="#63646B"/>
<path d="M22.3513 17.8028C21.1154 17.7952 20.1904 16.8551 20.1904 15.6192C20.198 14.3985 21.1534 13.4507 22.3816 13.4583C23.6024 13.4659 24.5577 14.4364 24.5501 15.6495C24.5425 16.8702 23.5796 17.8104 22.3513 17.8028Z" fill="#63646B"/>
<path d="M9.51506 17.8029C8.33226 17.8029 7.36934 16.8476 7.35418 15.6724C7.33901 14.4365 8.33226 13.4433 9.56814 13.4584C10.7737 13.4736 11.7518 14.4744 11.7366 15.6648C11.7063 16.8703 10.7434 17.8029 9.51506 17.8029Z" fill="#63646B"/>
<path d="M20.9335 7.59707C20.926 7.93826 20.653 8.20364 20.3042 8.20364C19.9554 8.19606 19.6977 7.93827 19.7052 7.58191C19.7128 7.22555 19.9706 6.97534 20.3194 6.97534C20.653 6.98292 20.9335 7.27104 20.9335 7.59707Z" fill="#63646B"/>
<path d="M21.8284 22.8525C21.8435 23.1786 21.563 23.4894 21.2445 23.5046C20.9185 23.5198 20.6228 23.2468 20.6001 22.9132C20.5773 22.572 20.8275 22.2915 21.1839 22.2763C21.5327 22.2536 21.8132 22.5113 21.8284 22.8525Z" fill="#63646B"/>
<path d="M11.6305 6.97549C11.9565 6.99065 12.2371 7.30152 12.2143 7.61996C12.1916 7.95357 11.9035 8.21895 11.5623 8.20379C11.2135 8.18862 10.9709 7.92325 10.986 7.55931C11.0088 7.21812 11.2969 6.96033 11.6305 6.97549Z" fill="#63646B"/>
<path d="M16.0205 12.3967C15.6718 12.3891 15.414 12.1237 15.4215 11.7749C15.4291 11.4337 15.7021 11.1608 16.0433 11.1684C16.3769 11.1684 16.6498 11.4565 16.6498 11.7977C16.6423 12.1313 16.3617 12.4042 16.0205 12.3967Z" fill="#63646B"/>
<path d="M11.3041 22.898C11.2965 23.2468 11.0236 23.5121 10.6824 23.5046C10.3488 23.497 10.0683 23.2013 10.0758 22.8752C10.0834 22.5416 10.3715 22.2763 10.7051 22.2838C11.0615 22.2838 11.3117 22.5416 11.3041 22.898Z" fill="#63646B"/>
<path d="M16.0054 8.20331C15.6642 8.18815 15.4064 7.90761 15.4215 7.55884C15.4367 7.21006 15.7172 6.95227 16.0584 6.96743C16.3845 6.9826 16.665 7.2783 16.6498 7.61191C16.6422 7.94552 16.3314 8.22606 16.0054 8.20331Z" fill="#63646B"/>
</svg>
