<svg width="27" height="41" viewBox="0 0 27 41" fill="none" xmlns="http://www.w3.org/2000/svg">
<g clip-path="url(#clip0_1300_482)">
<path d="M19.2481 13.0558C20.5772 12.62 21.2522 11.3695 21.2522 9.69955C21.2522 7.49464 20.1565 5.76221 16.9422 5.76221H5.90186V19.0311H8.96521V14.3646H16.0366C17.6256 14.3646 18.0407 14.8059 18.0407 16.3482V19.0311H21.104V15.8703C21.1012 14.2954 20.5255 13.3667 19.2481 13.0558ZM16.5258 11.5732H8.96241V8.56044H16.5258C17.6605 8.56044 18.1902 9.14833 18.1902 10.0295C18.1902 10.9106 17.736 11.5732 16.5258 11.5732Z" fill="white"/>
<path d="M0 0V41.0027H27V0H0ZM24.0512 38.1339H2.94875V2.86612H24.0512V38.1339Z" fill="white"/>
<path d="M18.0377 21.9691H21.1011V35.2326H11.3073C7.3747 35.2326 5.89893 33.7988 5.89893 29.9782V21.9678H8.96228V30.0502C8.96228 31.7405 9.64287 32.4384 11.2318 32.4384H18.0377V21.9691Z" fill="white"/>
</g>
<defs>
<clipPath id="clip0_1300_482">
<rect width="27" height="41" fill="white"/>
</clipPath>
</defs>
</svg>
