<svg width="188" height="53" viewBox="0 0 188 53" fill="none" xmlns="http://www.w3.org/2000/svg">
<g clip-path="url(#clip0_1300_59)">
<path d="M38.1531 12.5124C38.1531 9.66976 36.7813 7.43311 32.7621 7.43311H18.9569V24.5521H22.7874V18.534H31.6297C33.6148 18.534 34.1356 19.1015 34.1356 21.093V24.5521H37.9661V20.4764C37.9661 18.443 37.2461 17.2502 35.6472 16.8456C37.309 16.2799 38.1531 14.6685 38.1531 12.5124ZM32.2413 14.9295H22.7857V11.0429H32.2413C33.6603 11.0429 34.3226 11.8013 34.3226 12.9398C34.3226 14.0783 33.7494 14.9295 32.2413 14.9295ZM186.305 28.3424H187.724V45.4509H183.887V33.3183L175.995 45.4509H171.593V28.3424H175.422V40.0511L181.188 31.0904C182.656 28.8153 183.934 28.3424 186.305 28.3424ZM111.539 24.5521V20.9038C113.099 20.9038 113.479 19.9545 113.811 16.779L114.859 7.44362H128.572V24.5521H124.741V11.0447H118.137L117.454 17.583C116.883 23.2228 115.369 24.7396 111.539 24.5521ZM11.5825 52.893H45.344V-0.00195312H11.5825V52.893ZM15.2697 3.69894H41.6568V49.1956H15.2697V3.69894ZM34.1426 28.3441H37.9731V45.4526H25.711C20.7935 45.4526 18.9499 43.6048 18.9499 38.6761V28.3424H22.7804V38.769C22.7804 40.9496 23.6314 41.8498 25.6166 41.8498H34.1286L34.1426 28.3441ZM135.995 18.8178H144.451V24.5521H148.28V7.44362H138.445C133.622 7.44362 132.154 8.7695 132.154 13.749V24.5521H135.984L135.995 18.8178ZM138.454 11.0447H144.451V15.2693H135.986V13.7525C135.986 11.8013 136.222 11.0429 138.445 11.0429L138.454 11.0447ZM92.7673 18.2468V13.7455C92.7673 8.81503 94.1391 7.44011 99.0583 7.44011H109.082V11.0412H98.8695C96.8827 11.0412 96.5978 11.374 96.5978 13.5528V14.122H106.291V17.6776H96.5978V18.4342C96.5978 20.6148 96.8809 20.9476 98.8695 20.9476H109.225V24.5521H99.0583C94.1391 24.5521 92.7673 23.1282 92.7673 18.2468ZM181.714 7.44187H177.503C172.633 7.44187 171.212 8.81503 171.212 13.7472V18.2468C171.212 23.1282 173.103 24.5521 177.973 24.5521H181.237C186.155 24.5521 187.998 23.1299 187.998 18.2468V13.7455C188 8.81503 186.628 7.44187 181.711 7.44187H181.714ZM184.17 18.2468C184.17 20.4274 183.698 20.9493 181.711 20.9493H177.503C175.516 20.9493 175.044 20.4239 175.044 18.2468V13.7455C175.044 11.5649 175.516 11.0429 177.503 11.0429H181.711C183.698 11.0429 184.17 11.5684 184.17 13.7455V18.2468ZM118.585 28.3424H129.082V30.4739C129.082 32.1816 128.94 33.6021 128.558 34.8824H125.3V31.9434H118.585C116.6 31.9434 116.126 32.4689 116.126 34.646V39.1473C116.126 41.3279 116.6 41.8498 118.585 41.8498H129.082V45.4509H118.585C113.714 45.4509 112.294 44.0287 112.294 39.1455V34.6442C112.295 29.7173 113.714 28.3424 118.585 28.3424ZM88.465 7.44187H74.5148L73.6638 16.1152C73.2391 20.2382 72.6153 20.902 71.4882 20.902H71.2522V26.1565H74.894L75.0356 23.9759H86.2894L86.4309 26.1565H90.0727V20.8495H88.465V7.44187ZM77.8805 11.0429H84.6345V20.4274H76.4423C76.9665 19.5096 77.1867 18.2328 77.3527 16.5881L77.8805 11.0429ZM103.312 28.3424H98.7682C93.8962 28.3424 92.4772 29.7173 92.4772 34.6477V39.149C92.4772 44.0304 93.8944 45.4544 98.7682 45.4544H103.312C108.229 45.4544 109.603 44.0322 109.603 39.149V34.6477C109.601 29.7173 108.229 28.3424 103.312 28.3424ZM105.77 39.1473C105.77 41.3279 105.299 41.8498 103.312 41.8498H98.7682C96.7813 41.8498 96.3077 41.3244 96.3077 39.1473V34.646C96.3077 32.4654 96.7813 31.9434 98.7682 31.9434H103.312C105.299 31.9434 105.77 32.4689 105.77 34.646V39.1473ZM138.074 28.3424H148.612V30.4739C148.612 32.1816 148.47 33.6021 148.088 34.8824H144.828V31.9434H138.074C136.088 31.9434 135.616 32.4689 135.616 34.646V39.1473C135.616 41.3279 136.088 41.8498 138.074 41.8498H148.612V45.4509H138.074C133.204 45.4509 131.783 44.0287 131.783 39.1455V34.6442C131.783 29.7173 133.197 28.3424 138.074 28.3424ZM66.3942 36.4097C67.2907 35.8615 68.0369 34.6933 68.0369 32.891C68.0369 30.5703 66.7123 28.3371 62.7944 28.3371H52.7691V45.4456H63.1719C66.9552 45.4456 68.7988 43.5032 68.7988 40.3278C68.7935 38.198 67.5703 36.9387 66.3942 36.4097ZM64.2064 33.4602C64.2064 34.5111 63.6821 35.0716 62.3628 35.0716H56.5961V31.9907H62.3628C63.6874 31.9907 64.2064 32.4654 64.2064 33.4602ZM63.2138 41.8498H56.5943V38.5325H63.2138C64.4912 38.5325 64.9613 39.1473 64.9613 40.1439C64.9613 41.1405 64.4912 41.8498 63.2138 41.8498ZM164.168 7.44187H167.998V24.5521H164.168V17.6811H155.705V24.5521H151.88V7.44362H155.705V14.0783H164.168V7.44187ZM58.4851 7.44187H68.9351V9.57342C68.9351 11.2811 68.7935 12.7016 68.4108 13.9819H65.1483V11.0429H58.4799C56.4947 11.0429 56.0211 11.5684 56.0211 13.7455V18.2468C56.0211 20.4274 56.4947 20.9493 58.4799 20.9493H68.9298V24.5521H58.4799C53.6096 24.5521 52.1889 23.1299 52.1889 18.2468V13.7455C52.1959 8.81503 53.6148 7.44187 58.4851 7.44187ZM166.579 28.3424H167.998V45.4509H164.168V33.3183L156.271 45.4509H151.88V28.3424H155.705V40.0511L161.472 31.0904C162.939 28.8153 164.215 28.3424 166.579 28.3424ZM84.1609 28.3424H73.0015V31.707L74.9884 31.9907V45.4509H78.8189V41.0441H84.1609C88.5594 41.0441 90.0727 38.8163 90.0727 35.3571V34.0294C90.0727 30.7594 88.6537 28.3424 84.1609 28.3424ZM86.2894 35.2134C86.2894 36.8248 85.6743 37.4413 84.1609 37.4413H78.8189V31.9434H84.1609C85.6743 31.9434 86.2894 32.7018 86.2894 34.1713V35.2134Z" fill="white"/>
<path d="M4.0367 0H0V17.6305H4.0367V0Z" fill="white"/>
<path d="M4.0367 17.6411H0V35.2611H4.0367V17.6411Z" fill="#4083D3"/>
<path d="M4.0367 35.2607H0V52.9998H4.0367V35.2607Z" fill="#E82A2A"/>
</g>
<defs>
<clipPath id="clip0_1300_59">
<rect width="188" height="53" fill="white"/>
</clipPath>
</defs>
</svg>
