<svg width="41" height="41" viewBox="0 0 41 41" fill="none" xmlns="http://www.w3.org/2000/svg">
<path d="M10.19 0C7.48744 0 4.89558 1.07359 2.98458 2.98458C1.07359 4.89558 0 7.48744 0 10.19L0 30.57C0 33.2726 1.07359 35.8644 2.98458 37.7754C4.89558 39.6864 7.48744 40.76 10.19 40.76H30.57C33.2726 40.76 35.8644 39.6864 37.7754 37.7754C39.6864 35.8644 40.76 33.2726 40.76 30.57V0H10.19Z" fill="#B1EC52"/>
<path d="M33.6823 15.2806H28.7901L24.1297 20.3798V10.1898H20.355V12.6731C20.2336 12.5131 20.1012 12.3558 19.9577 12.2013C19.1853 11.4425 18.2625 10.8538 17.2489 10.4731C16.2352 10.0925 15.1531 9.92828 14.0721 9.99109C13.0345 9.94331 11.9999 10.1376 11.0503 10.5585C10.1006 10.9795 9.26195 11.6155 8.6005 12.4165C8.06523 13.0717 7.67729 13.8344 7.46303 14.6528C7.24878 15.4713 7.21324 16.3263 7.35883 17.1597C8.23628 21.0834 11.8785 21.7125 14.5523 22.0602C16.6631 22.3333 18.6912 22.7224 18.6332 24.6014C18.5753 26.4805 16.3734 27.0186 14.8999 27.0186C11.1418 27.0186 11.0094 24.2372 11.0094 24.2372H6.98633C7.05586 25.764 7.63927 27.2226 8.64189 28.3761C10.0491 29.9572 12.16 30.7519 14.9165 30.7519C16.899 30.7967 18.8298 30.1168 20.3467 28.8397V30.4953H24.1214V25.7438L25.4624 24.2786L29.2785 30.5449H33.674L28.1444 21.3648L33.6823 15.2806ZM11.1418 16.274C10.8107 14.8171 12.2593 13.5257 14.1466 13.5257C15.8022 13.5257 17.5323 13.9065 18.1862 16.274H20.355V19.8665C17.6482 17.6481 11.7709 19.0387 11.1418 16.274Z" fill="#4D5759"/>
</svg>
