<svg width="169" height="50" viewBox="0 0 169 50" fill="none" xmlns="http://www.w3.org/2000/svg">
<g clip-path="url(#clip0_1080_2654)">
<path d="M47.412 1.61291V36.7683C47.4093 39.5902 46.2872 42.2958 44.2917 44.2913C42.2963 46.2867 39.5907 47.4089 36.7688 47.4115H12.2566C9.43465 47.4089 6.72904 46.2867 4.73363 44.2913C2.73821 42.2958 1.61603 39.5902 1.61339 36.7683V12.2561C1.61603 9.43416 2.73821 6.72855 4.73363 4.73314C6.72904 2.73772 9.43465 1.61554 12.2566 1.61291H47.412ZM49.0249 0H12.2566C9.00607 0 5.88868 1.29126 3.59022 3.58973C1.29175 5.88819 0.000488281 9.00558 0.000488281 12.2561L0.000488281 36.7683C0.000488281 40.0188 1.29175 43.1362 3.59022 45.4347C5.88868 47.7331 9.00607 49.0244 12.2566 49.0244H36.7688C40.0193 49.0244 43.1367 47.7331 45.4352 45.4347C47.7336 43.1362 49.0249 40.0188 49.0249 36.7683V0Z" fill="white"/>
<path d="M40.5116 18.379H34.6275L29.0221 24.512V12.2559H24.4821V15.2427C24.3361 15.0503 24.1768 14.8611 24.0042 14.6752C23.0752 13.7626 21.9654 13.0546 20.7462 12.5967C19.527 12.1389 18.2255 11.9414 16.9253 12.0169C15.6773 11.9595 14.433 12.1931 13.2908 12.6994C12.1486 13.2057 11.1399 13.9708 10.3443 14.9341C9.70049 15.7221 9.23389 16.6395 8.97619 17.6239C8.7185 18.6083 8.67575 19.6366 8.85086 20.639C9.90622 25.3583 14.287 26.1149 17.5028 26.5331C20.0416 26.8616 22.4809 27.3296 22.4112 29.5896C22.3415 31.8497 19.6932 32.4969 17.921 32.4969C13.3909 32.4969 13.2416 29.1516 13.2416 29.1516H8.40283C8.48647 30.988 9.18816 32.7422 10.3941 34.1297C12.0866 36.0313 14.6255 36.9871 17.9409 36.9871C20.3253 37.0411 22.6476 36.2233 24.4722 34.6872V36.6785H29.0122V30.9536L30.6251 29.2014L35.2149 36.7382H40.5017L33.8509 25.6968L40.5116 18.379ZM24.4821 23.8947C21.2264 21.2165 14.1575 22.8991 13.4009 19.5637C13.0026 17.8114 14.7449 16.2583 17.015 16.2583C19.0062 16.2583 21.087 16.7163 21.8636 19.5637H24.4821V23.8947Z" fill="white"/>
<path d="M60.5834 33.6726C60.9302 33.7864 61.2938 33.8402 61.6587 33.8319C61.8816 33.8415 62.1041 33.8059 62.3129 33.7272C62.5216 33.6485 62.7123 33.5283 62.8734 33.374C63.1842 33.0472 63.3979 32.6404 63.4906 32.1991L57.0291 18.5193H61.3202L65.4719 28.3361L69.1059 18.5193H73.1979L67.3736 32C66.834 33.4701 66.0159 34.8223 64.9642 35.9825C64.6014 36.3792 64.1622 36.6984 63.6728 36.9209C63.1834 37.1433 62.6541 37.2644 62.1167 37.2768C61.8287 37.3056 61.5385 37.3056 61.2505 37.2768C61.0349 37.2511 60.8218 37.2078 60.6133 37.1474L60.1254 36.998C60.0031 36.9445 59.8766 36.9012 59.7471 36.8686V33.3242C60.0019 33.4911 60.2855 33.6093 60.5834 33.6726Z" fill="white"/>
<path d="M80.196 31.6404C79.9471 31.7201 79.6683 31.7698 79.3597 31.8495C79.051 31.9291 78.7225 31.949 78.3641 31.969C78.0327 31.9948 77.6998 31.9948 77.3684 31.969C76.6994 32.0011 76.0288 31.9644 75.3672 31.8594C74.8288 31.7382 74.3185 31.5152 73.8639 31.2023C73.4554 30.8825 73.1393 30.4599 72.9479 29.9777C72.7341 29.4016 72.6327 28.7899 72.6492 28.1756V23.2473H76.1538V27.4488C76.14 27.7686 76.1943 28.0876 76.3131 28.3847C76.3829 28.6298 76.5338 28.8439 76.7412 28.992C76.9545 29.1595 77.209 29.2661 77.478 29.3007C77.8304 29.3554 78.1866 29.382 78.5433 29.3803C79.0231 29.3977 79.5029 29.3441 79.967 29.221C80.2626 29.1277 80.5466 29.0008 80.8133 28.8427V23.2473H84.3179V36.7778H80.8133V31.4413L80.196 31.6404Z" fill="white"/>
<path d="M97.8994 35.0949C97.9176 35.3105 97.9786 35.5203 98.0786 35.7122C98.1293 35.8537 98.2191 35.9779 98.3375 36.0706C98.4248 36.1417 98.5268 36.1927 98.6362 36.2199V36.7775H94.7433L94.584 36.1403C94.4831 35.8391 94.4392 35.5217 94.4545 35.2044L93.668 35.9909C93.3929 36.2214 93.0961 36.4248 92.7819 36.5983C92.4079 36.7957 92.0096 36.9429 91.5971 37.0363C91.0966 37.1433 90.5856 37.1934 90.0738 37.1857C89.5024 37.1943 88.9336 37.1068 88.3912 36.9268C87.9071 36.7506 87.4611 36.4836 87.077 36.1403C86.7055 35.7744 86.417 35.333 86.2307 34.846C86.0118 34.271 85.907 33.6589 85.9221 33.0439C85.9147 32.5149 86.0024 31.9888 86.1809 31.4907C86.3505 31.0353 86.6 30.6139 86.9177 30.2462C87.2479 29.8814 87.6429 29.581 88.0826 29.3601C88.5549 29.1026 89.0718 28.937 89.6059 28.8723L93.0408 28.3645C93.1781 28.3448 93.3143 28.3182 93.449 28.2848C93.598 28.267 93.7392 28.2085 93.8572 28.1156C93.9805 28.0388 94.0831 27.9328 94.1559 27.8069C94.2451 27.6349 94.2896 27.4432 94.2853 27.2494C94.2805 27.04 94.247 26.8323 94.1857 26.6321C94.1072 26.4459 93.9841 26.2818 93.8273 26.1542C93.6373 25.9944 93.4121 25.8818 93.1702 25.8257C92.8443 25.7474 92.5097 25.7106 92.1746 25.7161C91.7989 25.7119 91.4242 25.7554 91.0595 25.8456C90.8017 25.9259 90.5663 26.0657 90.3725 26.2538C90.2028 26.4198 90.0705 26.62 89.9842 26.8412L89.8349 27.5779H86.3004C86.311 27.3474 86.3376 27.1178 86.3801 26.891C86.4419 26.5477 86.5456 26.2134 86.6887 25.8953C86.8548 25.5395 87.0584 25.2024 87.296 24.8898C87.5638 24.4994 87.9013 24.1619 88.2917 23.8941C88.7665 23.5715 89.2912 23.3293 89.8448 23.1773C90.5557 22.9831 91.2883 22.8794 92.0252 22.8687C93.0329 22.8449 94.0387 22.9656 95.0121 23.2271C95.6537 23.4455 96.2483 23.7833 96.7644 24.2227C97.1493 24.5874 97.4368 25.0426 97.6007 25.5469C97.7304 26.0206 97.7973 26.5093 97.7998 27.0005V34.169C97.805 34.48 97.8384 34.7899 97.8994 35.0949ZM93.678 30.4752C93.4023 30.5983 93.1107 30.6821 92.8118 30.7241L91.8759 30.9033C91.5148 30.9627 91.1587 31.0492 90.8106 31.1622C90.536 31.2454 90.277 31.3733 90.0439 31.5405C89.8464 31.7049 89.6896 31.9127 89.586 32.1478C89.4771 32.4232 89.4262 32.7181 89.4366 33.014C89.4357 33.2645 89.4761 33.5134 89.5561 33.7508C89.6516 33.9574 89.7909 34.1409 89.9643 34.2884C90.1208 34.4242 90.3039 34.5259 90.5019 34.5871C90.7296 34.6638 90.9687 34.7008 91.2088 34.6966C91.3792 34.6876 91.5488 34.6677 91.7166 34.6369C91.9435 34.6105 92.1671 34.5605 92.3837 34.4876C92.6243 34.3919 92.8545 34.2718 93.0706 34.1291C93.3098 33.9877 93.5166 33.7978 93.678 33.5716C93.898 33.3239 94.0551 33.0267 94.136 32.7054C94.254 32.3283 94.3144 31.9356 94.3152 31.5405V30.1666C94.1141 30.2913 93.9005 30.3947 93.678 30.4752Z" fill="white"/>
<path d="M107.717 27.0893C107.62 26.8325 107.471 26.5987 107.279 26.4023C107.084 26.212 106.849 26.0659 106.592 25.9742C106.268 25.8846 105.933 25.841 105.597 25.8448C105.096 25.8168 104.601 25.9609 104.193 26.253C103.842 26.5114 103.561 26.8537 103.377 27.2486C103.188 27.687 103.06 28.1493 102.998 28.6225C102.942 29.0785 102.908 29.5371 102.899 29.9965C102.898 30.462 102.921 30.9272 102.968 31.3904C103.008 31.856 103.129 32.3109 103.327 32.7345C103.501 33.1359 103.784 33.4807 104.143 33.7301C104.569 34.0231 105.081 34.1634 105.597 34.1283C105.968 34.1419 106.336 34.0559 106.662 33.8794C106.939 33.7264 107.188 33.5278 107.399 33.292C107.594 33.0571 107.749 32.7913 107.857 32.5055C107.937 32.2678 107.98 32.0194 107.986 31.7687H111.64C111.64 32.0603 111.606 32.3508 111.541 32.6349C111.435 33.0269 111.299 33.4098 111.132 33.7799C110.928 34.1955 110.691 34.5949 110.426 34.9746C110.101 35.3866 109.715 35.7459 109.281 36.0399C108.8 36.3823 108.27 36.6476 107.707 36.8265C107.025 37.0434 106.312 37.1477 105.597 37.1351C104.667 37.1539 103.742 36.9986 102.869 36.6771C102.104 36.3719 101.422 35.891 100.878 35.2733C100.313 34.6159 99.8952 33.8453 99.6529 33.0132C99.356 32.0254 99.2116 30.998 99.2248 29.9666C99.2038 28.9227 99.3586 27.8827 99.6828 26.8902C99.9603 26.0645 100.4 25.3028 100.977 24.65C101.527 24.0456 102.208 23.5756 102.968 23.2761C103.793 22.9399 104.677 22.7739 105.567 22.7882C106 22.7975 106.432 22.8341 106.861 22.8977C107.304 22.9554 107.739 23.0657 108.155 23.2263C108.588 23.4027 109.004 23.6159 109.4 23.8635C109.823 24.1445 110.2 24.4906 110.515 24.889C110.838 25.2948 111.097 25.7482 111.282 26.2331C111.502 26.8102 111.629 27.4183 111.66 28.0351H108.006C107.943 27.7107 107.846 27.3937 107.717 27.0893Z" fill="white"/>
<path d="M123.906 23.2471V26.0945H119.814V36.7776H116.299V26.0945H112.207V23.2471H123.906Z" fill="white"/>
<path d="M133.663 28.1356V23.2471H137.167V36.7776H133.663V30.983H128.495V36.7776H124.991V23.2471H128.495V28.1356H133.663Z" fill="white"/>
<path d="M143.081 31.5904L148.06 23.2471H151.743V36.7776H148.239V28.6135H148.179L143.4 36.7776H139.567V23.2471H143.071V31.5904H143.081Z" fill="white"/>
<path d="M162.675 23.2471H167.354L161.759 28.8723L167.583 36.7776H163.003L159.021 31.0527L157.597 32.5063V36.7776H154.093V23.2471H157.597V28.3845L162.675 23.2471Z" fill="white"/>
</g>
<defs>
<clipPath id="clip0_1080_2654">
<rect width="167.583" height="49.0244" fill="white" transform="translate(0.000488281)"/>
</clipPath>
</defs>
</svg>
