<svg width="169" height="50" viewBox="0 0 169 50" fill="none" xmlns="http://www.w3.org/2000/svg">
<path d="M12.31 0C9.04519 0 5.91409 1.29694 3.60552 3.60552C1.29694 5.91409 0 9.04519 0 12.31L0 36.93C0 40.1948 1.29694 43.3259 3.60552 45.6345C5.91409 47.9431 9.04519 49.24 12.31 49.24H36.93C40.1948 49.24 43.3259 47.9431 45.6345 45.6345C47.9431 43.3259 49.24 40.1948 49.24 36.93V0H12.31Z" fill="#4D5759"/>
<path d="M40.6899 18.46H34.7799L29.1499 24.62V12.31H24.5899V15.31C24.4433 15.1166 24.2833 14.9266 24.1099 14.74C23.1768 13.8233 22.0621 13.1122 20.8376 12.6523C19.613 12.1925 18.3058 11.9941 16.9999 12.07C15.7464 12.0123 14.4966 12.2469 13.3494 12.7555C12.2022 13.264 11.189 14.0324 10.3899 15C9.74331 15.7915 9.27465 16.7129 9.01582 17.7016C8.75699 18.6903 8.71406 19.7232 8.88994 20.73C9.94994 25.47 14.3499 26.23 17.5799 26.65C20.1299 26.98 22.5799 27.45 22.5099 29.72C22.4399 31.99 19.7799 32.64 17.9999 32.64C13.4599 32.64 13.2999 29.28 13.2999 29.28H8.43994C8.52394 31.1244 9.22873 32.8864 10.4399 34.28C12.1399 36.19 14.6899 37.15 18.0199 37.15C20.4149 37.2042 22.7474 36.3828 24.5799 34.84V36.84H29.1399V31.1L30.7599 29.33L35.3699 36.9H40.6799L33.9999 25.81L40.6899 18.46ZM13.4599 19.66C13.0599 17.9 14.8099 16.34 17.0899 16.34C19.0899 16.34 21.1799 16.8 21.9699 19.66H24.5899V24C21.3199 21.32 14.2199 23 13.4599 19.66Z" fill="#B1EC52"/>
<path d="M60.8503 33.8201C61.1986 33.9343 61.5638 33.9884 61.9303 33.9801C62.1541 33.9897 62.3777 33.9539 62.5873 33.8749C62.797 33.7958 62.9885 33.6751 63.1503 33.5201C63.4625 33.1919 63.6771 32.7834 63.7703 32.3401L57.2803 18.6001H61.5903L65.7603 28.4601L69.4103 18.6001H73.5203L67.6703 32.1401C67.1283 33.6166 66.3067 34.9748 65.2503 36.1401C64.886 36.5386 64.4448 36.8592 63.9532 37.0826C63.4617 37.306 62.93 37.4276 62.3903 37.4401C62.101 37.469 61.8096 37.469 61.5203 37.4401C61.3038 37.4143 61.0897 37.3708 60.8803 37.3101L60.3903 37.1601C60.2674 37.1064 60.1403 37.0629 60.0103 37.0301V33.4701C60.2662 33.6378 60.551 33.7565 60.8503 33.8201Z" fill="#4D5759"/>
<path d="M80.55 31.7801C80.3 31.8601 80.02 31.9101 79.71 31.9901C79.4 32.0701 79.07 32.0901 78.71 32.1101C78.3772 32.136 78.0428 32.136 77.71 32.1101C77.038 32.1424 76.3645 32.1055 75.7 32.0001C75.1592 31.8783 74.6467 31.6543 74.19 31.3401C73.7798 31.0189 73.4623 30.5944 73.27 30.1101C73.0553 29.5315 72.9534 28.9171 72.97 28.3001V23.3501H76.49V27.5701C76.4762 27.8912 76.5307 28.2116 76.65 28.5101C76.7201 28.7563 76.8717 28.9713 77.08 29.1201C77.2942 29.2883 77.5499 29.3954 77.82 29.4301C78.174 29.485 78.5318 29.5118 78.89 29.5101C79.3719 29.5276 79.8538 29.4737 80.32 29.3501C80.6169 29.2564 80.9021 29.1289 81.17 28.9701V23.3501H84.69V36.9401H81.17V31.5801L80.55 31.7801Z" fill="#4D5759"/>
<path d="M98.3303 35.25C98.3486 35.4665 98.4098 35.6773 98.5103 35.87C98.5612 36.0121 98.6513 36.1369 98.7702 36.23C98.858 36.3014 98.9604 36.3526 99.0703 36.38V36.94H95.1603L95.0003 36.3C94.8989 35.9974 94.8549 35.6787 94.8703 35.36L94.0803 36.15C93.8039 36.3815 93.5059 36.5858 93.1903 36.76C92.8146 36.9582 92.4145 37.1062 92.0003 37.2C91.4975 37.3074 90.9843 37.3577 90.4703 37.35C89.8963 37.3587 89.325 37.2708 88.7803 37.09C88.294 36.913 87.846 36.6448 87.4603 36.3C87.0872 35.9325 86.7973 35.4891 86.6103 35C86.3904 34.4225 86.2851 33.8077 86.3003 33.19C86.2929 32.6586 86.3809 32.1302 86.5602 31.63C86.7305 31.1726 86.9812 30.7493 87.3003 30.38C87.6319 30.0136 88.0286 29.7118 88.4703 29.49C88.9447 29.2313 89.4638 29.065 90.0003 29L93.4502 28.49C93.5882 28.4702 93.725 28.4435 93.8603 28.41C94.0099 28.3921 94.1518 28.3333 94.2702 28.24C94.3942 28.1628 94.4972 28.0564 94.5703 27.93C94.6599 27.7572 94.7046 27.5646 94.7002 27.37C94.6954 27.1597 94.6618 26.9511 94.6003 26.75C94.5214 26.5629 94.3977 26.3981 94.2403 26.27C94.0494 26.1094 93.8232 25.9964 93.5803 25.94C93.2529 25.8614 92.9169 25.8244 92.5803 25.83C92.2029 25.8258 91.8266 25.8694 91.4603 25.96C91.2013 26.0407 90.9649 26.1811 90.7702 26.37C90.5999 26.5368 90.4669 26.7379 90.3802 26.96L90.2303 27.7H86.6803C86.6909 27.4684 86.7176 27.2379 86.7603 27.01C86.8224 26.6652 86.9265 26.3294 87.0703 26.01C87.2371 25.6526 87.4415 25.314 87.6803 25C87.9492 24.6079 88.2882 24.2689 88.6803 24C89.1572 23.676 89.6842 23.4327 90.2402 23.28C90.9543 23.085 91.6901 22.9808 92.4303 22.97C93.4423 22.9461 94.4526 23.0673 95.4303 23.33C96.0747 23.5494 96.6719 23.8887 97.1903 24.33C97.5769 24.6963 97.8657 25.1535 98.0303 25.66C98.1605 26.1358 98.2277 26.6267 98.2303 27.12V34.32C98.2355 34.6324 98.2689 34.9436 98.3303 35.25ZM94.0902 30.61C93.8134 30.7336 93.5205 30.8178 93.2203 30.86L92.2803 31.04C91.9176 31.0996 91.5599 31.1865 91.2103 31.3C90.9345 31.3836 90.6744 31.512 90.4403 31.68C90.2418 31.845 90.0844 32.0538 89.9803 32.29C89.8709 32.5666 89.8198 32.8628 89.8303 33.16C89.8293 33.4116 89.8699 33.6616 89.9502 33.9C90.0462 34.1075 90.1861 34.2918 90.3603 34.44C90.5175 34.5764 90.7014 34.6785 90.9003 34.74C91.1289 34.817 91.369 34.8542 91.6103 34.85C91.7814 34.8409 91.9517 34.8209 92.1203 34.79C92.3482 34.7635 92.5728 34.7132 92.7903 34.64C93.032 34.5439 93.2632 34.4233 93.4803 34.28C93.7204 34.1379 93.9282 33.9472 94.0902 33.72C94.3113 33.4712 94.4691 33.1728 94.5503 32.85C94.6688 32.4713 94.7295 32.0768 94.7303 31.68V30.3C94.5283 30.4253 94.3138 30.5292 94.0902 30.61Z" fill="#4D5759"/>
<path d="M108.19 27.21C108.093 26.9521 107.943 26.7172 107.75 26.52C107.554 26.3288 107.318 26.1822 107.06 26.09C106.734 26 106.398 25.9562 106.06 25.96C105.557 25.932 105.06 26.0766 104.65 26.37C104.297 26.6296 104.016 26.9734 103.83 27.37C103.641 27.8103 103.513 28.2747 103.45 28.75C103.393 29.208 103.36 29.6686 103.35 30.13C103.35 30.5976 103.373 31.0648 103.42 31.53C103.46 31.9977 103.582 32.4546 103.78 32.88C103.955 33.2832 104.239 33.6295 104.6 33.88C105.028 34.1743 105.542 34.3152 106.06 34.28C106.433 34.2936 106.802 34.2073 107.13 34.03C107.408 33.8763 107.658 33.6768 107.87 33.44C108.066 33.2041 108.222 32.9371 108.33 32.65C108.409 32.4111 108.453 32.1617 108.46 31.91H112.13C112.129 32.2028 112.096 32.4947 112.03 32.78C111.924 33.1737 111.787 33.5583 111.62 33.93C111.414 34.3475 111.177 34.7487 110.91 35.13C110.584 35.5438 110.196 35.9048 109.76 36.2C109.278 36.5439 108.745 36.8104 108.18 36.99C107.495 37.208 106.779 37.3127 106.06 37.3C105.126 37.3189 104.197 37.1629 103.32 36.84C102.552 36.5334 101.867 36.0504 101.32 35.43C100.753 34.7698 100.333 33.9958 100.09 33.16C99.7919 32.1678 99.6469 31.136 99.6601 30.1C99.639 29.0515 99.7945 28.0069 100.12 27.01C100.399 26.1807 100.841 25.4157 101.42 24.76C101.972 24.153 102.657 23.6808 103.42 23.38C104.248 23.0423 105.136 22.8757 106.03 22.89C106.465 22.8993 106.899 22.9361 107.33 23C107.775 23.0579 108.211 23.1687 108.63 23.33C109.064 23.5072 109.482 23.7213 109.88 23.97C110.305 24.2523 110.683 24.5999 111 25C111.325 25.4077 111.584 25.863 111.77 26.35C111.991 26.9297 112.119 27.5405 112.15 28.16H108.48C108.417 27.8342 108.319 27.5158 108.19 27.21Z" fill="#4D5759"/>
<path d="M124.45 23.3501V26.2101H120.34V36.9401H116.81V26.2101H112.7V23.3501H124.45Z" fill="#4D5759"/>
<path d="M134.25 28.2601V23.3501H137.77V36.9401H134.25V31.1201H129.06V36.9401H125.54V23.3501H129.06V28.2601H134.25Z" fill="#4D5759"/>
<path d="M143.71 31.7301L148.71 23.3501H152.41V36.9401H148.89V28.7401H148.83L144.03 36.9401H140.18V23.3501H143.7V31.7301H143.71Z" fill="#4D5759"/>
<path d="M163.39 23.3501H168.09L162.47 29.0001L168.32 36.9401H163.72L159.72 31.1901L158.29 32.6501V36.9401H154.77V23.3501H158.29V28.5101L163.39 23.3501Z" fill="#4D5759"/>
</svg>
