<svg width="97" height="101" viewBox="0 0 97 101" fill="none" xmlns="http://www.w3.org/2000/svg">
<g clip-path="url(#clip0_1365_35)">
<path d="M47.4126 26.8613H43.0557V35.4601H47.4126V26.8613Z" fill="#9AC21C"/>
<path d="M40.8813 16.1168H36.5244V24.7156H40.8813V16.1168Z" fill="#9AC21C"/>
<path d="M47.4126 16.1168H43.0557V24.7156H47.4126V16.1168Z" fill="#9AC21C"/>
<path d="M40.8813 26.8613H36.5244V35.4601H40.8813V26.8613Z" fill="#9AC21C"/>
<path d="M40.8813 37.6058H36.5244V46.2046H40.8813V37.6058Z" fill="#9AC21C"/>
<path d="M47.4126 37.6058H43.0557V46.2046H47.4126V37.6058Z" fill="#9AC21C"/>
<path d="M40.8813 48.3503H36.5244V56.9491H40.8813V48.3503Z" fill="#9AC21C"/>
<path d="M23.4536 37.6058H19.0967V46.2046H23.4536V37.6058Z" fill="#9AC21C"/>
<path d="M23.4536 48.3503H19.0967V56.9491H23.4536V48.3503Z" fill="#9AC21C"/>
<path d="M23.4536 59.0948H19.0967V67.6936H23.4536V59.0948Z" fill="#9AC21C"/>
<path d="M23.4536 69.8394H19.0967V78.4381H23.4536V69.8394Z" fill="#9AC21C"/>
<path d="M47.4126 48.3503H43.0557V56.9491H47.4126V48.3503Z" fill="#9AC21C"/>
<path d="M60.4756 39.7594H64.8722V33.3142H60.4756V39.7594ZM60.4756 48.3738H64.8722V41.9051H60.4756V48.3738ZM60.4756 74.1622H64.8722V67.6935H60.4756V74.1622ZM60.4756 56.9333H64.8722V50.5039H60.4756V56.9333ZM67.0149 65.5478H71.3639V59.1026H67.0149V65.5478ZM60.4756 65.5478H64.8722V59.1026H60.4756V65.5478ZM67.0149 56.9333H71.3639V50.5039H67.0149V56.9333ZM73.5464 39.7437H77.9033V33.3142H73.5464V39.7437ZM73.5464 48.3581H77.9033V41.9051H73.5464V48.3581ZM73.5464 56.9725H77.9033V50.5039H73.5464V56.9725ZM67.0149 39.7594H71.3639V33.3142H67.0149V39.7594ZM67.0149 48.3738H71.3639V41.9051H67.0149V48.3738Z" fill="#9AC21C"/>
<path d="M40.8813 59.0948H36.5244V67.6936H40.8813V59.0948Z" fill="#9AC21C"/>
<path d="M67.0071 82.7374H45.2305V87.0368H67.0071V82.7374Z" fill="#9AC21C"/>
<path d="M67.0071 89.1826H45.2305V93.482H67.0071V89.1826Z" fill="#9AC21C"/>
<mask id="mask0_1365_35" style="mask-type:luminance" maskUnits="userSpaceOnUse" x="0" y="0" width="97" height="102">
<path d="M96.4104 0H0.589844V101.008H96.4104V0Z" fill="white"/>
</mask>
<g mask="url(#mask0_1365_35)">
<path d="M93.1486 90.2555H82.2523C82.1095 90.2555 81.9681 90.2278 81.8362 90.1738C81.7043 90.1199 81.5845 90.0409 81.4835 89.9413C81.3825 89.8416 81.3025 89.7234 81.2478 89.5932C81.1932 89.463 81.1651 89.3235 81.1651 89.1826V24.7155C81.1639 24.5247 81.2143 24.3371 81.3111 24.1719C81.4079 24.0067 81.5476 23.87 81.7158 23.7758C81.884 23.6817 82.0746 23.6335 82.2679 23.6362C82.4613 23.639 82.6504 23.6925 82.8158 23.7914L93.7041 30.2366C93.8654 30.3329 93.9989 30.4685 94.092 30.6303C94.1851 30.792 94.2346 30.9746 94.2358 31.1607V89.1826C94.2358 89.3235 94.2077 89.463 94.1531 89.5932C94.0984 89.7234 94.0183 89.8416 93.9174 89.9413C93.8164 90.0409 93.6966 90.1199 93.5646 90.1738C93.4327 90.2278 93.2914 90.2555 93.1486 90.2555ZM83.3475 88.1097H92.0772V31.7715L83.3475 26.6107V88.1097Z" fill="white"/>
<path d="M56.1421 30.0878C55.8831 30.0868 55.6328 29.9952 55.4357 29.8293C55.3186 29.7333 55.2234 29.6138 55.1564 29.4789C55.0893 29.3439 55.052 29.1964 55.0469 29.0462V1.07289C55.0464 0.872804 55.1026 0.676571 55.2092 0.506357C55.3158 0.336142 55.4685 0.19873 55.65 0.109641C55.8341 0.020516 56.0401 -0.0150317 56.2439 0.00715847C56.4476 0.0293487 56.6408 0.108359 56.8008 0.234942L67.6891 8.84935C67.8177 8.94904 67.9217 9.07627 67.9932 9.22143C68.0647 9.3666 68.1018 9.5259 68.1018 9.68729V27.2215C68.1013 27.4759 68.0093 27.7219 67.8422 27.9155C67.675 28.1092 67.4436 28.2379 67.1891 28.2788L56.3008 30.0721H56.1262M57.2134 3.31263V27.7462L65.9431 26.3131V10.1807L57.2134 3.31263Z" fill="white"/>
<path d="M29.993 90.2555H12.5335C12.3908 90.2555 12.2494 90.2277 12.1175 90.1738C11.9856 90.1199 11.8657 90.0409 11.7647 89.9413C11.6638 89.8416 11.5837 89.7234 11.5291 89.5932C11.4744 89.463 11.4463 89.3235 11.4463 89.1826V24.7155C11.4465 24.5417 11.4891 24.3706 11.5707 24.2165C11.6522 24.0625 11.7701 23.9301 11.9145 23.8306C12.058 23.7304 12.2242 23.6665 12.3986 23.6447C12.573 23.6228 12.7502 23.6436 12.9145 23.7053L30.3739 30.1583C30.5809 30.2347 30.7594 30.3716 30.8856 30.5507C31.0118 30.7298 31.0797 30.9425 31.0802 31.1607V89.1826C31.0802 89.3235 31.0521 89.463 30.9974 89.5932C30.9428 89.7234 30.8627 89.8416 30.7618 89.9413C30.6608 90.0409 30.5409 90.1199 30.409 90.1738C30.2771 90.2277 30.1357 90.2555 29.993 90.2555ZM13.6525 88.1097H28.8978V31.9046L13.6525 26.2661V88.1097Z" fill="white"/>
<path d="M12.5651 90.2554H3.83542C3.69197 90.2565 3.54974 90.2295 3.41691 90.176C3.28408 90.1226 3.16328 90.0437 3.06148 89.944C2.95968 89.8443 2.87888 89.7256 2.82375 89.595C2.76861 89.4643 2.74023 89.3241 2.74023 89.1826V31.1606C2.74174 30.9937 2.78184 30.8294 2.85749 30.6801C2.93313 30.5308 3.04232 30.4005 3.17672 30.2992L11.9064 23.854C12.0682 23.7348 12.2604 23.6623 12.4615 23.6448C12.6627 23.6273 12.8648 23.6653 13.0452 23.7548C13.2256 23.8442 13.3773 23.9814 13.4831 24.1511C13.5889 24.3208 13.6448 24.5162 13.6444 24.7155V89.1826C13.6444 89.3235 13.6163 89.463 13.5617 89.5931C13.507 89.7233 13.427 89.8416 13.326 89.9412C13.225 90.0408 13.1052 90.1199 12.9733 90.1738C12.8414 90.2277 12.7 90.2554 12.5572 90.2554M4.93854 88.1097H11.4699V26.8612L4.94647 31.701L4.93854 88.1097Z" fill="white"/>
<path d="M38.6833 90.2555H29.9536C29.8101 90.2565 29.6679 90.2295 29.5351 90.1761C29.4022 90.1226 29.2814 90.0437 29.1796 89.944C29.0778 89.8443 28.997 89.7257 28.9419 89.595C28.8868 89.4643 28.8584 89.3241 28.8584 89.1826V12.8198C28.8613 12.6135 28.9232 12.4122 29.0369 12.239C29.1507 12.0658 29.3116 11.9278 29.5012 11.8409L55.6745 0.0939741C55.8405 0.0212158 56.0223 -0.00963559 56.2035 0.00419949C56.3846 0.0180346 56.5594 0.0761214 56.7121 0.173227C56.8649 0.270332 56.9907 0.403406 57.0783 0.560458C57.166 0.71751 57.2126 0.893607 57.2141 1.07288V78.4381C57.2141 78.7199 57.1018 78.9905 56.9013 79.1912C56.7008 79.392 56.4283 79.5068 56.1427 79.511H39.7864V89.1826C39.7864 89.3248 39.7578 89.4656 39.7022 89.5968C39.6465 89.728 39.565 89.847 39.4624 89.9468C39.3597 90.0467 39.238 90.1254 39.1042 90.1783C38.9705 90.2313 38.8274 90.2576 38.6833 90.2555ZM31.0646 88.1097H37.5961V78.4381C37.5961 78.1535 37.7106 77.8806 37.9145 77.6794C38.1184 77.4782 38.3949 77.3652 38.6833 77.3652H55.0317V2.74878L31.0805 13.5168L31.0646 88.1097Z" fill="white"/>
<path d="M82.2518 90.2555H73.5221C73.3793 90.2555 73.238 90.2278 73.1061 90.1739C72.9741 90.12 72.8543 90.0409 72.7533 89.9413C72.6524 89.8417 72.5723 89.7234 72.5176 89.5932C72.463 89.4631 72.4349 89.3236 72.4349 89.1827V79.511H56.1421C55.9986 79.5121 55.8564 79.4851 55.7235 79.4316C55.5907 79.3782 55.4699 79.2993 55.3681 79.1996C55.2663 79.0998 55.1855 78.9812 55.1304 78.8505C55.0753 78.7199 55.0469 78.5797 55.0469 78.4382V29.0149C55.047 28.7596 55.1387 28.5126 55.3058 28.3177C55.4728 28.1227 55.7044 27.9924 55.9595 27.9499L82.0931 23.6505C82.249 23.6265 82.4083 23.6357 82.5603 23.6776C82.7122 23.7195 82.8533 23.793 82.974 23.8933C83.0912 23.9894 83.1864 24.1088 83.2534 24.2438C83.3204 24.3788 83.3577 24.5262 83.3629 24.6764V89.1435C83.3629 89.2851 83.3345 89.4252 83.2794 89.5559C83.2242 89.6866 83.1434 89.8052 83.0416 89.9049C82.9398 90.0047 82.819 90.0835 82.6862 90.137C82.5534 90.1904 82.4112 90.2174 82.2677 90.2164M74.649 88.0706H81.1805V25.9842L57.2293 29.8999V77.3653H73.5459C73.8343 77.3653 74.1108 77.4783 74.3147 77.6795C74.5186 77.8807 74.6332 78.1536 74.6332 78.4382L74.649 88.0706Z" fill="white"/>
<path d="M73.5463 101.024H38.683C38.5395 101.024 38.3975 100.996 38.2651 100.941C38.1326 100.887 38.0124 100.807 37.9114 100.707C37.8103 100.606 37.7304 100.487 37.6762 100.356C37.622 100.225 37.5947 100.084 37.5957 99.9428V78.4381C37.5957 78.1536 37.7103 77.8807 37.9142 77.6795C38.1181 77.4783 38.3946 77.3652 38.683 77.3652H73.5463C73.8346 77.3652 74.1112 77.4783 74.3151 77.6795C74.519 77.8807 74.6335 78.1536 74.6335 78.4381V99.9271C74.6367 100.07 74.6109 100.212 74.5577 100.345C74.5045 100.478 74.4249 100.599 74.3236 100.701C74.2223 100.803 74.1014 100.884 73.9679 100.94C73.8344 100.995 73.6911 101.024 73.5463 101.024ZM39.7861 98.8699H72.459V79.5267H39.7861V98.8699Z" fill="white"/>
<path d="M95.3229 101.023H1.67684C1.4035 101 1.14887 100.877 0.963317 100.678C0.777764 100.478 0.674805 100.217 0.674805 99.9467C0.674805 99.676 0.777764 99.4151 0.963317 99.2157C1.14887 99.0163 1.4035 98.8929 1.67684 98.8699H95.3229C95.5962 98.8929 95.8508 99.0163 96.0364 99.2157C96.2219 99.4151 96.3249 99.676 96.3249 99.9467C96.3249 100.217 96.2219 100.478 96.0364 100.678C95.8508 100.877 95.5962 101 95.3229 101.023Z" fill="white"/>
<path d="M38.683 101.024H8.20834C7.91926 101.021 7.64273 100.907 7.43905 100.704C7.23538 100.502 7.12109 100.228 7.12109 99.9428V89.1826C7.12317 88.8987 7.23839 88.627 7.44184 88.4262C7.64529 88.2255 7.92063 88.1118 8.20834 88.1097H38.683C38.9713 88.1097 39.2479 88.2228 39.4518 88.424C39.6557 88.6252 39.7702 88.8981 39.7702 89.1826V99.9271C39.7734 100.07 39.7476 100.212 39.6944 100.345C39.6412 100.478 39.5616 100.599 39.4603 100.701C39.359 100.803 39.2381 100.884 39.1046 100.94C38.9711 100.995 38.8278 101.024 38.683 101.024ZM9.31939 98.8699H37.6116V90.2555H9.31939V98.8699Z" fill="white"/>
<path d="M84.4349 101.024C84.2915 101.024 84.1495 100.996 84.017 100.941C83.8846 100.887 83.7644 100.807 83.6633 100.707C83.5622 100.606 83.4823 100.487 83.4282 100.356C83.374 100.225 83.3466 100.084 83.3477 99.9428V89.1826C83.3477 88.8981 83.4622 88.6252 83.6661 88.424C83.87 88.2228 84.1466 88.1097 84.4349 88.1097C84.7233 88.1097 84.9998 88.2228 85.2037 88.424C85.4076 88.6252 85.5222 88.8981 85.5222 89.1826V99.9271C85.5232 100.069 85.4959 100.209 85.4417 100.34C85.3875 100.471 85.3076 100.59 85.2066 100.691C85.1055 100.791 84.9853 100.871 84.8528 100.925C84.7204 100.98 84.5784 101.008 84.4349 101.008" fill="white"/>
</g>
</g>
<defs>
<clipPath id="clip0_1365_35">
<rect width="95.8205" height="101" fill="white" transform="translate(0.589844)"/>
</clipPath>
</defs>
</svg>
