<svg width="117" height="117" viewBox="0 0 117 117" fill="none" xmlns="http://www.w3.org/2000/svg">
<path d="M96.3851 53.2484H63.8421C62.2471 53.234 60.7221 52.5894 59.5983 51.4546C58.4746 50.3198 57.8427 48.7863 57.8398 47.1873V23.8507C57.8456 22.2468 58.4829 20.7102 59.6131 19.575C60.7434 18.4399 62.275 17.7982 63.8748 17.7896H96.3851C97.9849 17.7982 99.5166 18.4399 100.647 19.575C101.777 20.7102 102.414 22.2468 102.42 23.8507V47.1873C102.42 48.7929 101.785 50.3329 100.653 51.4693C99.5217 52.6056 97.9867 53.2455 96.3851 53.2484ZM63.8421 21.2578C63.157 21.2606 62.5008 21.5347 62.0164 22.0204C61.532 22.506 61.2585 23.1639 61.2557 23.8507V47.1873C61.2557 47.876 61.5278 48.5366 62.0125 49.0246C62.4973 49.5126 63.1551 49.7882 63.8421 49.7911H96.3851C97.0721 49.7882 97.7299 49.5126 98.2147 49.0246C98.6994 48.5366 98.9716 47.876 98.9715 47.1873V23.8507C98.9687 23.1639 98.6953 22.506 98.2108 22.0204C97.7264 21.5347 97.0702 21.2606 96.3851 21.2578H63.8421Z" fill="white"/>
<path d="M100.696 34.7695H83.235C82.7777 34.7695 82.3391 34.5874 82.0158 34.2632C81.6924 33.939 81.5107 33.4994 81.5107 33.0409C81.5107 32.5824 81.6924 32.1427 82.0158 31.8186C82.3391 31.4944 82.7777 31.3123 83.235 31.3123H100.696C101.153 31.3123 101.592 31.4944 101.915 31.8186C102.239 32.1427 102.42 32.5824 102.42 33.0409C102.42 33.4994 102.239 33.939 101.915 34.2632C101.592 34.5874 101.153 34.7695 100.696 34.7695Z" fill="white"/>
<path d="M76.9597 34.7695H59.4987C59.0414 34.7695 58.6028 34.5874 58.2794 34.2632C57.9561 33.939 57.7744 33.4994 57.7744 33.0409C57.7744 32.5824 57.9561 32.1427 58.2794 31.8186C58.6028 31.4944 59.0414 31.3123 59.4987 31.3123H76.9597C77.4171 31.3123 77.8556 31.4944 78.179 31.8186C78.5024 32.1427 78.684 32.5824 78.684 33.0409C78.684 33.4994 78.5024 33.939 78.179 34.2632C77.8556 34.5874 77.4171 34.7695 76.9597 34.7695Z" fill="white"/>
<path d="M83.2674 37.9314H76.9596C76.5023 37.9314 76.0637 37.7493 75.7404 37.4251C75.417 37.1009 75.2354 36.6612 75.2354 36.2028V29.89C75.2353 29.4305 75.4167 28.9897 75.7397 28.6638C76.0628 28.3378 76.5013 28.1533 76.9596 28.1504H83.2674C83.7257 28.1533 84.1643 28.3378 84.4874 28.6638C84.8104 28.9897 84.9917 29.4305 84.9917 29.89V36.2028C84.9917 36.6612 84.8101 37.1009 84.4867 37.4251C84.1633 37.7493 83.7247 37.9314 83.2674 37.9314ZM78.6948 34.4741H81.5432V31.6186H78.6948V34.4741Z" fill="white"/>
<path d="M87.3053 21.2577C86.848 21.2577 86.4094 21.0756 86.086 20.7514C85.7627 20.4273 85.581 19.9876 85.581 19.5291V16.5423C85.581 16.1525 85.4273 15.7784 85.1533 15.5017C84.8794 15.2251 84.5075 15.0682 84.1186 15.0653H76.0975C75.7086 15.0682 75.3367 15.2251 75.0627 15.5017C74.7888 15.7784 74.6351 16.1525 74.6351 16.5423V19.5291C74.6351 19.7561 74.5905 19.9809 74.5038 20.1906C74.4172 20.4004 74.2902 20.5909 74.1301 20.7514C73.9699 20.912 73.7799 21.0393 73.5707 21.1262C73.3615 21.213 73.1372 21.2577 72.9108 21.2577C72.6844 21.2577 72.4602 21.213 72.251 21.1262C72.0418 21.0393 71.8517 20.912 71.6916 20.7514C71.5314 20.5909 71.4044 20.4004 71.3178 20.1906C71.2311 19.9809 71.1865 19.7561 71.1865 19.5291V16.5423C71.1851 15.8948 71.3111 15.2534 71.5572 14.6549C71.8034 14.0563 72.1649 13.5122 72.621 13.0539C73.0772 12.5956 73.6191 12.2319 74.2156 11.9838C74.8121 11.7357 75.4516 11.608 76.0975 11.608H84.1514C85.4567 11.608 86.7086 12.1279 87.6316 13.0532C88.5547 13.9786 89.0732 15.2336 89.0732 16.5423V19.5291C89.0618 19.9916 88.8705 20.4312 88.5402 20.7542C88.2099 21.0772 87.7667 21.2579 87.3053 21.2577Z" fill="white"/>
<path d="M51.2916 101.595H18.7049C17.1042 101.59 15.5709 100.949 14.44 99.8132C13.3092 98.6774 12.6728 97.1391 12.6699 95.5343V72.2087C12.6728 70.604 13.3092 69.0657 14.44 67.9299C15.5709 66.7942 17.1042 66.1534 18.7049 66.1476H51.2916C52.8847 66.1648 54.4069 66.8107 55.5283 67.9452C56.6497 69.0797 57.2801 70.6115 57.2829 72.2087V95.5343C57.283 97.1324 56.6535 98.6659 55.5315 99.801C54.4094 100.936 52.8856 101.581 51.2916 101.595ZM18.7049 69.6048C18.0179 69.6077 17.3601 69.8834 16.8754 70.3714C16.3906 70.8594 16.1185 71.52 16.1185 72.2087V95.5343C16.1214 96.2211 16.3948 96.879 16.8792 97.3647C17.3636 97.8503 18.0198 98.1244 18.7049 98.1273H51.2916C51.9767 98.1244 52.6329 97.8503 53.1173 97.3647C53.6017 96.879 53.8751 96.2211 53.878 95.5343V72.2087C53.878 71.52 53.6059 70.8594 53.1211 70.3714C52.6364 69.8834 51.9786 69.6077 51.2916 69.6048H18.7049Z" fill="white"/>
<path d="M55.5594 83.1494H38.0983C37.8719 83.1494 37.6476 83.1047 37.4385 83.0178C37.2293 82.931 37.0392 82.8036 36.8791 82.6431C36.7189 82.4826 36.5919 82.292 36.5053 82.0823C36.4186 81.8726 36.374 81.6478 36.374 81.4208C36.374 81.1938 36.4186 80.969 36.5053 80.7593C36.5919 80.5495 36.7189 80.359 36.8791 80.1984C37.0392 80.0379 37.2293 79.9106 37.4385 79.8237C37.6476 79.7369 37.8719 79.6921 38.0983 79.6921H55.5594C55.7858 79.6921 56.01 79.7369 56.2192 79.8237C56.4284 79.9106 56.6185 80.0379 56.7786 80.1984C56.9387 80.359 57.0657 80.5495 57.1524 80.7593C57.239 80.969 57.2836 81.1938 57.2836 81.4208C57.2836 81.6478 57.239 81.8726 57.1524 82.0823C57.0657 82.292 56.9387 82.4826 56.7786 82.6431C56.6185 82.8036 56.4284 82.931 56.2192 83.0178C56.01 83.1047 55.7858 83.1494 55.5594 83.1494Z" fill="white"/>
<path d="M31.823 83.1494H14.362C13.9047 83.1494 13.4661 82.9673 13.1427 82.6431C12.8194 82.3189 12.6377 81.8792 12.6377 81.4208C12.6377 80.9623 12.8194 80.5226 13.1427 80.1984C13.4661 79.8743 13.9047 79.6921 14.362 79.6921H31.823C32.0495 79.6921 32.2737 79.7369 32.4829 79.8237C32.6921 79.9106 32.8822 80.0379 33.0423 80.1984C33.2024 80.359 33.3294 80.5495 33.4161 80.7593C33.5027 80.969 33.5473 81.1938 33.5473 81.4208C33.5473 81.6478 33.5027 81.8726 33.4161 82.0823C33.3294 82.292 33.2024 82.4826 33.0423 82.6431C32.8822 82.8036 32.6921 82.931 32.4829 83.0178C32.2737 83.1047 32.0495 83.1494 31.823 83.1494Z" fill="white"/>
<path d="M38.1307 86.2566H31.8229C31.5965 86.2566 31.3723 86.2119 31.1631 86.125C30.9539 86.0381 30.7638 85.9108 30.6037 85.7503C30.4435 85.5898 30.3165 85.3992 30.2299 85.1895C30.1432 84.9797 30.0986 84.755 30.0986 84.528V78.2152C30.0986 77.7557 30.2799 77.3149 30.603 76.9889C30.9261 76.663 31.3646 76.4785 31.8229 76.4756H38.1307C38.589 76.4785 39.0276 76.663 39.3506 76.9889C39.6737 77.3149 39.855 77.7557 39.855 78.2152V84.528C39.8564 84.7554 39.8128 84.9808 39.7267 85.1912C39.6406 85.4016 39.5136 85.5927 39.3532 85.7535C39.1928 85.9143 39.0021 86.0416 38.7923 86.128C38.5824 86.2143 38.3576 86.258 38.1307 86.2566ZM33.5472 82.7993H36.3955V79.9438H33.5472V82.7993Z" fill="white"/>
<path d="M42.1797 69.6048C41.95 69.6034 41.7228 69.5563 41.5114 69.4662C41.3 69.376 41.1085 69.2447 40.9481 69.0799C40.7877 68.915 40.6616 68.7198 40.577 68.5057C40.4924 68.2915 40.4511 68.0627 40.4555 67.8324V64.8894C40.4415 64.508 40.282 64.1467 40.0098 63.8799C39.7376 63.6132 39.3737 63.4615 38.9931 63.4561H30.9392C30.5551 63.4531 30.1852 63.6018 29.9095 63.87C29.6338 64.1382 29.4745 64.5043 29.4659 64.8894V67.8324C29.4849 68.0717 29.4542 68.3124 29.3759 68.5392C29.2976 68.7661 29.1733 68.9742 29.0108 69.1506C28.8483 69.3269 28.6512 69.4676 28.4319 69.5639C28.2125 69.6601 27.9756 69.7098 27.7362 69.7098C27.4967 69.7098 27.2598 69.6601 27.0405 69.5639C26.8211 69.4676 26.624 69.3269 26.4615 69.1506C26.299 68.9742 26.1747 68.7661 26.0964 68.5392C26.0181 68.3124 25.9875 68.0717 26.0064 67.8324V64.8894C26.005 64.241 26.1313 63.5987 26.3782 62.9994C26.625 62.4001 26.9875 61.8556 27.4448 61.3971C27.9021 60.9386 28.4453 60.5752 29.0431 60.3278C29.6409 60.0803 30.2815 59.9536 30.9283 59.9551H38.9822C39.6289 59.9536 40.2696 60.0803 40.8674 60.3278C41.4652 60.5752 42.0083 60.9386 42.4657 61.3971C42.923 61.8556 43.2855 62.4001 43.5323 62.9994C43.7791 63.5987 43.9055 64.241 43.904 64.8894V67.8324C43.904 68.2938 43.7212 68.7362 43.3958 69.0625C43.0704 69.3887 42.629 69.572 42.1688 69.572" fill="white"/>
<path d="M65.3694 104.134C65.3694 104.379 65.318 104.622 65.2183 104.846C65.1187 105.071 64.9731 105.271 64.791 105.436L60.0219 109.713L64.791 113.98C64.9594 114.133 65.0962 114.317 65.1936 114.522C65.2911 114.727 65.3472 114.95 65.3589 115.177C65.3705 115.404 65.3375 115.631 65.2616 115.845C65.1857 116.06 65.0684 116.257 64.9165 116.426C64.7646 116.594 64.581 116.732 64.3762 116.829C64.1714 116.927 63.9494 116.983 63.7229 116.995C63.4964 117.007 63.2699 116.973 63.0562 116.897C62.8425 116.821 62.6458 116.704 62.4774 116.551L56.2896 110.972C56.1046 110.81 55.9562 110.611 55.8545 110.388C55.7528 110.164 55.7002 109.921 55.7002 109.675C55.7002 109.429 55.7528 109.186 55.8545 108.963C55.9562 108.739 56.1046 108.54 56.2896 108.379L62.4774 102.843C62.6454 102.688 62.8425 102.569 63.0571 102.492C63.2717 102.415 63.4995 102.381 63.7272 102.393C63.9548 102.406 64.1778 102.463 64.3829 102.563C64.5881 102.663 64.7713 102.802 64.9219 102.974C65.2003 103.314 65.3577 103.738 65.3694 104.177" fill="#9AC21C"/>
<path d="M55.6572 12.8662C55.6571 12.6196 55.7097 12.3759 55.8113 12.1513C55.913 11.9267 56.0614 11.7266 56.2465 11.5643L61.1138 7.28645L56.3448 3.01957C56.1688 2.8743 56.0239 2.69486 55.9188 2.49204C55.8137 2.28922 55.7506 2.0672 55.7333 1.83932C55.716 1.61144 55.7448 1.38239 55.818 1.16595C55.8912 0.949506 56.0072 0.750127 56.1592 0.579791C56.3097 0.409811 56.4923 0.271453 56.6965 0.172732C56.9007 0.0740111 57.1223 0.0168903 57.3487 0.00467893C57.5751 -0.00753245 57.8016 0.0254083 58.0152 0.101593C58.2287 0.177777 58.4251 0.295691 58.5929 0.448502L64.7915 6.02827C64.9735 6.19143 65.119 6.39125 65.2187 6.61465C65.3183 6.83805 65.3698 7.08002 65.3698 7.32474C65.3698 7.56946 65.3183 7.81143 65.2187 8.03483C65.119 8.25823 64.9735 8.45805 64.7915 8.62121L58.5929 14.2229C58.4265 14.3777 58.2309 14.4976 58.0175 14.5756C57.8042 14.6535 57.5775 14.6879 57.3508 14.6767C57.124 14.6654 56.9018 14.6089 56.6971 14.5103C56.4925 14.4117 56.3096 14.273 56.1592 14.1025C55.8542 13.7611 55.6768 13.3241 55.6572 12.8662Z" fill="#9AC21C"/>
<path d="M6.67871 58.6641C6.68568 62.0057 7.00722 65.3392 7.63907 68.6202C7.71202 68.994 7.91155 69.331 8.20389 69.5742C8.49622 69.8174 8.86341 69.9519 9.2433 69.9549C9.34853 69.9657 9.45456 69.9657 9.55979 69.9549C9.98475 69.8727 10.36 69.6252 10.6033 69.2664C10.8467 68.9076 10.9384 68.4667 10.8585 68.0403C9.30655 59.9564 9.79042 51.6121 12.2662 43.7629C11.2854 43.1883 10.3513 42.5372 9.47248 41.8154C7.62768 47.2405 6.68387 52.9325 6.67871 58.6641Z" fill="#9AC21C"/>
<path d="M59.2692 5.9408C51.9783 5.93904 44.7673 7.46313 38.0977 10.4156C38.8924 11.2324 39.6221 12.1103 40.2803 13.0413C46.2931 10.5133 52.7491 9.21511 59.2692 9.22301C59.7033 9.22301 60.1197 9.05011 60.4267 8.74234C60.7337 8.43458 60.9062 8.01715 60.9062 7.5819C60.9062 7.14666 60.7337 6.72923 60.4267 6.42147C60.1197 6.1137 59.7033 5.9408 59.2692 5.9408Z" fill="#9AC21C"/>
<path d="M23.0377 48.5002C18.4813 48.5002 14.0272 47.1456 10.2386 44.6078C6.45011 42.07 3.49732 38.4629 1.75365 34.2427C0.00998193 30.0225 -0.446241 25.3787 0.442673 20.8986C1.33159 16.4184 3.52571 12.3031 6.74759 9.0731C9.96947 5.84309 14.0744 3.64342 18.5433 2.75226C23.0121 1.8611 27.6442 2.31848 31.8538 4.06655C36.0634 5.81462 39.6614 8.77487 42.1928 12.573C44.7242 16.3711 46.0754 20.8364 46.0754 25.4043C46.0696 31.528 43.6406 37.3991 39.3214 41.7292C35.0023 46.0592 29.1459 48.4944 23.0377 48.5002ZM23.0377 5.95174C19.2 5.95174 15.4485 7.09261 12.2576 9.23009C9.06672 11.3676 6.57972 14.4057 5.1111 17.9601C3.64249 21.5146 3.25824 25.4259 4.00693 29.1993C4.75562 32.9728 6.60363 36.4389 9.31728 39.1594C12.0309 41.8799 15.4883 43.7326 19.2522 44.4832C23.0162 45.2337 26.9176 44.8485 30.4631 43.3762C34.0087 41.9039 37.0391 39.4106 39.1712 36.2116C41.3033 33.0126 42.4413 29.2517 42.4413 25.4043C42.4326 20.2478 40.3856 15.305 36.7485 11.6589C33.1115 8.01267 28.1812 5.96042 23.0377 5.95174Z" fill="#9AC21C"/>
<path d="M110.015 72.4603C113.177 60.7433 112.221 48.2925 107.309 37.1984C107.131 36.8009 106.803 36.4905 106.396 36.3356C105.99 36.1807 105.539 36.1939 105.142 36.3724C104.746 36.5508 104.436 36.8799 104.282 37.2872C104.127 37.6944 104.141 38.1466 104.319 38.5441C108.676 48.3729 109.722 59.3569 107.298 69.8345C108.28 70.6349 109.189 71.5209 110.015 72.4822" fill="#9AC21C"/>
<path d="M59.2698 108.094C58.8356 108.094 58.4193 108.267 58.1123 108.575C57.8053 108.883 57.6328 109.3 57.6328 109.735C57.6328 110.171 57.8053 110.588 58.1123 110.896C58.4193 111.204 58.8356 111.376 59.2698 111.376C67.9103 111.387 76.4185 109.248 84.0317 105.151C82.922 104.556 81.8666 103.864 80.8778 103.083C74.1521 106.388 66.7599 108.102 59.2698 108.094Z" fill="#9AC21C"/>
<path d="M93.9625 109.407C89.4061 109.407 84.952 108.053 81.1634 105.515C77.3749 102.977 74.4221 99.3699 72.6785 95.1497C70.9348 90.9295 70.4786 86.2857 71.3675 81.8055C72.2564 77.3254 74.4505 73.2101 77.6724 69.9801C80.8943 66.7501 84.9992 64.5504 89.4681 63.6592C93.9369 62.7681 98.569 63.2255 102.779 64.9735C106.988 66.7216 110.586 69.6819 113.118 73.4799C115.649 77.278 117 81.7434 117 86.3113C116.994 92.4349 114.565 98.3061 110.246 102.636C105.927 106.966 100.071 109.401 93.9625 109.407ZM93.9625 66.8587C90.1248 66.8587 86.3733 67.9996 83.1824 70.1371C79.9915 72.2746 77.5045 75.3126 76.0359 78.8671C74.5673 82.4216 74.183 86.3329 74.9317 90.1063C75.6804 93.8798 77.5284 97.3459 80.2421 100.066C82.9557 102.787 86.4131 104.64 90.177 105.39C93.941 106.141 97.8424 105.755 101.388 104.283C104.933 102.811 107.964 100.318 110.096 97.1186C112.228 93.9196 113.366 90.1587 113.366 86.3113C113.346 81.1624 111.294 76.2308 107.658 72.5941C104.022 68.9574 99.0985 66.9111 93.9625 66.9025" fill="#9AC21C"/>
<path d="M20.4189 26.8266V30.3714H27.4797V33.9162H20.408V37.472H16.8612V33.9162H13.3145V30.4043H16.8176V26.8485H13.3254V23.2819H16.8176V12.5928H17.2868H27.4688C29.2866 12.66 31.0094 13.4237 32.2823 14.7265C33.5551 16.0293 34.281 17.7719 34.3104 19.5953C34.3398 21.4187 33.6704 23.1839 32.4402 24.5272C31.21 25.8706 29.5127 26.6896 27.698 26.8157C25.4499 26.8157 23.2018 26.8157 20.9428 26.8157H20.4189M20.4189 16.1266V23.2381C22.8962 23.2381 25.3408 23.2928 27.7744 23.2381C28.6768 23.1878 29.5257 22.793 30.1467 22.1347C30.7678 21.4765 31.1139 20.6048 31.1139 19.6988C31.1139 18.7927 30.7678 17.921 30.1467 17.2628C29.5257 16.6046 28.6768 16.2098 27.7744 16.1594C25.3408 16.0938 22.8962 16.1594 20.4189 16.1594" fill="#9AC21C"/>
<path d="M92.3693 83.3354C94.5519 83.3354 96.4617 83.3354 98.3497 83.3354C98.9035 83.3022 99.4591 83.3242 100.009 83.401C100.362 83.4184 100.703 83.5362 100.993 83.7407C101.282 83.9453 101.507 84.2281 101.642 84.5561C101.777 84.8842 101.816 85.2439 101.755 85.5935C101.694 85.943 101.535 86.2678 101.296 86.5301C99.4629 89.134 92.4566 98.7399 91.9546 99.3417C91.8115 99.5654 91.6227 99.7561 91.4007 99.9014C91.1787 100.047 90.9285 100.143 90.6667 100.185C90.4048 100.226 90.1371 100.211 89.8814 100.141C89.6256 100.071 89.3874 99.9481 89.1827 99.7793C88.9825 99.6243 88.8172 99.4287 88.6974 99.2054C88.5777 98.982 88.5062 98.7359 88.4877 98.483C88.4692 98.2301 88.504 97.9762 88.5899 97.7377C88.6758 97.4992 88.8108 97.2815 88.9862 97.0988C90.3176 95.2279 94.0172 90.2062 95.3595 88.3462C95.5559 88.0837 96.1125 87.2522 96.1125 87.2522C96.1125 87.2522 90.9178 87.1865 88.9644 87.2522C88.5437 87.295 88.1197 87.2144 87.7438 87.0202C87.368 86.826 87.0565 86.5265 86.8472 86.1581C86.6602 85.7726 86.6038 85.3364 86.6865 84.9158C86.7692 84.4953 86.9866 84.1132 87.3056 83.8277C89.4882 80.7534 93.1114 76.3115 95.3704 73.259C96.2762 72.0336 97.2693 71.8258 98.2078 72.5478C99.1464 73.2699 99.1791 74.2765 98.3388 75.5128C98.3388 75.6112 92.8058 82.7118 92.4239 83.3354" fill="#9AC21C"/>
</svg>
