<svg width="101" height="93" viewBox="0 0 101 93" fill="none" xmlns="http://www.w3.org/2000/svg">
<g clip-path="url(#clip0_1365_138)">
<path d="M55.6471 33.4356C55.4766 33.3315 55.279 33.2806 55.0794 33.2893L51.8799 33.427L51.6047 27.4628C51.6014 27.3373 51.573 27.2138 51.5212 27.0995C51.4693 26.9852 51.3951 26.8825 51.3029 26.7974C51.2106 26.7123 51.1023 26.6466 50.9842 26.6042C50.8662 26.5618 50.7408 26.5436 50.6156 26.5505C50.4643 26.5571 50.3169 26.5995 50.1853 26.6743C50.0537 26.7491 49.9417 26.8542 49.8587 26.9808L43.3736 37.0072C43.3049 37.1127 43.2577 37.2309 43.2347 37.3547C43.2118 37.4786 43.2136 37.6058 43.2399 37.729C43.2663 37.8522 43.3168 37.9689 43.3884 38.0725C43.4601 38.1761 43.5515 38.2645 43.6575 38.3326C43.8222 38.4432 44.0183 38.4975 44.2165 38.4875L47.416 38.3412L47.6827 44.314C47.7012 44.5066 47.7778 44.6891 47.9023 44.8372C48.0268 44.9854 48.1933 45.0922 48.3798 45.1435C48.5663 45.1948 48.764 45.1882 48.9467 45.1246C49.1294 45.061 49.2885 44.9434 49.4028 44.7873L55.9051 34.7609C55.9742 34.6559 56.022 34.5383 56.0456 34.4147C56.0692 34.2912 56.0681 34.1642 56.0426 34.0411C56.017 33.9179 55.9674 33.801 55.8966 33.6971C55.8257 33.5932 55.7351 33.5043 55.6299 33.4356M49.4372 41.1813L49.2652 37.231C49.2519 36.9783 49.1397 36.741 48.9531 36.5704C48.7664 36.3997 48.5202 36.3093 48.2675 36.3187L45.9711 36.422L49.8845 30.5266L50.0565 34.4683C50.062 34.5938 50.0922 34.717 50.1454 34.8308C50.1985 34.9446 50.2736 35.0468 50.3663 35.1315C50.4589 35.2163 50.5674 35.2819 50.6855 35.3246C50.8035 35.3674 50.9288 35.3864 51.0542 35.3806L53.3248 35.2859L49.4372 41.1813Z" fill="#9AC21C"/>
<path d="M66.8543 76.5963C65.7758 76.5963 64.7216 76.9163 63.8248 77.5159C62.9281 78.1154 62.2292 78.9676 61.8165 79.9647C61.4037 80.9617 61.2957 82.0588 61.5061 83.1172C61.7165 84.1757 62.2359 85.1479 62.9985 85.911C63.7611 86.6741 64.7327 87.1938 65.7905 87.4043C66.8483 87.6148 67.9447 87.5068 68.9411 87.0938C69.9375 86.6808 70.7891 85.9815 71.3883 85.0842C71.9875 84.1868 72.3073 83.1319 72.3073 82.0527C72.3084 81.3359 72.1681 80.6258 71.8945 79.9633C71.6209 79.3008 71.2192 78.6988 70.7127 78.1919C70.2061 77.685 69.6045 77.2832 68.9424 77.0094C68.2803 76.7355 67.5707 76.5952 66.8543 76.5963ZM66.8543 84.7723C66.3147 84.7723 65.7872 84.6121 65.3387 84.3119C64.8901 84.0118 64.5407 83.5852 64.3346 83.0862C64.1285 82.5872 64.075 82.0382 64.1809 81.5087C64.2868 80.9793 64.5473 80.4931 64.9295 80.1119C65.3116 79.7307 65.7983 79.4716 66.3277 79.3673C66.8572 79.263 67.4056 79.3183 67.9037 79.5261C68.4017 79.7339 68.8269 80.0849 69.1255 80.5347C69.424 80.9845 69.5825 81.5128 69.5808 82.0527C69.5808 82.4106 69.5102 82.765 69.3731 83.0955C69.236 83.426 69.035 83.7262 68.7817 83.9788C68.5284 84.2315 68.2278 84.4316 67.8971 84.5678C67.5663 84.704 67.212 84.7735 66.8543 84.7723Z" fill="white"/>
<path d="M50.5042 2.91755L98.9787 41.5341C99.2932 41.6814 99.6519 41.7035 99.982 41.5959C100.312 41.4883 100.589 41.259 100.757 40.9546C100.924 40.6502 100.969 40.2934 100.884 39.9568C100.798 39.6201 100.587 39.3286 100.295 39.1416L51.1664 0.172127C50.97 0.0644036 50.7497 0.00793457 50.5257 0.00793457C50.3017 0.00793457 50.0813 0.0644036 49.8849 0.172127L0.705148 38.8834C0.545891 38.9699 0.405212 39.0869 0.291144 39.2277C0.177075 39.3686 0.0918513 39.5305 0.0403375 39.7044C-0.0111764 39.8782 -0.0279712 40.0605 -0.00908803 40.2408C0.00979513 40.4211 0.0639864 40.5959 0.150392 40.7553C0.324895 41.0771 0.62002 41.3164 0.970843 41.4205C1.14455 41.4721 1.32671 41.4889 1.50691 41.47C1.68711 41.4511 1.86182 41.3968 2.02108 41.3104L50.5042 2.91755Z" fill="white"/>
<path d="M60.0767 93H50.7275L53.3508 90.2546H56.86L60.0767 93Z" fill="white"/>
<path d="M88.6493 38.4359H63.5347V41.1641H88.6493V47.1282C86.0236 45.5729 83.1173 44.5506 80.0965 44.1197C77.0758 43.6889 73.9998 43.858 71.0444 44.6173C68.089 45.3766 65.3121 46.7112 62.8724 48.545C60.4327 50.3787 58.3781 52.6756 56.826 55.3043C56.7744 55.3903 56.7228 55.4764 56.6798 55.5624L53.6265 60.907C53.2695 61.5327 52.754 62.0531 52.1318 62.4157C51.5097 62.7784 50.803 62.9704 50.083 62.9725H46.4448C45.3613 62.9725 44.3221 63.4032 43.556 64.1698C42.7898 64.9365 42.3594 65.9763 42.3594 67.0605V80.7101C42.3696 81.9088 42.6924 83.0839 43.2958 84.1194C43.8992 85.1549 44.7623 86.0148 45.7997 86.6141C46.093 86.7144 46.4118 86.7115 46.7031 86.6056C46.9945 86.4998 47.2409 86.2975 47.4016 86.0322C47.5623 85.767 47.6275 85.4547 47.5864 85.1473C47.5453 84.8399 47.4005 84.5557 47.1759 84.342H47.0985C46.4786 83.9809 45.9641 83.4634 45.6065 82.8413C45.2488 82.2191 45.0604 81.514 45.06 80.7962V67.0777C45.06 66.897 45.096 66.718 45.1659 66.5513C45.2358 66.3846 45.3382 66.2336 45.4671 66.1069C45.5961 65.9803 45.749 65.8807 45.9168 65.8139C46.0847 65.7471 46.2642 65.7145 46.4448 65.7179H50.1002C51.3009 65.7161 52.4798 65.3968 53.5175 64.7922C54.5551 64.1877 55.4147 63.3194 56.009 62.2754L59.0623 56.9309C60.4089 54.5905 62.2031 52.5385 64.3424 50.8921C66.4816 49.2457 68.9241 48.0371 71.5303 47.3354C74.1364 46.6337 76.8552 46.4526 79.5313 46.8025C82.2074 47.1523 84.7884 48.0263 87.1269 49.3745C87.6602 49.6843 88.1762 50.0114 88.6751 50.3642V51.8617C86.5924 50.3156 84.2254 49.1959 81.7096 48.5667C79.1938 47.9375 76.5787 47.8111 74.014 48.1949C71.4494 48.5786 68.9855 49.4649 66.7637 50.803C64.5419 52.1411 62.6058 53.9047 61.0663 55.9928C60.791 56.3714 60.5244 56.7501 60.275 57.146L56.1638 63.6266C55.971 63.9313 55.9072 64.3002 55.9862 64.652C56.0652 65.0039 56.2807 65.3099 56.5852 65.5028C56.8005 65.6421 57.0513 65.7168 57.3077 65.7179H88.6406V84.7981H77.4079C77.8896 82.9379 77.8714 80.9833 77.3552 79.1323C76.8389 77.2814 75.8431 75.5998 74.4684 74.2579C73.0937 72.916 71.389 71.9615 69.527 71.491C67.665 71.0205 65.7118 71.0508 63.8652 71.5787C62.0186 72.1066 60.3443 73.1135 59.0117 74.4973C57.6792 75.8811 56.7358 77.5927 56.2771 79.4587C55.8183 81.3248 55.8606 83.279 56.3995 85.1235C56.9385 86.9679 57.955 88.6371 59.3461 89.9619C61.3595 91.7457 63.9418 92.7539 66.6304 92.806C69.319 92.858 71.9384 91.9505 74.0192 90.246C74.8911 89.4482 75.6441 88.5294 76.2554 87.5178H88.6234V90.246H77.1413C77.1413 90.3062 74.7761 92.1652 73.6063 92.9742H90.0168C90.378 92.9719 90.7236 92.8267 90.9782 92.5703C91.2328 92.314 91.3757 91.9672 91.3757 91.6058V38.4359H88.6493ZM62.7864 62.9897H59.8019L62.58 58.6091L62.7692 58.3595L62.7864 62.9897ZM77.7691 62.9897H65.4957V55.1579C68.6265 52.2995 72.7138 50.7182 76.9521 50.7257C77.2273 50.7257 77.4853 50.7257 77.7519 50.7257L77.7691 62.9897ZM66.8547 90.2546C65.2365 90.2546 63.6548 89.7743 62.3095 88.8746C60.9642 87.9749 59.9159 86.6961 59.297 85.2001C58.6782 83.704 58.5167 82.0579 58.833 80.47C59.1493 78.8821 59.9292 77.4238 61.074 76.2795C62.2187 75.1352 63.677 74.3564 65.2642 74.0415C66.8514 73.7267 68.4963 73.89 69.9907 74.5108C71.4852 75.1316 72.762 76.182 73.6598 77.5291C74.5575 78.8762 75.0358 80.4594 75.0341 82.0786C75.0341 83.153 74.8224 84.2168 74.4113 85.2094C74.0001 86.2019 73.3975 87.1036 72.6379 87.8629C71.8782 88.6222 70.9764 89.2243 69.9841 89.6347C68.9918 90.045 67.9284 90.2557 66.8547 90.2546ZM88.6493 62.9897H80.4784V51.0958C83.5486 51.743 86.3779 53.2331 88.6493 55.3989V62.9897Z" fill="white"/>
<path d="M12.3595 38.4531H9.6416V91.6316C9.65278 91.9847 9.80087 92.3196 10.0545 92.5654C10.3082 92.8112 10.6475 92.9485 11.0005 92.9483H25.0458L22.3623 90.2546H12.3595V41.1985H35.9603V38.4531H12.3595Z" fill="white"/>
<path d="M50.1261 51.3367C47.0641 51.3367 44.0709 50.4282 41.525 48.726C38.9791 47.0238 36.9948 44.6043 35.823 41.7736C34.6512 38.943 34.3447 35.8282 34.942 32.8231C35.5394 29.8181 37.0138 27.0578 39.179 24.8913C41.3441 22.7248 44.1027 21.2494 47.1058 20.6516C50.1089 20.0539 53.2218 20.3607 56.0506 21.5332C58.8795 22.7057 61.2974 24.6912 62.9986 27.2388C64.6997 29.7863 65.6077 32.7814 65.6077 35.8453C65.6077 39.9539 63.9766 43.8942 61.0732 46.7994C58.1699 49.7046 54.2321 51.3367 50.1261 51.3367ZM50.1261 22.9961C47.5745 22.9961 45.0801 23.7532 42.9585 25.1717C40.8369 26.5902 39.1833 28.6064 38.2069 30.9653C37.2304 33.3242 36.9749 35.9199 37.4727 38.4241C37.9705 40.9283 39.1992 43.2286 41.0035 45.034C42.8078 46.8394 45.1066 48.0689 47.6092 48.567C50.1118 49.0651 52.7058 48.8095 55.0632 47.8324C57.4206 46.8553 59.4355 45.2007 60.8531 43.0777C62.2708 40.9548 63.0274 38.4588 63.0274 35.9056C63.0274 32.4818 61.6682 29.1982 59.2487 26.7772C56.8292 24.3562 53.5477 22.9961 50.1261 22.9961Z" fill="#9AC21C"/>
<path d="M73.322 36.1466H71.0685C71.1245 33.4083 70.6338 30.6864 69.6253 28.1402C68.6167 25.5941 67.1106 23.2749 65.195 21.3186C63.2795 19.3622 60.9931 17.808 58.4697 16.7469C55.9463 15.6859 53.2367 15.1394 50.4996 15.1394C47.7624 15.1394 45.0528 15.6859 42.5294 16.7469C40.0061 17.808 37.7196 19.3622 35.8041 21.3186C33.8885 23.2749 32.3824 25.5941 31.3738 28.1402C30.3653 30.6864 29.8746 33.4083 29.9306 36.1466H27.6772C27.6182 33.1103 28.165 30.0928 29.2855 27.2704C30.406 24.4481 32.0776 21.8777 34.2027 19.7096C36.3278 17.5415 38.8637 15.8192 41.6619 14.6434C44.4602 13.4677 47.4646 12.8621 50.4996 12.8621C53.5345 12.8621 56.539 13.4677 59.3372 14.6434C62.1354 15.8192 64.6713 17.5415 66.7964 19.7096C68.9215 21.8777 70.5931 24.4481 71.7136 27.2704C72.8341 30.0928 73.3809 33.1103 73.322 36.1466Z" fill="white"/>
<path d="M56.4047 68.5752C56.0217 68.1035 55.5376 67.724 54.9883 67.4648C54.4389 67.2056 53.8383 67.0733 53.231 67.0777H50.5045C49.6648 67.0742 48.8448 67.3314 48.1572 67.8137C47.4697 68.296 46.9485 68.9797 46.6655 69.7707C46.3825 70.5618 46.3516 71.4211 46.577 72.2305C46.8025 73.0398 47.2731 73.7593 47.9242 74.2898C47.8352 74.6064 47.7889 74.9335 47.7866 75.2624V77.982C47.7882 78.8243 48.0503 79.6454 48.5369 80.3327C49.0236 81.0199 49.7109 81.5396 50.5045 81.8204V83.4814C50.5022 85.2885 49.7838 87.0209 48.5068 88.2987C47.2298 89.5765 45.4985 90.2953 43.6926 90.2976H32.7953C30.9901 90.2931 29.2601 89.5735 27.9836 88.2962C26.7071 87.0189 25.988 85.2878 25.9834 83.4814V76.5963H27.351C27.6938 76.5691 28.0138 76.4135 28.2472 76.1607C28.4805 75.9079 28.6101 75.5764 28.6101 75.2322C28.6101 74.8881 28.4805 74.5566 28.2472 74.3038C28.0138 74.0509 27.6938 73.8954 27.351 73.8681H25.9834V71.1658V68.4461V65.4684C26.7779 65.1879 27.4664 64.6686 27.9545 63.9815C28.4426 63.2943 28.7064 62.473 28.7099 61.6299V58.9017C28.7099 57.8175 28.2795 56.7777 27.5133 56.0111C26.7471 55.2444 25.708 54.8137 24.6245 54.8137C23.541 54.8137 22.5018 55.2444 21.7357 56.0111C20.9695 56.7777 20.5391 57.8175 20.5391 58.9017V61.6299C20.5425 62.473 20.8064 63.2943 21.2945 63.9815C21.7826 64.6686 22.471 65.1879 23.2655 65.4684V68.4461V71.1658V73.894H21.898C21.5551 73.9212 21.2352 74.0768 21.0018 74.3296C20.7684 74.5824 20.6388 74.9139 20.6388 75.2581C20.6388 75.6022 20.7684 75.9337 21.0018 76.1865C21.2352 76.4394 21.5551 76.5949 21.898 76.6222H23.2655V83.4814C23.2365 84.7421 23.4623 85.9958 23.9293 87.167C24.3964 88.3383 25.095 89.4031 25.9834 90.2976C25.9834 90.2976 28.0734 92.9484 32.6835 92.9484H43.4948C48.3801 92.9484 50.3755 90.2202 50.3755 90.2202C51.2746 89.3428 51.9901 88.2951 52.4804 87.1381C52.9707 85.9811 53.2258 84.7381 53.231 83.4814V81.8204C54.0255 81.54 54.714 81.0206 55.202 80.3335C55.6901 79.6463 55.954 78.825 55.9574 77.982V75.2624C55.958 74.9339 55.9146 74.6068 55.8284 74.2898C56.662 73.6084 57.1909 72.6236 57.299 71.5519C57.4071 70.4803 57.0854 69.4096 56.4047 68.5752ZM24.6245 62.9897C24.2641 62.9897 23.9184 62.8465 23.6636 62.5915C23.4087 62.3364 23.2655 61.9906 23.2655 61.6299V58.9017C23.2655 58.5411 23.4087 58.1952 23.6636 57.9402C23.9184 57.6852 24.2641 57.5419 24.6245 57.5419C24.9849 57.5419 25.3305 57.6852 25.5854 57.9402C25.8402 58.1952 25.9834 58.5411 25.9834 58.9017V61.6299C25.9834 61.9906 25.8402 62.3364 25.5854 62.5915C25.3305 62.8465 24.9849 62.9897 24.6245 62.9897ZM53.231 77.982C53.2459 78.1702 53.2218 78.3595 53.16 78.538C53.0983 78.7164 53.0004 78.8802 52.8723 79.0189C52.7443 79.1576 52.5889 79.2683 52.416 79.344C52.2431 79.4197 52.0564 79.4588 51.8677 79.4588C51.679 79.4588 51.4923 79.4197 51.3194 79.344C51.1466 79.2683 50.9912 79.1576 50.8631 79.0189C50.7351 78.8802 50.6371 78.7164 50.5754 78.538C50.5137 78.3595 50.4895 78.1702 50.5045 77.982V75.2624C50.4895 75.0741 50.5137 74.8848 50.5754 74.7064C50.6371 74.5279 50.7351 74.3642 50.8631 74.2254C50.9912 74.0867 51.1466 73.976 51.3194 73.9003C51.4923 73.8246 51.679 73.7855 51.8677 73.7855C52.0564 73.7855 52.2431 73.8246 52.416 73.9003C52.5889 73.976 52.7443 74.0867 52.8723 74.2254C53.0004 74.3642 53.0983 74.5279 53.16 74.7064C53.2218 74.8848 53.2459 75.0741 53.231 75.2624V77.982ZM54.3061 71.9575C53.606 71.4256 52.7511 71.1377 51.872 71.1377C50.993 71.1377 50.1381 71.4256 49.438 71.9575C49.2175 71.6765 49.1172 71.3195 49.1592 70.9646C49.2011 70.6098 49.3817 70.286 49.6616 70.0641C49.9096 69.878 50.2117 69.7783 50.5217 69.7801H53.2482C53.4251 69.7779 53.6007 69.8106 53.7649 69.8765C53.9291 69.9424 54.0787 70.0402 54.205 70.1642C54.3313 70.2882 54.4319 70.4359 54.5009 70.599C54.5699 70.762 54.606 70.9371 54.6071 71.1141C54.6188 71.4258 54.518 71.7312 54.3233 71.9747" fill="#9AC21C"/>
<path d="M19.1714 68.4461C18.8101 68.4439 18.4645 68.2987 18.2099 68.0423C17.9553 67.7859 17.8124 67.4392 17.8124 67.0777V53.4453C17.8124 53.0847 17.9556 52.7388 18.2104 52.4838C18.4653 52.2288 18.8109 52.0855 19.1714 52.0855H30.1031C30.4635 52.0855 30.8091 52.2288 31.064 52.4838C31.3188 52.7388 31.462 53.0847 31.462 53.4453V67.0777C31.462 67.4392 31.3191 67.7859 31.0645 68.0423C30.8099 68.2987 30.4643 68.4439 30.1031 68.4461H28.2109V71.1657H30.1031C31.1866 71.1657 32.2257 70.735 32.9919 69.9684C33.758 69.2017 34.1885 68.1619 34.1885 67.0777V53.4453C34.1885 52.3611 33.758 51.3213 32.9919 50.5546C32.2257 49.788 31.1866 49.3573 30.1031 49.3573H19.1714C18.0878 49.3573 17.0487 49.788 16.2825 50.5546C15.5164 51.3213 15.0859 52.3611 15.0859 53.4453V67.0777C15.0859 68.1619 15.5164 69.2017 16.2825 69.9684C17.0487 70.735 18.0878 71.1657 19.1714 71.1657H21.0721V68.4461H19.1714Z" fill="#9AC21C"/>
<path d="M18.7932 27.3595H16.2129V10.1469C16.2129 9.7743 16.2864 9.40541 16.4291 9.06131C16.5718 8.71722 16.7811 8.4047 17.0447 8.14166C17.3084 7.87861 17.6214 7.67023 17.9657 7.52844C18.31 7.38665 18.6789 7.31425 19.0512 7.31538H27.7123C28.0846 7.31425 28.4535 7.38665 28.7978 7.52844C29.1421 7.67023 29.455 7.87861 29.7187 8.14166C29.9824 8.4047 30.1916 8.71722 30.3343 9.06131C30.4771 9.40541 30.5505 9.7743 30.5505 10.1469V18.2454H27.9703V10.1383C27.968 10.0713 27.9399 10.0078 27.8917 9.96123C27.8436 9.91465 27.7792 9.88864 27.7123 9.88867H19.0512C19.0177 9.88752 18.9843 9.89312 18.9531 9.90514C18.9218 9.91717 18.8933 9.93537 18.8692 9.95866C18.8451 9.98195 18.826 10.0099 18.8129 10.0407C18.7999 10.0716 18.7931 10.1047 18.7932 10.1383V27.3595Z" fill="white"/>
</g>
<defs>
<clipPath id="clip0_1365_138">
<rect width="101" height="93" fill="white"/>
</clipPath>
</defs>
</svg>
