<svg width="103" height="93" viewBox="0 0 103 93" fill="none" xmlns="http://www.w3.org/2000/svg">
<g clip-path="url(#clip0_1365_78)">
<path d="M41.382 0V4.85833H36.6182V8.18673H41.382V13.0207H44.5977V8.18673H49.3854V4.85833H44.5977V0H41.382Z" fill="#9AC21C"/>
<path d="M62.4402 58.6581C62.2462 58.6578 62.059 58.5854 61.9135 58.4546C60.3264 57.0263 59.1418 55.1918 58.4823 53.1406C57.5969 50.3619 57.7132 47.3522 58.8104 44.6533C59.9076 41.9544 61.9135 39.7436 64.467 38.4191C64.5607 38.37 64.663 38.3403 64.768 38.3318C64.873 38.3233 64.9786 38.336 65.0787 38.3693C65.1789 38.4026 65.2716 38.4557 65.3515 38.5258C65.4314 38.5958 65.4969 38.6812 65.5442 38.7771C65.592 38.8732 65.6207 38.978 65.6285 39.0854C65.6363 39.1928 65.6232 39.3008 65.5898 39.403C65.5564 39.5052 65.5034 39.5996 65.4339 39.6807C65.3645 39.7619 65.2799 39.8282 65.1851 39.8758C63.6719 40.6524 62.3682 41.7953 61.3879 43.2044C60.4077 44.6135 59.7807 46.246 59.5619 47.9592C59.3431 49.6724 59.539 51.4142 60.1325 53.0324C60.7261 54.6506 61.6992 56.0959 62.9668 57.2421C63.0854 57.3519 63.1688 57.4957 63.2061 57.6546C63.2435 57.8135 63.2331 57.9802 63.1763 58.1329C63.1195 58.2857 63.0188 58.4175 62.8876 58.5112C62.7563 58.6048 62.6004 58.656 62.4402 58.6581Z" fill="#9AC21C"/>
<path d="M100.933 47.4114H99.8402C98.2443 47.4114 96.3532 46.3291 96.0021 44.7178V44.5387L95.7706 41.0394C95.692 40.7607 95.5467 40.5062 95.3477 40.2989L93.3608 38.297C93.0529 37.9856 92.6374 37.8103 92.2038 37.8087H86.1074V28.7593H95.3238C95.9417 28.7679 96.5497 28.9187 97.1024 29.2006C97.6551 29.4824 98.1382 29.8879 98.5156 30.3869L100.199 32.6574C100.865 33.5486 101.427 34.5153 101.875 35.5382C102.461 36.894 102.833 38.336 102.976 39.8106V39.9408V45.1491C102.996 45.4383 102.957 45.7286 102.862 46.0019C102.767 46.2752 102.618 46.5257 102.424 46.7379C102.231 46.95 101.996 47.1193 101.736 47.2351C101.475 47.351 101.194 47.411 100.909 47.4114M98.3321 44.2376C98.5169 44.4571 98.7441 44.6353 98.9995 44.7613C99.2548 44.8873 99.5328 44.9584 99.8163 44.97H100.614V40.0059C100.493 38.8094 100.189 37.6396 99.7125 36.5392C99.3447 35.6713 98.8758 34.8516 98.3161 34.0978L96.6324 31.8355C96.4763 31.6284 96.2758 31.4606 96.0461 31.3449C95.8165 31.2292 95.5639 31.1688 95.3078 31.1682H88.4933V35.3348H92.2118C93.2798 35.3378 94.3036 35.7706 95.0605 36.5392L97.0234 38.5411C97.5656 39.0952 97.942 39.7952 98.1087 40.5593V40.7383L98.3321 44.2376Z" fill="#9AC21C"/>
<path d="M73.2758 45.8001L75.8053 45.6862L76.699 45.6374C76.91 45.6192 77.1216 45.6644 77.3078 45.7675C77.4939 45.8705 77.6464 46.0268 77.7465 46.2171C77.8466 46.4074 77.8899 46.6234 77.8711 46.8385C77.8523 47.0537 77.7721 47.2585 77.6406 47.4277C77.1459 48.1276 76.6352 48.8274 76.1245 49.5273C73.2518 53.5149 70.3739 57.497 67.4906 61.4737C67.3596 61.7204 67.1428 61.9082 66.8829 62C66.623 62.0919 66.3388 62.0812 66.0862 61.9701C65.8375 61.8525 65.6399 61.6457 65.531 61.3891C65.4221 61.1325 65.4096 60.844 65.4957 60.5786C66.0277 57.6109 66.5597 54.6406 67.0916 51.6676L67.1475 51.2769H66.7326C65.9346 51.2769 65.0728 51.2769 64.2509 51.2769C64.0646 51.2932 63.8773 51.2596 63.7076 51.1797C63.5378 51.0997 63.3914 50.976 63.2827 50.8209C63.174 50.6657 63.1068 50.4843 63.0877 50.2946C63.0686 50.1049 63.0982 49.9134 63.1737 49.7389C63.8839 47.4847 64.602 45.2223 65.3202 42.9681L67.1156 37.3286C67.1628 37.0433 67.316 36.7877 67.5435 36.6149C67.7709 36.442 68.055 36.3654 68.3364 36.4008H74.7839C74.9836 36.3723 75.1871 36.4005 75.3719 36.4826C75.5568 36.5646 75.7158 36.6971 75.8315 36.8656C75.9471 37.034 76.0148 37.2318 76.027 37.437C76.0393 37.6422 75.9957 37.8469 75.9011 38.0284C75.1031 40.4698 74.3051 42.8135 73.5072 45.2142C73.4513 45.3932 73.3875 45.5804 73.2997 45.8408M74.5844 48.0055L71.9991 48.1276C70.9298 48.1276 70.4031 47.5009 70.7862 46.5L73.2598 39.0619C73.3077 38.9317 73.3396 38.8015 73.3875 38.6306C71.9512 38.6306 70.5627 38.6306 69.1823 38.6306C69.0785 38.6306 68.9269 38.8178 68.8791 38.948L65.8867 48.388L65.6793 49.096C66.6208 49.096 67.4986 49.096 68.3763 49.096C68.5473 49.0804 68.7194 49.1068 68.8784 49.1729C69.0374 49.2389 69.1785 49.3427 69.2902 49.4757C69.4018 49.6087 69.4807 49.7669 69.5202 49.9373C69.5597 50.1076 69.5588 50.2851 69.5174 50.455L68.9668 53.4904C68.7993 54.4019 68.6397 55.3215 68.4721 56.2329H68.5519L74.5605 47.9078" fill="#9AC21C"/>
<path d="M98.6994 49.1611V75.9348C98.6994 76.4959 98.4808 77.0341 98.0918 77.4309C97.7027 77.8277 97.175 78.0506 96.6247 78.0506C96.0745 78.0506 95.5468 77.8277 95.1577 77.4309C94.7686 77.0341 94.5501 76.4959 94.5501 75.9348V53.58C94.5501 53.58 94.5501 53.523 94.5501 53.4904C94.503 52.4288 94.0576 51.4263 93.3061 50.6901C92.5546 49.954 91.5544 49.5406 90.5124 49.5354H88.334V51.7815H90.4964C90.7433 51.7814 90.9877 51.8315 91.2154 51.9289C91.4431 52.0262 91.6495 52.1688 91.8225 52.3483C91.9956 52.5278 92.1319 52.7407 92.2234 52.9745C92.315 53.2084 92.3599 53.4584 92.3557 53.7102V76.008C92.3557 76.008 92.3557 76.008 92.3557 76.065C92.4162 77.1872 92.8998 78.242 93.7055 79.0089C94.5111 79.7757 95.5763 80.1951 96.6782 80.1793C97.7801 80.1635 98.8333 79.7138 99.6175 78.9242C100.402 78.1347 100.856 77.0664 100.886 75.9429V49.1611H98.6994Z" fill="#9AC21C"/>
<path d="M98.3079 46.5244H101.109C101.261 46.5244 101.407 46.5861 101.515 46.696C101.623 46.8059 101.683 46.9549 101.683 47.1103V49.1041C101.683 49.2603 101.623 49.4102 101.515 49.5213C101.408 49.6325 101.262 49.6961 101.109 49.6982H98.3079C98.1548 49.6961 98.0087 49.6325 97.9012 49.5213C97.7937 49.4102 97.7334 49.2603 97.7334 49.1041V47.1103C97.7334 46.9549 97.7939 46.8059 97.9017 46.696C98.0094 46.5861 98.1555 46.5244 98.3079 46.5244Z" fill="#9AC21C"/>
<path d="M78.2955 74.3967H57.7322C57.4254 74.3967 57.1311 74.2724 56.9141 74.0511C56.6971 73.8298 56.5752 73.5297 56.5752 73.2167C56.5752 72.9038 56.6971 72.6036 56.9141 72.3824C57.1311 72.1611 57.4254 72.0367 57.7322 72.0367H78.2955C82.5646 72.0367 86.0357 68.1875 86.0357 63.4513V15.0877C86.0399 14.0193 85.8589 12.9587 85.5011 11.9546C85.4082 11.6642 85.4294 11.3485 85.5601 11.0738C85.6908 10.799 85.9208 10.5867 86.2018 10.4813C86.4829 10.3759 86.793 10.3858 87.0671 10.5087C87.3412 10.6317 87.5578 10.8583 87.6715 11.1408C88.1202 12.4036 88.3497 13.7364 88.3498 15.0795V63.4757C88.3498 69.514 83.8413 74.4212 78.2955 74.4212" fill="#9AC21C"/>
<path d="M55.0592 16.2758C54.7537 16.2737 54.4615 16.1484 54.2462 15.9273C54.031 15.7063 53.9101 15.4074 53.9102 15.0958C53.9102 9.06562 58.4186 4.15033 63.9564 4.15033H78.3196C79.7608 4.15115 81.1828 4.48796 82.4769 5.13502C82.7316 5.28399 82.9212 5.52611 83.0073 5.81233C83.0934 6.09854 83.0697 6.40744 82.9408 6.67645C82.812 6.94546 82.5877 7.15446 82.3134 7.26112C82.0391 7.36778 81.7353 7.36412 81.4635 7.25087C80.478 6.75733 79.3936 6.50383 78.2957 6.51032H63.9325C59.6634 6.51032 56.1923 10.3596 56.1923 15.0958C56.1924 15.4046 56.0738 15.7011 55.8619 15.9217C55.6501 16.1423 55.3619 16.2694 55.0592 16.2758Z" fill="#9AC21C"/>
<path d="M77.4418 13.9809C77.8962 13.9583 78.3503 14.0301 78.7767 14.1918C79.2031 14.3536 79.5929 14.602 79.9223 14.922C80.2517 15.242 80.514 15.6269 80.6932 16.0533C80.8724 16.4798 80.9648 16.9389 80.9648 17.4029C80.9648 17.8669 80.8724 18.326 80.6932 18.7525C80.514 19.1789 80.2517 19.5638 79.9223 19.8838C79.5929 20.2038 79.2031 20.4522 78.7767 20.614C78.3503 20.7757 77.8962 20.8475 77.4418 20.8249H66.5417C66.0873 20.8475 65.6331 20.7757 65.2067 20.614C64.7803 20.4522 64.3906 20.2038 64.0612 19.8838C63.7317 19.5638 63.4695 19.1789 63.2902 18.7525C63.111 18.326 63.0186 17.8669 63.0186 17.4029C63.0186 16.9389 63.111 16.4798 63.2902 16.0533C63.4695 15.6269 63.7317 15.242 64.0612 14.922C64.3906 14.602 64.7803 14.3536 65.2067 14.1918C65.6331 14.0301 66.0873 13.9583 66.5417 13.9809H77.4418ZM77.4418 11.5395H66.5417C65.7687 11.5102 64.9978 11.6401 64.2751 11.9215C63.5524 12.2029 62.8928 12.6301 62.3358 13.1775C61.7787 13.7248 61.3356 14.3811 61.0329 15.1071C60.7302 15.8332 60.5742 16.614 60.5742 17.4029C60.5742 18.1918 60.7302 18.9726 61.0329 19.6986C61.3356 20.4247 61.7787 21.081 62.3358 21.6283C62.8928 22.1757 63.5524 22.6029 64.2751 22.8843C64.9978 23.1657 65.7687 23.2956 66.5417 23.2663H77.4418C78.2148 23.2956 78.9857 23.1657 79.7083 22.8843C80.431 22.6029 81.0906 22.1757 81.6477 21.6283C82.2048 21.081 82.6479 20.4247 82.9506 19.6986C83.2532 18.9726 83.4092 18.1918 83.4092 17.4029C83.4092 16.614 83.2532 15.8332 82.9506 15.1071C82.6479 14.3811 82.2048 13.7248 81.6477 13.1775C81.0906 12.6301 80.431 12.2029 79.7083 11.9215C78.9857 11.6401 78.2148 11.5102 77.4418 11.5395Z" fill="#9AC21C"/>
<path d="M78.8942 80.4758H60.9961V72.167H78.8942V80.4758ZM63.0389 78.3681H76.8275V74.2991H63.0389V78.3681Z" fill="#9AC21C"/>
<path d="M71.4245 28.2385C71.2649 28.2216 71.1103 28.1719 70.97 28.0924C70.8297 28.013 70.7067 27.9054 70.6083 27.7761C70.5098 27.6468 70.4381 27.4986 70.3974 27.3403C70.3566 27.182 70.3477 27.017 70.3712 26.8551C70.4207 26.5541 70.5743 26.2811 70.8041 26.0855C71.0339 25.89 71.3247 25.7848 71.624 25.789C71.9405 25.8293 72.231 25.9883 72.439 26.2349C72.647 26.4816 72.7575 26.7984 72.7491 27.1236C72.711 27.4449 72.551 27.7381 72.3034 27.9405C72.0557 28.1428 71.7402 28.2381 71.4245 28.206" fill="#9AC21C"/>
<path d="M76.2448 28.2385C76.0852 28.2216 75.9306 28.1719 75.7903 28.0925C75.65 28.013 75.527 27.9054 75.4286 27.7761C75.3302 27.6469 75.2584 27.4986 75.2177 27.3403C75.1769 27.182 75.168 27.017 75.1915 26.8551C75.2428 26.5534 75.3979 26.2803 75.629 26.0848C75.8602 25.8894 76.1521 25.7845 76.4523 25.789C76.7674 25.8312 77.0559 25.9909 77.2623 26.2374C77.4686 26.4839 77.578 26.7997 77.5694 27.1236C77.5333 27.4458 77.3738 27.7403 77.1257 27.943C76.8776 28.1458 76.5609 28.2403 76.2448 28.206" fill="#9AC21C"/>
<path d="M67.9298 27.0667C67.9331 27.2208 67.9058 27.374 67.8497 27.5171C67.7936 27.6603 67.7098 27.7904 67.6033 27.8998C67.4968 28.0091 67.3698 28.0955 67.2298 28.1537C67.0899 28.2119 66.9399 28.2408 66.7887 28.2386C66.6288 28.2476 66.4687 28.2227 66.3187 28.1655C66.1687 28.1082 66.0319 28.0197 65.9172 27.9057C65.8024 27.7918 65.7121 27.6547 65.652 27.5033C65.5918 27.3518 65.5632 27.1893 65.5679 27.026C65.5791 26.7158 65.7029 26.4208 65.9151 26.1983C66.1274 25.9758 66.4131 25.8415 66.7169 25.8216C66.8769 25.8216 67.0353 25.8539 67.1829 25.9165C67.3306 25.9792 67.4647 26.071 67.5774 26.1868C67.6901 26.3025 67.7793 26.4398 67.8398 26.5908C67.9003 26.7418 67.9309 26.9036 67.9298 27.0667Z" fill="#9AC21C"/>
<path d="M70.7226 61.49C70.5216 61.4907 70.3277 61.4139 70.1798 61.2751C70.0318 61.1363 69.9407 60.9457 69.9246 60.7413C69.9159 60.6344 69.928 60.5267 69.9602 60.4246C69.9924 60.3224 70.0442 60.2278 70.1124 60.1461C70.1806 60.0644 70.264 59.9973 70.3578 59.9486C70.4516 59.8999 70.5538 59.8706 70.6587 59.8624C71.4729 59.792 72.2762 59.6255 73.0526 59.366C74.8395 58.7646 76.4323 57.6788 77.6606 56.225C78.8888 54.7711 79.7061 53.0039 80.025 51.1127C80.3439 49.2214 80.1524 47.2773 79.471 45.4885C78.7896 43.6998 77.6439 42.1337 76.1567 40.9581C75.991 40.825 75.8838 40.6304 75.8584 40.4169C75.8329 40.2035 75.8914 39.9884 76.021 39.8188C76.1503 39.6486 76.3405 39.5376 76.5499 39.5102C76.7593 39.4827 76.9708 39.541 77.1381 39.6723C78.8542 41.0289 80.176 42.8359 80.9622 44.9C81.7484 46.964 81.9693 49.2073 81.6011 51.3895C81.233 53.5718 80.2898 55.6108 78.8725 57.2883C77.4552 58.9657 75.6172 60.2184 73.5553 60.9122C72.6461 61.2121 71.7065 61.4059 70.7545 61.49H70.6907" fill="#9AC21C"/>
<path d="M88.9325 84.9679H56.4717V82.852H88.9325C89.0487 82.8535 89.1631 82.8233 89.2641 82.7647C89.3651 82.706 89.4489 82.621 89.507 82.5184C89.5652 82.4172 89.5959 82.302 89.5959 82.1847C89.5959 82.0674 89.5652 81.9523 89.507 81.8511L87.7675 78.5959C87.5606 78.2239 87.2616 77.9138 86.9003 77.6968C86.5389 77.4797 86.1281 77.3632 85.7087 77.359H80.6816V75.2431H85.7087C86.4999 75.2428 87.2765 75.4595 87.9574 75.8704C88.6383 76.2813 89.1983 76.8713 89.5788 77.5787L91.3184 80.8338C91.5468 81.2585 91.663 81.7364 91.6555 82.2207C91.648 82.705 91.5171 83.1789 91.2756 83.596C91.0341 84.013 90.6903 84.3588 90.2781 84.5994C89.8659 84.8399 89.3994 84.9669 88.9245 84.9679" fill="#9AC21C"/>
<path d="M86.4024 8.21114C86.4024 8.47511 86.3257 8.73314 86.1819 8.95262C86.0381 9.17209 85.8337 9.34315 85.5946 9.44417C85.3555 9.54518 85.0924 9.57161 84.8385 9.52012C84.5846 9.46862 84.3515 9.34151 84.1685 9.15486C83.9854 8.96821 83.8608 8.7304 83.8103 8.47151C83.7598 8.21262 83.7857 7.94428 83.8848 7.70041C83.9838 7.45654 84.1516 7.2481 84.3668 7.10145C84.582 6.9548 84.835 6.87653 85.0938 6.87653C85.2657 6.87653 85.4358 6.91105 85.5946 6.97812C85.7534 7.04519 85.8976 7.1435 86.0192 7.26743C86.1407 7.39136 86.2371 7.53848 86.3028 7.70041C86.3686 7.86233 86.4024 8.03588 86.4024 8.21114Z" fill="#9AC21C"/>
<path d="M49.2502 33.7642C49.5422 33.7642 49.8223 33.6458 50.0288 33.4352C50.2353 33.2246 50.3514 32.939 50.3514 32.6411V26.3994C50.3514 25.7273 50.0918 25.0822 49.6288 24.6039C49.1658 24.1256 48.5367 23.8526 47.8777 23.8441H31.1206C30.4575 23.8462 29.8223 24.1164 29.3541 24.5954C28.8859 25.0743 28.623 25.7231 28.623 26.3994V36.2706C28.623 36.9462 28.8862 37.5941 29.3546 38.0718C29.823 38.5494 30.4582 38.8178 31.1206 38.8178H49.2502C49.4021 38.831 49.5551 38.8119 49.6994 38.7617C49.8438 38.7115 49.9763 38.6312 50.0886 38.526C50.201 38.4208 50.2906 38.293 50.352 38.1506C50.4133 38.0082 50.445 37.8544 50.445 37.6988C50.445 37.5433 50.4133 37.3895 50.352 37.2471C50.2906 37.1047 50.201 36.9769 50.0886 36.8717C49.9763 36.7665 49.8438 36.6862 49.6994 36.636C49.5551 36.5858 49.4021 36.5667 49.2502 36.5799H44.6061C44.4212 35.7063 44.026 34.8933 43.4563 34.2143C42.8866 33.5352 42.1601 33.0114 41.3424 32.69L42.699 30.7694C42.8583 30.5273 42.919 30.2315 42.8683 29.9445C42.8176 29.6575 42.6594 29.4019 42.4272 29.2318C42.1951 29.0616 41.9071 28.9902 41.6243 29.0326C41.3414 29.0751 41.0858 29.228 40.9116 29.4592L38.8528 32.3889C37.7558 32.5177 36.7266 32.996 35.9115 33.7557C35.0963 34.5154 34.5368 35.5179 34.3125 36.6206H31.0728C30.995 36.6207 30.9202 36.5903 30.8638 36.5358C30.8074 36.4813 30.7736 36.4068 30.7695 36.3276V26.4075C30.7674 26.3684 30.773 26.3292 30.7859 26.2923C30.7989 26.2554 30.819 26.2215 30.8451 26.1926C30.8711 26.1638 30.9026 26.1406 30.9376 26.1244C30.9726 26.1082 31.0104 26.0993 31.0488 26.0983H47.8777C47.9583 26.1002 48.0351 26.1332 48.0929 26.1905C48.1506 26.2479 48.1849 26.3254 48.1889 26.4075V32.6493C48.1889 32.945 48.3041 33.2285 48.5091 33.4376C48.7141 33.6467 48.9922 33.7642 49.2821 33.7642M39.4912 34.578C40.1047 34.5942 40.6994 34.7974 41.1986 35.1615C41.6978 35.5255 42.0786 36.0337 42.292 36.6206H36.6106C36.8289 36.0294 37.2182 35.5198 37.727 35.1594C38.2357 34.799 38.8398 34.6047 39.4593 34.6024" fill="white"/>
<path d="M39.8975 67.3574C41.0233 67.3574 42.1031 66.9013 42.8992 66.0894C43.6953 65.2775 44.1426 64.1763 44.1426 63.0281C44.1426 60.9203 41.3019 57.4455 40.7273 56.77C40.627 56.6584 40.5061 56.5681 40.3714 56.5043C40.2367 56.4406 40.091 56.4046 39.9427 56.3986C39.7943 56.3925 39.6463 56.4165 39.507 56.469C39.3678 56.5216 39.2401 56.6018 39.1314 56.7049C39.1063 56.7223 39.0846 56.7444 39.0676 56.77C38.4931 57.4455 35.6523 60.9203 35.6523 63.0281C35.6545 64.1756 36.1024 65.2756 36.898 66.087C37.6937 66.8985 38.7722 67.3553 39.8975 67.3574ZM39.8975 59.2765C40.8396 60.3606 41.5393 61.6407 41.9482 63.0281C41.9482 63.5827 41.7321 64.1147 41.3476 64.5069C40.963 64.8992 40.4414 65.1195 39.8975 65.1195C39.3536 65.1195 38.832 64.8992 38.4474 64.5069C38.0628 64.1147 37.8467 63.5827 37.8467 63.0281C38.2556 61.6407 38.9553 60.3606 39.8975 59.2765Z" fill="white"/>
<path d="M10.6849 45.7432H12.8872V36.2218C12.8848 35.974 12.8661 35.7266 12.8314 35.4813C12.7045 34.8016 12.4339 34.1582 12.0384 33.596C11.6429 33.0339 11.132 32.5664 10.5412 32.2261L1.0695 26.8551C1.04026 26.8379 1.00708 26.8288 0.973312 26.8289C0.939548 26.829 0.906404 26.8382 0.87724 26.8555C0.848075 26.8729 0.823927 26.8978 0.807243 26.9277C0.790558 26.9577 0.781931 26.9916 0.782234 27.026V27.8398C0.782773 28.1924 0.871776 28.5391 1.04078 28.8468C1.20978 29.1544 1.45316 29.4129 1.74776 29.5976L6.01682 32.0389V37.0926C6.01228 38.1173 6.33432 39.1159 6.93445 39.9378C7.53459 40.7597 8.38032 41.3605 9.34429 41.6498L10.6849 42.0648V45.7432ZM9.98265 39.5421C9.46826 39.3863 9.01775 39.0636 8.69949 38.623C8.38123 38.1824 8.21259 37.6479 8.21917 37.1007V33.4224L9.40812 34.1467C9.72073 34.3166 9.99419 34.5525 10.2102 34.8388C10.4263 35.1251 10.5799 35.4551 10.6609 35.8068C10.6688 35.9369 10.6688 36.0673 10.6609 36.1974V36.3846H9.50388C9.29225 36.3846 9.08929 36.4703 8.93964 36.6229C8.79 36.7755 8.70592 36.9825 8.70592 37.1984C8.70592 37.4142 8.79 37.6212 8.93964 37.7738C9.08929 37.9264 9.29225 38.0122 9.50388 38.0122H10.6928V39.7374L9.98265 39.5421Z" fill="white"/>
<path d="M54.0134 50.9433V49.4785V44.1563C55.1273 43.9338 56.132 43.3269 56.8587 42.4377C57.5853 41.5484 57.9895 40.431 58.0031 39.2736V23.4128C58.001 22.0839 57.4825 20.8101 56.5611 19.8705C55.6398 18.9308 54.3907 18.402 53.0877 18.3998H26.476C26.324 18.3866 26.171 18.4057 26.0267 18.4559C25.8824 18.5062 25.7498 18.5864 25.6375 18.6916C25.5252 18.7968 25.4355 18.9246 25.3741 19.067C25.3128 19.2094 25.2811 19.3633 25.2811 19.5188C25.2811 19.6743 25.3128 19.8281 25.3741 19.9705C25.4355 20.1129 25.5252 20.2408 25.6375 20.346C25.7498 20.4512 25.8824 20.5314 26.0267 20.5816C26.171 20.6319 26.324 20.651 26.476 20.6377H53.0638C53.7848 20.6399 54.4757 20.933 54.9855 21.4529C55.4954 21.9729 55.7827 22.6774 55.7848 23.4128V39.2329C55.7848 39.9688 55.4981 40.6747 54.9879 41.1951C54.4776 41.7155 53.7855 42.0079 53.0638 42.0079H26.476C25.7564 42.0079 25.0663 41.7164 24.5575 41.1975C24.0487 40.6786 23.7629 39.9748 23.7629 39.241V24.902C23.7629 24.6042 23.6469 24.3185 23.4404 24.1079C23.2339 23.8973 22.9538 23.779 22.6617 23.779C22.3697 23.779 22.0896 23.8973 21.8831 24.1079C21.6766 24.3185 21.5606 24.6042 21.5606 24.902V39.241C21.5712 40.3993 21.9743 41.5182 22.7015 42.4081C23.4286 43.298 24.4351 43.9041 25.5503 44.1237V47.8509C24.773 47.8644 24.0297 48.1788 23.4711 48.7303C22.9125 49.2818 22.5804 50.0293 22.542 50.8212H21.0499C20.0074 50.8203 19.005 51.2306 18.2525 51.9663C17.4999 52.7019 17.0555 53.7059 17.0122 54.7681C17.0095 54.8006 17.0095 54.8333 17.0122 54.8658V77.2206C17.0122 77.4985 16.9585 77.7736 16.8543 78.0303C16.75 78.287 16.5972 78.5203 16.4045 78.7167C16.2119 78.9132 15.9832 79.0691 15.7315 79.1754C15.4798 79.2817 15.21 79.3365 14.9375 79.3365C14.6651 79.3365 14.3953 79.2817 14.1436 79.1754C13.8919 79.0691 13.6632 78.9132 13.4705 78.7167C13.2779 78.5203 13.125 78.287 13.0208 78.0303C12.9165 77.7736 12.8628 77.4985 12.8628 77.2206V50.455H10.6445V77.2288C10.7207 78.3164 11.1943 79.3354 11.9716 80.0841C12.749 80.8328 13.7736 81.2567 14.8427 81.272C15.9118 81.2874 16.9477 80.893 17.7454 80.1669C18.5431 79.4408 19.0446 78.4359 19.1507 77.3508C19.1507 77.3508 19.1507 77.3508 19.1507 77.2857V54.9553C19.1507 54.4524 19.3466 53.9701 19.6953 53.6145C20.044 53.2589 20.5169 53.0592 21.01 53.0592H22.4543V57.6083C22.4553 58.0197 22.5358 58.4269 22.6912 58.8066C22.8465 59.1863 23.0737 59.5311 23.3597 59.8213C23.6457 60.1115 23.985 60.3414 24.3581 60.4978C24.7312 60.6543 25.1309 60.7343 25.5344 60.7332V90.754H23.9385C23.6464 90.754 23.3663 90.8723 23.1598 91.0829C22.9533 91.2935 22.8373 91.5791 22.8373 91.877C22.8373 92.1748 22.9533 92.4605 23.1598 92.6711C23.3663 92.8817 23.6464 93 23.9385 93H55.5774C55.8694 93 56.1495 92.8817 56.356 92.6711C56.5625 92.4605 56.6785 92.1748 56.6785 91.877C56.6785 91.5791 56.5625 91.2935 56.356 91.0829C56.1495 90.8723 55.8694 90.754 55.5774 90.754H53.9814V54.6135V50.9433H54.0134ZM24.0901 57.6083V50.9759C24.0921 50.5836 24.2441 50.2076 24.5139 49.9279C24.7836 49.6482 25.1498 49.487 25.5344 49.4785V59.1056C25.1512 59.0951 24.7871 58.9329 24.519 58.6535C24.2509 58.374 24.1 57.9992 24.098 57.6083M51.8669 90.754H27.7208V44.2458H51.8669V90.754Z" fill="white"/>
<path d="M13.7248 49.1041V47.1103C13.7227 46.9542 13.6604 46.8052 13.5514 46.6955C13.4423 46.5859 13.2954 46.5244 13.1423 46.5244H10.3734C10.221 46.5244 10.0748 46.5861 9.9671 46.696C9.85936 46.8059 9.79883 46.9549 9.79883 47.1103V49.1041C9.79881 49.2603 9.85909 49.4102 9.96661 49.5213C10.0741 49.6325 10.2203 49.6961 10.3734 49.6982H13.1662C13.3207 49.6982 13.4689 49.6356 13.5781 49.5242C13.6873 49.4128 13.7487 49.2617 13.7487 49.1041" fill="white"/>
<path d="M0 34.5292C0.0269941 34.8977 0.189615 35.2423 0.455254 35.4937C0.720893 35.7451 1.06991 35.8849 1.43233 35.8849C1.79474 35.8849 2.14376 35.7451 2.4094 35.4937C2.67504 35.2423 2.83766 34.8977 2.86466 34.5292C2.86466 33.1376 1.50015 31.4937 1.50015 31.4937C1.50015 31.4937 0 33.0318 0 34.5292Z" fill="white"/>
<path d="M39.8415 71.2555C41.6375 71.2555 43.3931 70.7124 44.8864 69.6948C46.3798 68.6772 47.5437 67.2308 48.231 65.5386C48.9183 63.8464 49.0981 61.9843 48.7477 60.1879C48.3973 58.3914 47.5325 56.7413 46.2625 55.4461C44.9925 54.1509 43.3745 53.2689 41.613 52.9116C39.8515 52.5543 38.0257 52.7377 36.3664 53.4386C34.7071 54.1395 33.2889 55.3265 32.2911 56.8495C31.2933 58.3724 30.7607 60.1629 30.7607 61.9946C30.765 64.4494 31.723 66.8025 33.4251 68.5383C35.1271 70.2741 37.4344 71.2512 39.8415 71.2555ZM39.8415 54.3612C41.3218 54.3612 42.7689 54.8089 43.9998 55.6477C45.2307 56.4864 46.19 57.6786 46.7565 59.0734C47.323 60.4682 47.4713 62.0031 47.1825 63.4838C46.8937 64.9645 46.1808 66.3246 45.134 67.3922C44.0873 68.4597 42.7536 69.1867 41.3017 69.4813C39.8498 69.7758 38.3448 69.6246 36.9772 69.0469C35.6095 68.4691 34.4405 67.4908 33.6181 66.2355C32.7956 64.9802 32.3567 63.5043 32.3567 61.9946C32.3588 59.9708 33.148 58.0304 34.5512 56.5994C35.9545 55.1683 37.857 54.3634 39.8415 54.3612Z" fill="white"/>
<path d="M30.9044 78.2866C31.0163 78.4404 31.1619 78.5653 31.3295 78.6515C31.4972 78.7377 31.6822 78.7827 31.8699 78.783H47.6695C47.8639 78.7892 48.0569 78.7473 48.232 78.6608C48.4071 78.5744 48.559 78.446 48.6749 78.2866L49.792 76.716C49.8913 76.5872 49.9641 76.4393 50.0061 76.2811C50.0481 76.123 50.0585 75.9579 50.0366 75.7955C50.0147 75.6332 49.961 75.4771 49.8787 75.3364C49.7964 75.1957 49.6871 75.0733 49.5575 74.9766C49.4278 74.8798 49.2803 74.8107 49.1239 74.7733C48.9675 74.736 48.8053 74.7311 48.647 74.759C48.4887 74.7869 48.3375 74.847 48.2025 74.9358C48.0674 75.0245 47.9513 75.1401 47.861 75.2756L47.063 76.3417H32.4844L31.6864 75.2837C31.5995 75.1415 31.4847 75.019 31.3493 74.9239C31.2139 74.8288 31.0608 74.7632 30.8994 74.7311C30.7381 74.6991 30.5719 74.7013 30.4115 74.7376C30.251 74.7739 30.0995 74.8435 29.9666 74.9421C29.8336 75.0407 29.722 75.1662 29.6387 75.3107C29.5554 75.4553 29.5022 75.6157 29.4824 75.7822C29.4625 75.9486 29.4766 76.1174 29.5235 76.2781C29.5705 76.4387 29.6494 76.5878 29.7554 76.716L30.9044 78.2866Z" fill="white"/>
<path d="M30.9044 82.8439C31.0145 83.0001 31.1595 83.1273 31.3274 83.215C31.4953 83.3028 31.6812 83.3485 31.8699 83.3484H47.6694C47.8647 83.3551 48.0587 83.3125 48.234 83.2245C48.4094 83.1365 48.5608 83.0058 48.6748 82.8439L49.7919 81.2733C49.8979 81.1451 49.9768 80.996 50.0238 80.8353C50.0708 80.6747 50.0848 80.5059 50.0649 80.3394C50.0451 80.173 49.9919 80.0125 49.9086 79.868C49.8253 79.7234 49.7137 79.598 49.5807 79.4993C49.4478 79.4007 49.2964 79.3311 49.1359 79.2948C48.9754 79.2585 48.8093 79.2563 48.6479 79.2884C48.4865 79.3204 48.3334 79.3861 48.198 79.4811C48.0626 79.5762 47.9478 79.6987 47.8609 79.841L47.0629 80.9071H32.4843L31.6863 79.841C31.4913 79.605 31.2158 79.4531 30.9154 79.4159C30.615 79.3787 30.3119 79.459 30.0672 79.6405C29.8224 79.822 29.6542 80.0914 29.5963 80.3943C29.5384 80.6973 29.5953 81.0113 29.7553 81.2733L30.9044 82.8439Z" fill="white"/>
<path d="M49.4728 84.1378C49.3462 84.0431 49.2025 83.9749 49.05 83.9372C48.8974 83.8994 48.7391 83.8928 48.584 83.9178C48.429 83.9428 48.2803 83.9988 48.1466 84.0826C48.0129 84.1665 47.8968 84.2765 47.805 84.4064L47.0789 85.448H32.4843L31.6863 84.382C31.4913 84.146 31.2158 83.9941 30.9154 83.9569C30.615 83.9197 30.3119 83.9999 30.0672 84.1815C29.8224 84.363 29.6542 84.6324 29.5963 84.9353C29.5384 85.2382 29.5953 85.5523 29.7553 85.8142L30.8724 87.3849C30.9826 87.541 31.1276 87.6683 31.2955 87.756C31.4634 87.8437 31.6493 87.8895 31.838 87.8894H47.6375C47.8261 87.8895 48.0121 87.8437 48.1799 87.756C48.3478 87.6683 48.4928 87.541 48.603 87.3849L49.7201 85.8142C49.813 85.6852 49.8798 85.5386 49.9169 85.3831C49.9539 85.2275 49.9604 85.066 49.9359 84.9079C49.9114 84.7498 49.8565 84.5982 49.7742 84.4618C49.692 84.3254 49.5841 84.207 49.4568 84.1134" fill="white"/>
</g>
<defs>
<clipPath id="clip0_1365_78">
<rect width="103" height="93" fill="white"/>
</clipPath>
</defs>
</svg>
