<svg width="90" height="78" viewBox="0 0 90 78" fill="none" xmlns="http://www.w3.org/2000/svg">
<mask id="mask0_1308_650" style="mask-type:luminance" maskUnits="userSpaceOnUse" x="0" y="0" width="90" height="78">
<path d="M90 0.551758H0V77.4212H90V0.551758Z" fill="white"/>
</mask>
<g mask="url(#mask0_1308_650)">
<path d="M34.9167 43.9384C35.1984 43.9384 35.4288 43.708 35.4288 43.4263C35.4288 43.1446 35.1984 42.9077 34.9167 42.9077H32.772C32.4903 42.9077 32.2534 43.1382 32.2534 43.4263C32.2534 43.7144 32.4839 43.9384 32.772 43.9384H34.9167Z" fill="white"/>
</g>
<mask id="mask1_1308_650" style="mask-type:luminance" maskUnits="userSpaceOnUse" x="0" y="0" width="90" height="78">
<path d="M90 0.551758H0V77.4212H90V0.551758Z" fill="white"/>
</mask>
<g mask="url(#mask1_1308_650)">
<path d="M14.9806 40.2317C15.2623 40.2317 15.4928 40.0012 15.4928 39.7195C15.4928 39.4378 15.2623 39.2009 14.9806 39.2009H12.8359C12.5543 39.2009 12.3174 39.4314 12.3174 39.7195C12.3174 40.0076 12.5479 40.2317 12.8359 40.2317H14.9806Z" fill="white"/>
</g>
<mask id="mask2_1308_650" style="mask-type:luminance" maskUnits="userSpaceOnUse" x="0" y="0" width="90" height="78">
<path d="M90 0.551758H0V77.4212H90V0.551758Z" fill="white"/>
</mask>
<g mask="url(#mask2_1308_650)">
<path d="M19.776 40.2317C20.0577 40.2317 20.2882 40.0012 20.2882 39.7195C20.2882 39.4378 20.0577 39.2009 19.776 39.2009H17.6314C17.3497 39.2009 17.1128 39.4314 17.1128 39.7195C17.1128 40.0076 17.3433 40.2317 17.6314 40.2317H19.776Z" fill="white"/>
</g>
<mask id="mask3_1308_650" style="mask-type:luminance" maskUnits="userSpaceOnUse" x="0" y="0" width="90" height="78">
<path d="M90 0.551758H0V77.4212H90V0.551758Z" fill="white"/>
</mask>
<g mask="url(#mask3_1308_650)">
<path d="M31.133 47.5556C31.4147 47.5556 31.6451 47.3252 31.6451 47.0435C31.6451 46.7618 31.4147 46.5249 31.133 46.5249H28.9883C28.7066 46.5249 28.4697 46.7554 28.4697 47.0435C28.4697 47.3316 28.7002 47.5556 28.9883 47.5556H31.133Z" fill="white"/>
</g>
<mask id="mask4_1308_650" style="mask-type:luminance" maskUnits="userSpaceOnUse" x="0" y="0" width="90" height="78">
<path d="M90 0.551758H0V77.4212H90V0.551758Z" fill="white"/>
</mask>
<g mask="url(#mask4_1308_650)">
<path d="M35.3395 47.5556C35.6212 47.5556 35.8517 47.3252 35.8517 47.0435C35.8517 46.7618 35.6212 46.5249 35.3395 46.5249H33.1948C32.9131 46.5249 32.6763 46.7554 32.6763 47.0435C32.6763 47.3316 32.9067 47.5556 33.1948 47.5556H35.3395Z" fill="white"/>
</g>
<mask id="mask5_1308_650" style="mask-type:luminance" maskUnits="userSpaceOnUse" x="0" y="0" width="90" height="78">
<path d="M90 0.551758H0V77.4212H90V0.551758Z" fill="white"/>
</mask>
<g mask="url(#mask5_1308_650)">
<path d="M46.9013 56.8065C46.4148 56.3199 45.7425 56.019 44.9999 56.019C44.2573 56.019 43.585 56.3199 43.0985 56.8065C42.6119 57.2931 42.311 57.9653 42.311 58.7079C42.311 59.4505 42.6119 60.1228 43.0985 60.6093C43.585 61.0959 44.2573 61.3968 44.9999 61.3968C45.7233 61.3968 46.3827 61.1087 46.8693 60.6413C46.8821 60.6349 46.8885 60.6221 46.9013 60.6093C47.3879 60.1228 47.6888 59.4505 47.6888 58.7079C47.6888 57.9653 47.3879 57.2931 46.9013 56.8065ZM46.1715 59.8795C46.1651 59.8859 46.1587 59.8923 46.1459 59.9051C45.8514 60.1932 45.4416 60.366 44.9935 60.366C44.5325 60.366 44.1164 60.1804 43.8219 59.8795C43.521 59.5786 43.3354 59.1624 43.3354 58.7079C43.3354 58.247 43.521 57.8308 43.8219 57.5363C44.1228 57.2354 44.5389 57.0498 44.9935 57.0498C45.4544 57.0498 45.8642 57.2354 46.1651 57.5363C46.466 57.8372 46.6516 58.2534 46.6516 58.7079C46.658 59.1624 46.4724 59.5786 46.1715 59.8795Z" fill="#9AC21C"/>
</g>
<mask id="mask6_1308_650" style="mask-type:luminance" maskUnits="userSpaceOnUse" x="0" y="0" width="90" height="78">
<path d="M90 0.551758H0V77.4212H90V0.551758Z" fill="white"/>
</mask>
<g mask="url(#mask6_1308_650)">
<path d="M88.5147 2.03703C87.5992 1.12154 86.338 0.551758 84.9424 0.551758H5.05762C3.66197 0.551758 2.40077 1.12154 1.48528 2.03703C0.569782 2.95253 0 4.21373 0 5.60938V59.7067C0 61.0959 0.569782 62.3635 1.48528 63.279C2.40077 64.1945 3.66197 64.7643 5.05762 64.7643H35.4802C35.3329 65.9679 35.0192 67.2035 34.507 68.3879C34.0269 69.4954 33.3675 70.5518 32.5032 71.4736H28.8668C28.0474 71.4736 27.3047 71.8066 26.767 72.3443C26.2292 72.8821 25.8963 73.6247 25.8963 74.4442V76.384C25.8963 76.9538 26.3572 77.4147 26.927 77.4147H63.0794C63.6492 77.4147 64.1101 76.9538 64.1101 76.384V74.4442C64.1101 73.6247 63.7772 72.8821 63.2394 72.3443C62.7017 71.8066 61.959 71.4736 61.1396 71.4736H57.5032C56.6389 70.5518 55.9795 69.4954 55.4994 68.3879C54.9872 67.2035 54.6735 65.9615 54.5262 64.7643H84.9488C86.338 64.7643 87.6056 64.1945 88.5211 63.279C89.4366 62.3635 90.0064 61.1023 90.0064 59.7067V5.60938C90 4.21373 89.4302 2.95253 88.5147 2.03703ZM61.1332 73.5351C61.3828 73.5351 61.6133 73.6375 61.7734 73.804C61.9398 73.9705 62.0423 74.1945 62.0423 74.4442V75.3533H27.9577V74.4442C27.9577 74.1945 28.0602 73.964 28.2266 73.804C28.3931 73.6439 28.6172 73.5351 28.8668 73.5351H61.1332ZM55.7106 71.4736H34.2894C34.8912 70.6798 35.3777 69.8219 35.7618 68.932C36.3508 67.5684 36.7093 66.1343 36.8566 64.7579H53.1434C53.2971 66.1343 53.6492 67.5684 54.2382 68.932C54.6287 69.8219 55.1152 70.6798 55.7106 71.4736ZM87.9385 59.7067C87.9385 60.5326 87.5992 61.2752 87.0551 61.8194C86.5109 62.3635 85.7618 62.7028 84.9424 62.7028H5.05762C4.23816 62.7028 3.48912 62.3635 2.94494 61.8194C2.40077 61.2752 2.06146 60.5261 2.06146 59.7067V5.60938C2.06146 4.78991 2.40077 4.04087 2.94494 3.4967C3.48912 2.95253 4.23816 2.61322 5.05762 2.61322H84.9488C85.7747 2.61322 86.5173 2.95253 87.0615 3.4967C87.6056 4.04087 87.9449 4.78991 87.9449 5.60938V59.7067H87.9385Z" fill="white"/>
</g>
<mask id="mask7_1308_650" style="mask-type:luminance" maskUnits="userSpaceOnUse" x="0" y="0" width="90" height="78">
<path d="M90 0.551758H0V77.4212H90V0.551758Z" fill="white"/>
</mask>
<g mask="url(#mask7_1308_650)">
<path d="M69.5518 52.5366H5.56975V5.78879H84.4238V49.3867C84.9871 49.9309 85.6722 50.7376 85.8002 50.8784V4.41235H4.19971V53.9066H70.8962C70.8386 53.817 70.2176 53.1896 69.5518 52.5366Z" fill="#9AC21C"/>
</g>
<mask id="mask8_1308_650" style="mask-type:luminance" maskUnits="userSpaceOnUse" x="0" y="0" width="90" height="78">
<path d="M90 0.551758H0V77.4212H90V0.551758Z" fill="white"/>
</mask>
<g mask="url(#mask8_1308_650)">
<path d="M70.4544 40.3918L66.5171 44.3291C66.882 44.598 67.1637 44.9821 67.5158 45.2702L71.4531 41.3329C71.133 41 70.8385 40.6415 70.4544 40.3918Z" fill="#9AC21C"/>
</g>
<mask id="mask9_1308_650" style="mask-type:luminance" maskUnits="userSpaceOnUse" x="0" y="0" width="90" height="78">
<path d="M90 0.551758H0V77.4212H90V0.551758Z" fill="white"/>
</mask>
<g mask="url(#mask9_1308_650)">
<path d="M86.114 53.9318C86.1076 53.4517 86.0052 52.9715 85.8003 52.5298C85.8003 52.5298 85.6979 52.1393 84.347 50.8012C83.2011 49.6553 71.6133 38.0676 71.6133 38.0676C70.9283 37.3825 70.032 37.0432 69.1358 37.0432C68.5724 37.0432 68.0154 37.1777 67.5096 37.4402L66.4405 36.371C68.8028 33.17 69.9872 29.3672 69.9872 25.5708C69.9872 20.9101 68.2075 16.2494 64.6543 12.6898C61.0948 9.1303 56.4341 7.35693 51.7734 7.35693C47.1127 7.35693 42.452 9.1367 38.8925 12.6898C35.3329 16.2494 33.5596 20.9101 33.5596 25.5708C33.5596 30.2315 35.3393 34.8921 38.8925 38.4517C42.452 42.0048 47.1127 43.7846 51.7734 43.7846C55.5698 43.7846 59.3726 42.6002 62.5737 40.2379L63.63 41.2942C63.3419 41.8192 63.2011 42.4017 63.2011 42.9779C63.2011 43.8486 63.5212 44.7193 64.1614 45.3915C64.1806 45.4171 64.1998 45.4363 64.2254 45.4555L77.7657 58.9959C78.4059 59.6361 79.251 59.9562 80.0897 59.9562C80.9027 59.9562 81.7158 59.6553 82.3496 59.0599C82.3752 59.0407 82.3944 59.0215 82.4136 58.9959L85.1537 56.2558C85.7939 55.6156 86.114 54.7705 86.114 53.9318ZM63.1947 36.992C62.8169 37.3697 62.4264 37.7218 62.0231 38.0548C62.0103 38.0676 61.9911 38.0804 61.9783 38.0932C59.0141 40.5131 55.3906 41.7295 51.767 41.7295C47.6313 41.7295 43.4956 40.1546 40.3457 36.9984C37.1895 33.8422 35.6146 29.7129 35.6146 25.5772C35.6146 21.4414 37.1895 17.3057 40.3457 14.1559C43.502 10.9997 47.6377 9.42479 51.767 9.42479C55.9027 9.42479 60.0384 10.9997 63.1882 14.1559C66.3445 17.3121 67.9194 21.4414 67.9194 25.5772C67.9194 29.2007 66.703 32.8307 64.283 35.7948L64.2574 35.8204C63.9309 36.2174 63.5724 36.6143 63.1947 36.992ZM64.1678 38.919C64.3342 38.7654 64.4943 38.6117 64.6543 38.4517C64.8144 38.2916 64.968 38.1316 65.1217 37.9651L65.9411 38.7846L64.9872 39.7385L64.1678 38.919ZM84.0525 53.9318C84.0525 54.2519 83.9309 54.5656 83.694 54.8025L80.9539 57.5426C80.9411 57.5554 80.9283 57.5682 80.9155 57.581C80.6851 57.7923 80.3842 57.9011 80.0833 57.9011C79.7632 57.9011 79.4495 57.7859 79.2126 57.549L65.6722 44.0087C65.6594 43.9959 65.6466 43.9831 65.6274 43.9702C65.3778 43.695 65.2497 43.3428 65.2497 42.9843C65.2497 42.6642 65.3521 42.3505 65.557 42.088C65.6146 42.0496 65.6722 42.0048 65.7235 41.9536C65.7875 41.8896 65.8387 41.8192 65.8835 41.7487L67.9322 39.7001C68.0026 39.6553 68.073 39.6041 68.137 39.54C68.1819 39.4952 68.2267 39.444 68.2587 39.3928C68.5148 39.2007 68.8221 39.1047 69.1294 39.1047C69.5007 39.1047 69.872 39.2455 70.1537 39.5208L83.694 53.0612C83.9373 53.3044 84.0589 53.6181 84.0525 53.9318Z" fill="white"/>
</g>
<mask id="mask10_1308_650" style="mask-type:luminance" maskUnits="userSpaceOnUse" x="0" y="0" width="90" height="78">
<path d="M90 0.551758H0V77.4212H90V0.551758Z" fill="white"/>
</mask>
<g mask="url(#mask10_1308_650)">
<path d="M16.5171 46.48C16.2354 46.48 15.9985 46.7105 15.9985 46.9921C15.9985 47.2802 16.229 47.5107 16.5171 47.5107H26.5747C26.8564 47.5107 27.0933 47.2802 27.0933 46.9921C27.0933 46.7105 26.8628 46.48 26.5747 46.48H16.5171Z" fill="white"/>
</g>
<mask id="mask11_1308_650" style="mask-type:luminance" maskUnits="userSpaceOnUse" x="0" y="0" width="90" height="78">
<path d="M90 0.551758H0V77.4212H90V0.551758Z" fill="white"/>
</mask>
<g mask="url(#mask11_1308_650)">
<path d="M24.5903 39.1626C24.3087 39.1626 24.0718 39.3931 24.0718 39.6812C24.0718 39.9629 24.3023 40.1997 24.5903 40.1997H34.648C34.9297 40.1997 35.1665 39.9693 35.1665 39.6812C35.1665 39.3995 34.9361 39.1626 34.648 39.1626H24.5903Z" fill="white"/>
</g>
<mask id="mask12_1308_650" style="mask-type:luminance" maskUnits="userSpaceOnUse" x="0" y="0" width="90" height="78">
<path d="M90 0.551758H0V77.4212H90V0.551758Z" fill="white"/>
</mask>
<g mask="url(#mask12_1308_650)">
<path d="M30.3523 43.4199C30.3523 43.1382 30.1219 42.9077 29.8338 42.9077H12.7339C12.4522 42.9077 12.2153 43.1382 12.2153 43.4199C12.2153 43.7016 12.4458 43.9384 12.7339 43.9384H29.8402C30.1219 43.9384 30.3523 43.7016 30.3523 43.4199Z" fill="white"/>
</g>
<mask id="mask13_1308_650" style="mask-type:luminance" maskUnits="userSpaceOnUse" x="0" y="0" width="90" height="78">
<path d="M90 0.551758H0V77.4212H90V0.551758Z" fill="white"/>
</mask>
<g mask="url(#mask13_1308_650)">
<path d="M66.4471 25.5133V25.4877C66.4279 21.7617 64.9938 18.0357 62.1513 15.1932C59.2832 12.3251 55.5316 10.8975 51.7736 10.8975C48.0156 10.8975 44.264 12.3315 41.3959 15.1932C38.5278 18.0614 37.1001 21.813 37.1001 25.571C37.1001 29.329 38.5342 33.0806 41.3959 35.9487C44.2576 38.8168 48.0156 40.2445 51.7736 40.2445C55.5316 40.2445 59.2832 38.8104 62.1513 35.9487C65.0194 33.0806 66.4471 29.329 66.4471 25.571V25.5133ZM42.3626 16.1663C44.9618 13.5671 48.3677 12.2675 51.7672 12.2675C55.1667 12.2675 58.579 13.5671 61.1718 16.1663C63.579 18.5735 64.8722 21.6785 65.045 24.8283H60.0707L57.4906 16.4352C57.433 16.1984 57.2473 15.9999 56.9913 15.9359C56.6263 15.8462 56.2486 16.0703 56.159 16.4352L54.0399 24.8283H50.1475C49.7762 24.8283 49.4689 25.1292 49.4625 25.5005L49.3344 31.5057L44.4176 21.0767C44.3472 20.9295 44.2256 20.8078 44.0655 20.7374C43.7198 20.5902 43.3165 20.7566 43.1692 21.1023L41.6007 24.8283H39.0079C38.7966 24.8283 38.611 24.9243 38.4829 25.0716C38.5982 21.8322 39.8914 18.6375 42.3626 16.1663ZM61.1782 34.9756C58.579 37.5748 55.1795 38.8744 51.7736 38.8744C48.3677 38.8744 44.9618 37.5748 42.369 34.9756C39.8722 32.4724 38.5726 29.2265 38.4765 25.9487C38.6046 26.1023 38.7902 26.1984 39.0079 26.1984H42.0553C42.3626 26.1984 42.6251 25.9999 42.7083 25.7182L43.8351 23.0485L49.3408 34.7195C49.5009 35.0652 49.9106 35.206 50.2499 35.046C50.506 34.9244 50.6532 34.6683 50.6404 34.4058L50.8197 26.2048H54.5777C54.9106 26.2048 55.1923 25.9615 55.2499 25.6478L56.8888 19.1433L58.9183 25.7182C59.0079 26.0127 59.2768 26.2048 59.5713 26.1984H65.0514C64.9106 29.393 63.611 32.5428 61.1782 34.9756Z" fill="#9AC21C"/>
</g>
<mask id="mask14_1308_650" style="mask-type:luminance" maskUnits="userSpaceOnUse" x="0" y="0" width="90" height="78">
<path d="M90 0.551758H0V77.4212H90V0.551758Z" fill="white"/>
</mask>
<g mask="url(#mask14_1308_650)">
<path d="M12.8809 46.48C12.5992 46.48 12.3623 46.7105 12.3623 46.9921C12.3623 47.2802 12.5928 47.5107 12.8809 47.5107H14.3277C14.6094 47.5107 14.8463 47.2802 14.8463 46.9921C14.8463 46.7105 14.6158 46.48 14.3277 46.48H12.8809Z" fill="white"/>
</g>
<mask id="mask15_1308_650" style="mask-type:luminance" maskUnits="userSpaceOnUse" x="0" y="0" width="90" height="78">
<path d="M90 0.551758H0V77.4212H90V0.551758Z" fill="white"/>
</mask>
<g mask="url(#mask15_1308_650)">
<path d="M18.9118 18.8359V23.3941C18.9118 23.7718 19.2191 24.0791 19.5969 24.0791H24.1551V26.8512H19.5969C19.2191 26.8512 18.9118 27.1585 18.9118 27.5363V32.0945H16.1333V27.5363C16.1333 27.1585 15.826 26.8512 15.4483 26.8512H10.8901V24.0791H15.4483C15.826 24.0791 16.1333 23.7718 16.1333 23.3941V18.8359H18.9118ZM20.6276 17.1201H18.9118H16.1333H14.4176V18.8359V22.3634H10.8901H9.17432V24.0791V26.8512V28.567H10.8901H14.4176V32.0945V33.8103H16.1333H18.9054H20.6212V32.0945V28.567H24.1487H25.8645V26.8512V24.0791V22.3634H24.1487H20.6212V18.8359V17.1201H20.6276Z" fill="#9AC21C"/>
</g>
<mask id="mask16_1308_650" style="mask-type:luminance" maskUnits="userSpaceOnUse" x="0" y="0" width="90" height="78">
<path d="M90 0.551758H0V77.4212H90V0.551758Z" fill="white"/>
</mask>
<g mask="url(#mask16_1308_650)">
<path d="M70.6016 25.3406H82.5606" stroke="#9AC21C" stroke-width="1.61" stroke-miterlimit="10" stroke-linecap="round" stroke-linejoin="round"/>
</g>
<mask id="mask17_1308_650" style="mask-type:luminance" maskUnits="userSpaceOnUse" x="0" y="0" width="90" height="78">
<path d="M90 0.551758H0V77.4212H90V0.551758Z" fill="white"/>
</mask>
<g mask="url(#mask17_1308_650)">
<path d="M28.9438 25.0718H32.5098" stroke="#9AC21C" stroke-width="1.61" stroke-miterlimit="10" stroke-linecap="round" stroke-linejoin="round"/>
</g>
</svg>
